<svg width="18" height="18" viewBox="0 0 18 18" fill="none" xmlns="http://www.w3.org/2000/svg">
<path d="M9.75 8.625C9.75 8.00368 10.2537 7.5 10.875 7.5C11.4963 7.5 12 8.00368 12 8.625C12 9.24632 11.4963 9.75 10.875 9.75C10.2537 9.75 9.75 9.24632 9.75 8.625Z" fill="white"/>
<path d="M8.352 9.82688C8.24921 9.66241 8.06894 9.5625 7.875 9.5625C7.68106 9.5625 7.50079 9.66241 7.398 9.82688L5.523 12.8269C5.41463 13.0003 5.40889 13.2188 5.50801 13.3977C5.60714 13.5765 5.79552 13.6875 6 13.6875H12C12.2131 13.6875 12.4078 13.5671 12.5031 13.3766C12.5984 13.186 12.5778 12.9579 12.45 12.7875L11.325 11.2875C11.2188 11.1459 11.0521 11.0625 10.875 11.0625C10.698 11.0625 10.5312 11.1459 10.425 11.2875L9.79221 12.1312L8.352 9.82688Z" fill="white"/>
<path fill-rule="evenodd" clip-rule="evenodd" d="M5.25 1.6875C4.11091 1.6875 3.1875 2.61091 3.1875 3.75V14.25C3.1875 15.3891 4.11091 16.3125 5.25 16.3125H12.75C13.8891 16.3125 14.8125 15.3891 14.8125 14.25V5.97574C14.8125 5.69016 14.7194 5.41238 14.5472 5.18452L12.2989 2.20878C12.0508 1.88047 11.6631 1.6875 11.2517 1.6875H5.25ZM4.3125 3.75C4.3125 3.23223 4.73223 2.8125 5.25 2.8125H10.6875V6.11028C10.6875 6.42094 10.9393 6.67278 11.25 6.67278H13.6875V14.25C13.6875 14.7678 13.2678 15.1875 12.75 15.1875H5.25C4.73223 15.1875 4.3125 14.7678 4.3125 14.25V3.75Z" fill="white"/>
</svg>
