<svg width="18" height="18" viewBox="0 0 18 18" fill="none" xmlns="http://www.w3.org/2000/svg">
<path d="M9.74998 6.74992C9.74998 7.16413 9.4142 7.49992 8.99998 7.49992C8.58577 7.49992 8.24998 7.16413 8.24998 6.74992C8.24998 6.3357 8.58577 5.99992 8.99998 5.99992C9.4142 5.99992 9.74998 6.3357 9.74998 6.74992Z" fill="white"/>
<path d="M8.99998 8.81242C9.31064 8.81242 9.56248 9.06426 9.56248 9.37492V13.1249C9.56248 13.4356 9.31065 13.6874 8.99998 13.6874C8.68932 13.6874 8.43748 13.4356 8.43748 13.1249V9.37492C8.43748 9.06426 8.68932 8.81242 8.99998 8.81242Z" fill="white"/>
<path fill-rule="evenodd" clip-rule="evenodd" d="M10.7027 2.99439C9.88377 1.79614 8.11617 1.79614 7.29719 2.99439L6.97325 3.46835C4.94372 6.43776 3.2 9.59273 1.76545 12.891L1.69779 13.0465C1.19225 14.2089 1.95602 15.5287 3.21568 15.6694C7.0599 16.0991 10.94 16.0991 14.7843 15.6694C16.0439 15.5287 16.8077 14.2089 16.3021 13.0465L16.2345 12.891C14.7999 9.59272 13.0562 6.43776 11.0267 3.46835L10.7027 2.99439ZM8.22598 3.6292C8.59824 3.08454 9.40169 3.08454 9.77396 3.6292L10.0979 4.10316C12.0873 7.01392 13.7966 10.1066 15.2028 13.3397L15.2705 13.4952C15.4741 13.9633 15.1665 14.4947 14.6593 14.5514C10.8981 14.9718 7.10181 14.9718 3.34064 14.5514C2.83342 14.4947 2.52587 13.9633 2.72944 13.4952L2.7971 13.3397C4.20331 10.1066 5.91259 7.01392 7.90204 4.10316L8.22598 3.6292Z" fill="white"/>
</svg>
