<svg width="18" height="18" viewBox="0 0 18 18" fill="none" xmlns="http://www.w3.org/2000/svg">
<path fill-rule="evenodd" clip-rule="evenodd" d="M5.43769 11.288C5.43149 11.5461 5.60175 11.7753 5.85063 11.8438C6.09951 11.9124 6.36312 11.8028 6.48995 11.5779L7.16668 10.3783C7.96924 8.95555 9.56689 8.1761 11.1822 8.41921L11.2942 8.43606C11.3143 8.94445 11.3429 9.45259 11.3799 9.96027L11.4307 10.6583C11.4721 11.2259 12.105 11.5432 12.5846 11.2367C14.1579 10.2315 15.5256 8.93615 16.6148 7.41983L16.9569 6.94362C17.0977 6.74752 17.0977 6.48338 16.9569 6.28728L16.6148 5.81107C15.5256 4.29475 14.1579 2.99944 12.5846 1.99417C12.105 1.68773 11.4721 2.00503 11.4307 2.57265L11.3799 3.27062C11.35 3.67992 11.3257 4.08952 11.3068 4.4993L10.5432 4.4993C7.79462 4.4993 5.54818 6.69238 5.48212 9.44012L5.43769 11.288ZM11.3496 7.30674C9.53512 7.03365 7.73795 7.76414 6.62473 9.17298C6.82094 7.17561 8.50447 5.6243 10.5432 5.6243L11.8472 5.6243C12.1504 5.6243 12.399 5.38403 12.4094 5.08103C12.4291 4.50443 12.4599 3.92812 12.5019 3.35242L12.506 3.29657C13.7386 4.16782 14.8187 5.23911 15.7011 6.46742L15.8074 6.61545L15.7011 6.76348C14.8187 7.99179 13.7386 9.06308 12.506 9.93433L12.5019 9.87848C12.4547 9.23057 12.4215 8.58189 12.4025 7.9329C12.3945 7.66093 12.193 7.43367 11.9239 7.39318L11.3496 7.30674Z" fill="white"/>
<path d="M14.731 13.0585C14.8195 12.3022 14.8819 11.5437 14.9183 10.7843C14.9223 10.7021 14.9596 10.625 15.0213 10.5706C15.2938 10.33 15.5578 10.08 15.813 9.82106C15.9089 9.72367 16.0766 9.79177 16.0736 9.92846C16.0502 11.0174 15.9752 12.1055 15.8484 13.1892C15.671 14.706 14.4527 15.8948 12.9437 16.0635C10.3438 16.354 7.65627 16.354 5.05634 16.0635C3.5473 15.8948 2.32905 14.706 2.15163 13.1892C1.84073 10.5309 1.84073 7.84553 2.15163 5.1873C2.32905 3.67041 3.5473 2.48165 5.05634 2.31299C6.77457 2.12095 8.53105 2.05583 10.2752 2.11762C10.4221 2.12282 10.5232 2.26658 10.5049 2.41237C10.501 2.44274 10.498 2.47345 10.4957 2.50449L10.4573 3.03235C10.4484 3.15355 10.345 3.24575 10.2235 3.24149C8.53824 3.18237 6.8409 3.24554 5.1813 3.43103C4.18372 3.54252 3.3846 4.32973 3.26902 5.31799C2.96827 7.88938 2.96827 10.4871 3.26902 13.0585C3.3846 14.0467 4.18372 14.8339 5.1813 14.9454C7.69819 15.2267 10.3019 15.2267 12.8188 14.9454C13.8163 14.8339 14.6154 14.0467 14.731 13.0585Z" fill="white"/>
</svg>
