<svg width="18" height="18" viewBox="0 0 18 18" fill="none" xmlns="http://www.w3.org/2000/svg">
<path d="M10.5236 9.87326C10.7662 9.67919 11.1202 9.71852 11.3143 9.96111C11.5083 10.2037 11.469 10.5577 11.2264 10.7517L9.35595 12.2481C9.25943 12.3271 9.13619 12.3746 9.00186 12.375L9.00004 12.375L8.9953 12.375C8.86326 12.3739 8.74207 12.3273 8.64663 12.2501L6.77363 10.7517C6.53104 10.5577 6.49171 10.2037 6.68578 9.96111C6.87985 9.71852 7.23383 9.67919 7.47641 9.87326L8.43754 10.6422V8.0625C8.43754 7.75184 8.68938 7.5 9.00004 7.5C9.3107 7.5 9.56254 7.75184 9.56254 8.0625V10.6421L10.5236 9.87326Z" fill="white"/>
<path fill-rule="evenodd" clip-rule="evenodd" d="M5.25 1.6875C4.11091 1.6875 3.1875 2.61091 3.1875 3.75V14.25C3.1875 15.3891 4.11091 16.3125 5.25 16.3125H12.75C13.8891 16.3125 14.8125 15.3891 14.8125 14.25V6.14842C14.8125 5.87383 14.7264 5.60616 14.5663 5.38309L12.3064 2.23466C12.0598 1.89118 11.6629 1.6875 11.2401 1.6875H5.25ZM4.3125 3.75C4.3125 3.23223 4.73223 2.8125 5.25 2.8125H10.6875V6.11028C10.6875 6.42094 10.9393 6.67278 11.25 6.67278H13.6875V14.25C13.6875 14.7678 13.2678 15.1875 12.75 15.1875H5.25C4.73223 15.1875 4.3125 14.7678 4.3125 14.25V3.75Z" fill="white"/>
</svg>
