<svg width="18" height="18" viewBox="0 0 18 18" fill="none" xmlns="http://www.w3.org/2000/svg">
<path fill-rule="evenodd" clip-rule="evenodd" d="M15.3977 3.39775C15.6174 3.17808 15.6174 2.82192 15.3977 2.60225C15.1781 2.38258 14.8219 2.38258 14.6023 2.60225L2.60225 14.6023C2.38258 14.8219 2.38258 15.1781 2.60225 15.3977C2.82192 15.6174 3.17808 15.6174 3.39775 15.3977L5.53292 13.2626C6.55765 13.745 7.73789 14.0625 9 14.0625C11.013 14.0625 12.8178 13.2547 14.1154 12.2587C14.7655 11.7598 15.3024 11.2032 15.6817 10.6566C16.0505 10.1252 16.3125 9.54203 16.3125 9C16.3125 8.45797 16.0505 7.87479 15.6817 7.34336C15.3024 6.79683 14.7655 6.24021 14.1154 5.74127C13.9188 5.59039 13.7106 5.44382 13.4918 5.30372L15.3977 3.39775ZM12.6747 6.12084L11.3465 7.44897C11.641 7.89359 11.8125 8.42677 11.8125 9C11.8125 10.5533 10.5533 11.8125 9 11.8125C8.42677 11.8125 7.89359 11.641 7.44897 11.3465L6.38643 12.4091C7.18558 12.7346 8.07159 12.9375 9 12.9375C10.7149 12.9375 12.2852 12.2453 13.4305 11.3663C14.0019 10.9277 14.4536 10.4531 14.7574 10.0152C15.0718 9.56229 15.1875 9.20797 15.1875 9C15.1875 8.79203 15.0718 8.43771 14.7574 7.98477C14.4536 7.54692 14.0019 7.07229 13.4305 6.63373C13.1956 6.45345 12.9429 6.28104 12.6747 6.12084ZM8.27245 10.523C8.49275 10.6285 8.73948 10.6875 9 10.6875C9.93198 10.6875 10.6875 9.93198 10.6875 9C10.6875 8.73948 10.6285 8.49275 10.523 8.27245L8.27245 10.523Z" fill="white"/>
<path d="M9 3.9375C9.77426 3.9375 10.5177 4.05701 11.2134 4.26076C11.3472 4.29996 11.387 4.46747 11.2884 4.56607L10.67 5.18449C10.6236 5.23088 10.5564 5.24946 10.4925 5.23475C10.0129 5.12443 9.51294 5.0625 9 5.0625C7.28509 5.0625 5.71484 5.75469 4.5695 6.63373C3.99808 7.07229 3.54643 7.54692 3.24257 7.98477C2.92823 8.43771 2.8125 8.79203 2.8125 9C2.8125 9.20797 2.92823 9.56229 3.24257 10.0152C3.50794 10.3976 3.88603 10.8081 4.35818 11.198C4.44507 11.2698 4.45336 11.4012 4.37367 11.4808L3.84198 12.0125C3.77425 12.0803 3.66618 12.0862 3.59278 12.0247C3.07304 11.5888 2.63927 11.1191 2.31833 10.6566C1.94953 10.1252 1.6875 9.54203 1.6875 9C1.6875 8.45797 1.94953 7.87479 2.31833 7.34336C2.69761 6.79683 3.23447 6.24021 3.88455 5.74127C5.18224 4.74531 6.98699 3.9375 9 3.9375Z" fill="white"/>
<path d="M9 6.1875C9.08885 6.1875 9.17674 6.19162 9.26349 6.19968C9.41113 6.2134 9.46458 6.38993 9.35974 6.49478L8.45054 7.40397C7.96056 7.57263 7.57263 7.96056 7.40397 8.45054L6.49478 9.35974C6.38993 9.46458 6.2134 9.41113 6.19968 9.26349C6.19162 9.17674 6.1875 9.08885 6.1875 9C6.1875 7.4467 7.4467 6.1875 9 6.1875Z" fill="white"/>
</svg>
