<svg width="18" height="18" viewBox="0 0 18 18" fill="none" xmlns="http://www.w3.org/2000/svg">
<path d="M5.64775 4.89775C5.86742 4.67808 5.86742 4.32192 5.64775 4.10225C5.42808 3.88258 5.07192 3.88258 4.85225 4.10225L3.35225 5.60225C3.13258 5.82192 3.13258 6.17808 3.35225 6.39775L4.85225 7.89775C5.07192 8.11742 5.42808 8.11742 5.64775 7.89775C5.86742 7.67808 5.86742 7.32192 5.64775 7.10225L5.108 6.5625H12.75C13.0607 6.5625 13.3125 6.31066 13.3125 6C13.3125 5.68934 13.0607 5.4375 12.75 5.4375H5.108L5.64775 4.89775Z" fill="white"/>
<path d="M12.3523 10.1023C12.1326 10.3219 12.1326 10.6781 12.3523 10.8977L12.892 11.4375H5.25C4.93934 11.4375 4.6875 11.6893 4.6875 12C4.6875 12.3107 4.93934 12.5625 5.25 12.5625H12.892L12.3523 13.1023C12.1326 13.3219 12.1326 13.6781 12.3523 13.8977C12.5719 14.1174 12.9281 14.1174 13.1477 13.8977L14.6477 12.3977C14.8674 12.1781 14.8674 11.8219 14.6477 11.6023L13.1477 10.1023C12.9281 9.88258 12.5719 9.88258 12.3523 10.1023Z" fill="white"/>
</svg>
