<svg width="18" height="18" viewBox="0 0 18 18" fill="none" xmlns="http://www.w3.org/2000/svg">
<path fill-rule="evenodd" clip-rule="evenodd" d="M13.5208 7.473C13.5208 7.16234 13.2689 6.9105 12.9583 6.9105L11.0888 6.9105V5.04102C11.0888 4.73036 10.8369 4.47852 10.5263 4.47852C10.2156 4.47852 9.96378 4.73036 9.96378 5.04102V7.473C9.96378 7.78366 10.2156 8.0355 10.5263 8.0355L12.9583 8.0355C13.2689 8.0355 13.5208 7.78366 13.5208 7.473Z" fill="white"/>
<path fill-rule="evenodd" clip-rule="evenodd" d="M10.5263 13.5208C10.837 13.5208 11.0888 13.2689 11.0888 12.9583L11.0888 11.0888L12.9583 11.0888C13.2689 11.0888 13.5208 10.8369 13.5208 10.5263C13.5208 10.2156 13.2689 9.96378 12.9583 9.96378L10.5263 9.96378C10.2156 9.96378 9.9638 10.2156 9.9638 10.5263L9.9638 12.9583C9.9638 13.2689 10.2156 13.5208 10.5263 13.5208Z" fill="white"/>
<path fill-rule="evenodd" clip-rule="evenodd" d="M7.473 13.5208C7.16234 13.5208 6.9105 13.2689 6.9105 12.9583V11.0888H5.04102C4.73036 11.0888 4.47852 10.8369 4.47852 10.5263C4.47852 10.2156 4.73036 9.96378 5.04102 9.96378H7.473C7.78366 9.96378 8.0355 10.2156 8.0355 10.5263L8.0355 12.9583C8.0355 13.2689 7.78366 13.5208 7.473 13.5208Z" fill="white"/>
<path fill-rule="evenodd" clip-rule="evenodd" d="M4.47854 7.473C4.47854 7.16234 4.73038 6.9105 5.04104 6.9105H6.91052L6.91052 5.04102C6.91052 4.73036 7.16236 4.47852 7.47302 4.47852C7.78368 4.47852 8.03552 4.73036 8.03552 5.04102L8.03552 7.473C8.03552 7.78366 7.78368 8.0355 7.47302 8.0355L5.04104 8.0355C4.73038 8.0355 4.47854 7.78366 4.47854 7.473Z" fill="white"/>
</svg>
