<svg width="18" height="18" viewBox="0 0 18 18" fill="none" xmlns="http://www.w3.org/2000/svg">
<path fill-rule="evenodd" clip-rule="evenodd" d="M2.10253 6.26488C1.89243 8.21705 1.90179 10.4685 2.19416 12.4128C2.35593 13.4886 3.23394 14.3133 4.31774 14.4075L5.45041 14.506C7.8122 14.7113 10.1873 14.7113 12.5491 14.506L13.6818 14.4075C14.7656 14.3133 15.6436 13.4886 15.8054 12.4128C16.0977 10.4685 16.1071 8.21718 15.897 6.265C15.8699 6.03868 15.8393 5.81266 15.8054 5.58702C15.6436 4.51123 14.7656 3.6865 13.6818 3.59228L12.5491 3.49382C10.1873 3.28852 7.8122 3.28852 5.45041 3.49382L4.31774 3.59228C3.23394 3.6865 2.35593 4.51123 2.19416 5.58702C2.16024 5.81262 2.12969 6.0386 2.10253 6.26488ZM5.54784 4.6146C7.84479 4.41493 10.1547 4.41493 12.4517 4.6146L13.5844 4.71306C14.1501 4.76224 14.6084 5.19275 14.6929 5.75432C14.7017 5.81263 14.7102 5.87098 14.7185 5.92935L10.5477 8.24643C9.58503 8.78127 8.41445 8.78127 7.45176 8.24643L3.28105 5.92938C3.28935 5.871 3.29788 5.81264 3.30665 5.75432C3.3911 5.19275 3.84942 4.76224 4.41516 4.71306L5.54784 4.6146ZM14.8561 7.13982C15.0016 8.84064 14.9472 10.5543 14.6929 12.2455C14.6084 12.8071 14.1501 13.2376 13.5844 13.2868L12.4517 13.3852C10.1547 13.5849 7.84479 13.5849 5.54784 13.3852L4.41516 13.2868C3.84942 13.2376 3.3911 12.8071 3.30665 12.2455C3.05233 10.5543 2.99791 8.84066 3.14339 7.13985L6.90541 9.22986C8.20788 9.95346 9.79161 9.95346 11.0941 9.22986L14.8561 7.13982Z" fill="white"/>
</svg>
