<svg width="18" height="18" viewBox="0 0 18 18" fill="none" xmlns="http://www.w3.org/2000/svg">
<path d="M7.85225 6.35263C8.07192 6.13296 8.42808 6.13296 8.64775 6.35263L10.5 8.20489L12.3523 6.35263C12.5719 6.13296 12.9281 6.13296 13.1478 6.35263C13.3674 6.5723 13.3674 6.92846 13.1478 7.14813L11.2955 9.00038L13.1477 10.8526C13.3674 11.0723 13.3674 11.4285 13.1477 11.6481C12.9281 11.8678 12.5719 11.8678 12.3523 11.6481L10.5 9.79588L8.64775 11.6481C8.42808 11.8678 8.07193 11.8678 7.85226 11.6481C7.63259 11.4285 7.63259 11.0723 7.85226 10.8526L9.70451 9.00038L7.85225 7.14812C7.63258 6.92845 7.63258 6.5723 7.85225 6.35263Z" fill="white"/>
<path fill-rule="evenodd" clip-rule="evenodd" d="M6.30446 3.71289C5.44116 3.71289 4.62568 4.10937 4.09249 4.78834L1.42136 8.18977C1.0477 8.66559 1.0477 9.33519 1.42136 9.81102L4.09249 13.2124C4.62568 13.8914 5.44116 14.2879 6.30446 14.2879H14.2895C15.4286 14.2879 16.352 13.3645 16.352 12.2254V5.77539C16.352 4.6363 15.4286 3.71289 14.2895 3.71289H6.30446ZM4.97728 5.48316C5.29719 5.07578 5.78648 4.83789 6.30446 4.83789H14.2895C14.8072 4.83789 15.227 5.25762 15.227 5.77539V12.2254C15.227 12.7432 14.8072 13.1629 14.2895 13.1629H6.30446C5.78648 13.1629 5.29719 12.925 4.97728 12.5176L2.30615 9.1162C2.25277 9.04822 2.25277 8.95256 2.30615 8.88459L4.97728 5.48316Z" fill="white"/>
</svg>
