<svg width="18" height="18" viewBox="0 0 18 18" fill="none" xmlns="http://www.w3.org/2000/svg">
<path d="M7.10225 4.89775C7.32192 5.11742 7.67808 5.11742 7.89775 4.89775L8.4375 4.35799V8.4375H4.358L4.89775 7.89775C5.11742 7.67808 5.11742 7.32192 4.89775 7.10225C4.67808 6.88258 4.32192 6.88258 4.10225 7.10225L2.60225 8.60225C2.38258 8.82192 2.38258 9.17808 2.60225 9.39775L4.10225 10.8977C4.32192 11.1174 4.67808 11.1174 4.89775 10.8977C5.11742 10.6781 5.11742 10.3219 4.89775 10.1023L4.35799 9.5625H8.4375V13.642L7.89775 13.1023C7.67808 12.8826 7.32192 12.8826 7.10225 13.1023C6.88258 13.3219 6.88258 13.6781 7.10225 13.8977L8.60225 15.3977C8.82192 15.6174 9.17808 15.6174 9.39775 15.3977L10.8977 13.8977C11.1174 13.6781 11.1174 13.3219 10.8977 13.1023C10.6781 12.8826 10.3219 12.8826 10.1023 13.1023L9.5625 13.642V9.5625H13.642L13.1023 10.1023C12.8826 10.3219 12.8826 10.6781 13.1023 10.8977C13.3219 11.1174 13.6781 11.1174 13.8977 10.8977L15.3977 9.39775C15.6174 9.17808 15.6174 8.82192 15.3977 8.60225L13.8977 7.10225C13.6781 6.88258 13.3219 6.88258 13.1023 7.10225C12.8826 7.32192 12.8826 7.67808 13.1023 7.89775L13.642 8.4375H9.5625V4.358L10.1023 4.89775C10.3219 5.11742 10.6781 5.11742 10.8977 4.89775C11.1174 4.67808 11.1174 4.32192 10.8977 4.10225L9.39775 2.60225C9.17808 2.38258 8.82192 2.38258 8.60225 2.60225L7.10225 4.10225C6.88258 4.32192 6.88258 4.67808 7.10225 4.89775Z" fill="white"/>
</svg>
