<svg width="18" height="18" viewBox="0 0 18 18" fill="none" xmlns="http://www.w3.org/2000/svg">
<path fill-rule="evenodd" clip-rule="evenodd" d="M6.69692 3.35287C5.7435 3.24631 4.75657 3.24631 3.80316 3.35287C3.57149 3.37876 3.38879 3.5622 3.36273 3.785C3.24888 4.75845 3.24888 5.74186 3.36273 6.71532C3.38879 6.93811 3.57149 7.12155 3.80316 7.14744C4.75657 7.254 5.7435 7.254 6.69691 7.14744C6.92858 7.12155 7.11128 6.93811 7.13734 6.71532C7.25119 5.74186 7.25119 4.75845 7.13734 3.785C7.11128 3.5622 6.92858 3.37876 6.69692 3.35287ZM3.6782 2.23483C4.71466 2.11899 5.78541 2.11899 6.82187 2.23483C7.565 2.31788 8.16684 2.90287 8.25472 3.65431C8.37873 4.71459 8.37873 5.78572 8.25472 6.846C8.16684 7.59744 7.565 8.18243 6.82187 8.26548C5.78541 8.38132 4.71466 8.38132 3.6782 8.26548C2.93507 8.18243 2.33324 7.59744 2.24535 6.846C2.12134 5.78572 2.12134 4.71459 2.24535 3.65431C2.33324 2.90288 2.93507 2.31788 3.6782 2.23483Z" fill="white"/>
<path fill-rule="evenodd" clip-rule="evenodd" d="M6.69692 10.8529C5.7435 10.7463 4.75657 10.7463 3.80316 10.8529C3.57149 10.8788 3.38879 11.0622 3.36273 11.285C3.24888 12.2585 3.24888 13.2419 3.36273 14.2153C3.38879 14.4381 3.57149 14.6216 3.80316 14.6474C4.75657 14.754 5.7435 14.754 6.69691 14.6474C6.92858 14.6216 7.11128 14.4381 7.13734 14.2153C7.25119 13.2419 7.25119 12.2585 7.13734 11.285C7.11128 11.0622 6.92858 10.8788 6.69692 10.8529ZM3.6782 9.73483C4.71466 9.61899 5.78541 9.61899 6.82187 9.73483C7.565 9.81788 8.16684 10.4029 8.25472 11.1543C8.37873 12.2146 8.37873 13.2857 8.25472 14.346C8.16684 15.0974 7.565 15.6824 6.82187 15.7655C5.78541 15.8813 4.71466 15.8813 3.6782 15.7655C2.93507 15.6824 2.33324 15.0974 2.24535 14.346C2.12134 13.2857 2.12134 12.2146 2.24535 11.1543C2.33324 10.4029 2.93507 9.81788 3.6782 9.73483Z" fill="white"/>
<path fill-rule="evenodd" clip-rule="evenodd" d="M14.1969 3.35287C13.2435 3.24631 12.2566 3.24631 11.3032 3.35287C11.0715 3.37876 10.8888 3.5622 10.8627 3.785C10.7489 4.75845 10.7489 5.74186 10.8627 6.71532C10.8888 6.93811 11.0715 7.12155 11.3032 7.14744C12.2566 7.254 13.2435 7.254 14.1969 7.14744C14.4286 7.12155 14.6113 6.93811 14.6373 6.71532C14.7512 5.74186 14.7512 4.75845 14.6373 3.785C14.6113 3.5622 14.4286 3.37876 14.1969 3.35287ZM11.1782 2.23483C12.2147 2.11899 13.2854 2.11899 14.3219 2.23483C15.065 2.31788 15.6668 2.90287 15.7547 3.65431C15.8787 4.71459 15.8787 5.78572 15.7547 6.846C15.6668 7.59744 15.065 8.18243 14.3219 8.26548C13.2854 8.38132 12.2147 8.38132 11.1782 8.26548C10.4351 8.18243 9.83324 7.59744 9.74535 6.846C9.62134 5.78572 9.62134 4.71459 9.74535 3.65431C9.83324 2.90288 10.4351 2.31788 11.1782 2.23483Z" fill="white"/>
<path fill-rule="evenodd" clip-rule="evenodd" d="M14.1969 10.8529C13.2435 10.7463 12.2566 10.7463 11.3032 10.8529C11.0715 10.8788 10.8888 11.0622 10.8627 11.285C10.7489 12.2585 10.7489 13.2419 10.8627 14.2153C10.8888 14.4381 11.0715 14.6216 11.3032 14.6474C12.2566 14.754 13.2435 14.754 14.1969 14.6474C14.4286 14.6216 14.6113 14.4381 14.6373 14.2153C14.7512 13.2419 14.7512 12.2585 14.6373 11.285C14.6113 11.0622 14.4286 10.8788 14.1969 10.8529ZM11.1782 9.73483C12.2147 9.61899 13.2854 9.61899 14.3219 9.73483C15.065 9.81788 15.6668 10.4029 15.7547 11.1543C15.8787 12.2146 15.8787 13.2857 15.7547 14.346C15.6668 15.0974 15.065 15.6824 14.3219 15.7655C13.2854 15.8813 12.2147 15.8813 11.1782 15.7655C10.4351 15.6824 9.83324 15.0974 9.74535 14.346C9.62134 13.2857 9.62134 12.2146 9.74535 11.1543C9.83324 10.4029 10.4351 9.81788 11.1782 9.73483Z" fill="white"/>
</svg>
