<svg width="18" height="18" viewBox="0 0 18 18" fill="none" xmlns="http://www.w3.org/2000/svg">
<path fill-rule="evenodd" clip-rule="evenodd" d="M11.2724 7.85227C11.492 8.07194 11.492 8.42809 11.2724 8.64776L8.64738 11.2728C8.42771 11.4924 8.07155 11.4924 7.85188 11.2728L6.35188 9.77276C6.13221 9.55309 6.13221 9.19694 6.35188 8.97727C6.57155 8.7576 6.92771 8.7576 7.14738 8.97727L8.24963 10.0795L10.4769 7.85227C10.6966 7.6326 11.0527 7.6326 11.2724 7.85227Z" fill="white"/>
<path fill-rule="evenodd" clip-rule="evenodd" d="M9.69855 4.65625C8.53582 4.65625 7.53006 5.333 7.05571 6.3166C6.92818 6.58106 6.61869 6.70295 6.34507 6.59648C5.97702 6.45326 5.57618 6.37441 5.15558 6.37441C3.34322 6.37441 1.87402 7.84361 1.87402 9.65596C1.87402 11.4683 3.34322 12.9375 5.15558 12.9375H13.8921C15.1254 12.9375 16.1252 11.9377 16.1252 10.7043C16.1252 9.47099 15.1254 8.47117 13.8921 8.47117C13.6914 8.47117 13.4977 8.4975 13.3139 8.54658C13.1338 8.5947 12.9415 8.55041 12.8005 8.42833C12.6596 8.30625 12.5883 8.12225 12.6102 7.93707C12.6237 7.82292 12.6306 7.70657 12.6306 7.58834C12.6306 5.96899 11.3179 4.65625 9.69855 4.65625ZM6.28464 5.39553C7.00594 4.27481 8.26498 3.53125 9.69855 3.53125C11.8589 3.53125 13.6249 5.21983 13.7487 7.34918C13.7963 7.34718 13.8441 7.34617 13.8921 7.34617C15.7467 7.34617 17.2502 8.84967 17.2502 10.7043C17.2502 12.559 15.7467 14.0625 13.8921 14.0625H5.15558C2.7219 14.0625 0.749023 12.0896 0.749023 9.65596C0.749023 7.22229 2.7219 5.24941 5.15558 5.24941C5.54532 5.24941 5.92386 5.30014 6.28464 5.39553Z" fill="white"/>
</svg>
