<svg width="18" height="18" viewBox="0 0 18 18" fill="none" xmlns="http://www.w3.org/2000/svg">
<path fill-rule="evenodd" clip-rule="evenodd" d="M8.99995 2.30935L7.34035 4.02648C7.16371 4.20924 6.92042 4.31245 6.66624 4.31245H4.31245V6.66624C4.31245 6.92042 4.20924 7.16371 4.02648 7.34035L2.30935 8.99995L4.02648 10.6596C4.20924 10.8362 4.31245 11.0795 4.31245 11.3337V13.6875H6.66624C6.92042 13.6875 7.16371 13.7907 7.34035 13.9734L8.99995 15.6906L10.6595 13.9734C10.8362 13.7907 11.0795 13.6875 11.3337 13.6875H13.6875V11.3337C13.6875 11.0795 13.7907 10.8362 13.9734 10.6595L15.6906 8.99995L13.9734 7.34036C13.7907 7.16371 13.6875 6.92043 13.6875 6.66625V4.31245H11.3337C11.0795 4.31245 10.8362 4.20924 10.6595 4.02648L8.99995 2.30935ZM8.32584 1.38803C8.69437 1.00673 9.30553 1.00673 9.67406 1.38803L11.4132 3.18745H13.875C14.3927 3.18745 14.8125 3.60718 14.8125 4.12495V6.5867L16.6119 8.32584C16.9932 8.69437 16.9932 9.30553 16.6119 9.67406L14.8125 11.4132V13.875C14.8125 14.3927 14.3927 14.8125 13.875 14.8125H11.4132L9.67406 16.6119C9.30553 16.9932 8.69437 16.9932 8.32584 16.6119L6.5867 14.8125H4.12495C3.60718 14.8125 3.18745 14.3927 3.18745 13.875V11.4132L1.38803 9.67406C1.00673 9.30553 1.00673 8.69437 1.38803 8.32584L3.18745 6.5867V4.12495C3.18745 3.60718 3.60718 3.18745 4.12495 3.18745H6.5867L8.32584 1.38803Z" fill="white"/>
<path fill-rule="evenodd" clip-rule="evenodd" d="M5.43745 8.99995C5.43745 7.03244 7.03244 5.43745 8.99995 5.43745C10.9675 5.43745 12.5625 7.03244 12.5625 8.99995C12.5625 10.9675 10.9675 12.5625 8.99995 12.5625C7.03244 12.5625 5.43745 10.9675 5.43745 8.99995ZM8.99995 6.56245C7.65376 6.56245 6.56245 7.65376 6.56245 8.99995C6.56245 10.3461 7.65376 11.4375 8.99995 11.4375C10.3461 11.4375 11.4375 10.3461 11.4375 8.99995C11.4375 7.65376 10.3461 6.56245 8.99995 6.56245Z" fill="white"/>
</svg>
