<svg width="18" height="18" viewBox="0 0 18 18" fill="none" xmlns="http://www.w3.org/2000/svg">
<path d="M6.66758 11.5521C6.25643 11.6024 5.96389 11.9764 6.01417 12.3876C6.06445 12.7987 6.43851 13.0913 6.84967 13.041C7.26082 12.9907 7.55336 12.6166 7.50307 12.2055C7.45279 11.7943 7.07873 11.5018 6.66758 11.5521Z" fill="white"/>
<path d="M4.16109 9.59185C4.11081 9.1807 4.40335 8.80664 4.8145 8.75635C5.22566 8.70607 5.59972 8.99861 5.65 9.40976C5.70028 9.82091 5.40774 10.195 4.99659 10.2453C4.58544 10.2955 4.21138 10.003 4.16109 9.59185Z" fill="white"/>
<path d="M5.93923 5.59646C5.52808 5.64674 5.23554 6.0208 5.28582 6.43195C5.3361 6.8431 5.71017 7.13565 6.12132 7.08536C6.53247 7.03508 6.82501 6.66102 6.77473 6.24987C6.72445 5.83872 6.35038 5.54618 5.93923 5.59646Z" fill="white"/>
<path d="M11.773 6.96088C11.7227 6.54973 12.0153 6.17566 12.4264 6.12538C12.8376 6.0751 13.2116 6.36764 13.2619 6.77879C13.3122 7.18994 13.0196 7.564 12.6085 7.61429C12.1973 7.66457 11.8233 7.37203 11.773 6.96088Z" fill="white"/>
<path d="M8.99448 8.15902C8.58333 8.2093 8.29079 8.58336 8.34107 8.99452C8.39135 9.40567 8.76542 9.69821 9.17657 9.64793C9.58772 9.59764 9.88026 9.22358 9.82998 8.81243C9.7797 8.40128 9.40563 8.10874 8.99448 8.15902Z" fill="white"/>
<path d="M8.54482 5.27779C8.49454 4.86664 8.78708 4.49258 9.19823 4.4423C9.60938 4.39202 9.98345 4.68456 10.0337 5.09571C10.084 5.50686 9.79147 5.88092 9.38032 5.9312C8.96917 5.98149 8.5951 5.68894 8.54482 5.27779Z" fill="white"/>
<path fill-rule="evenodd" clip-rule="evenodd" d="M1.68969 8.82283C1.78756 4.78543 5.13986 1.59182 9.17726 1.68969C13.2147 1.78756 16.4083 5.13986 16.3104 9.17726C16.3042 9.43296 16.2182 9.66655 16.0599 9.85888C15.9085 10.0428 15.7124 10.1635 15.5189 10.2442C15.1424 10.4014 14.6705 10.4507 14.2034 10.4539C12.1869 10.4675 10.4354 12.202 10.321 14.2476C10.2943 14.7248 10.2129 15.2103 10.0075 15.5917C9.90114 15.7892 9.75176 15.9771 9.54253 16.1131C9.32832 16.2524 9.08268 16.3167 8.82283 16.3104C4.78543 16.2125 1.59182 12.8602 1.68969 8.82283ZM9.14999 2.81436C5.73373 2.73155 2.89717 5.43384 2.81436 8.85009C2.73155 12.2664 5.43384 15.1029 8.85009 15.1857C8.90117 15.187 8.92006 15.176 8.92932 15.1699C8.94357 15.1607 8.9766 15.1333 9.01696 15.0583C9.10497 14.8949 9.1741 14.6068 9.19772 14.1847C9.34355 11.5786 11.5534 9.34676 14.1958 9.32889C14.6174 9.32603 14.9132 9.27799 15.0855 9.20606C15.1464 9.18066 15.1748 9.15917 15.1857 9.14942C15.2682 5.73341 12.5661 2.89717 9.14999 2.81436Z" fill="white"/>
</svg>
