<svg width="18" height="18" viewBox="0 0 18 18" fill="none" xmlns="http://www.w3.org/2000/svg">
<path d="M5.14846 5.16177C6.1336 4.17324 7.49494 3.5625 9 3.5625C12.003 3.5625 14.4375 5.99695 14.4375 9C14.4375 12.003 12.003 14.4375 9 14.4375C5.99695 14.4375 3.5625 12.003 3.5625 9C3.5625 8.68934 3.31066 8.4375 3 8.4375C2.68934 8.4375 2.4375 8.68934 2.4375 9C2.4375 12.6244 5.37563 15.5625 9 15.5625C12.6244 15.5625 15.5625 12.6244 15.5625 9C15.5625 5.37563 12.6244 2.4375 9 2.4375C7.18388 2.4375 5.53918 3.17597 4.3516 4.36764C4.33251 4.38679 4.31509 4.40698 4.29933 4.42801L3.35616 3.48483C3.25327 3.38195 3.10015 3.34786 2.96333 3.3974C2.82652 3.44693 2.73071 3.57114 2.71753 3.71605L2.45237 6.63286C2.44229 6.7437 2.48197 6.85328 2.56066 6.93198C2.63936 7.01068 2.74894 7.05035 2.85978 7.04027L5.77659 6.77511C5.9215 6.76194 6.04571 6.66613 6.09525 6.52931C6.14478 6.39249 6.1107 6.23937 6.00781 6.13648L5.08672 5.2154C5.10826 5.19927 5.1289 5.18139 5.14846 5.16177Z" fill="white"/>
<path d="M9.5625 5.25C9.5625 4.93934 9.31066 4.6875 9 4.6875C8.68934 4.6875 8.4375 4.93934 8.4375 5.25V9C8.4375 9.19394 8.53741 9.37421 8.70188 9.477L10.9519 10.8832C11.2153 11.0479 11.5623 10.9678 11.727 10.7044C11.8916 10.4409 11.8116 10.0939 11.5481 9.92925L9.5625 8.68824V5.25Z" fill="white"/>
</svg>
