<svg width="18" height="18" viewBox="0 0 18 18" fill="none" xmlns="http://www.w3.org/2000/svg">
<path fill-rule="evenodd" clip-rule="evenodd" d="M14.8125 9C14.8125 8.68934 14.5607 8.4375 14.25 8.4375H3.75C3.43934 8.4375 3.1875 8.68934 3.1875 9C3.1875 9.31066 3.43934 9.5625 3.75 9.5625H14.25C14.5607 9.5625 14.8125 9.31066 14.8125 9Z" fill="white"/>
<path fill-rule="evenodd" clip-rule="evenodd" d="M14.8125 5.25C14.8125 4.93934 14.5607 4.6875 14.25 4.6875H3.75C3.43934 4.6875 3.1875 4.93934 3.1875 5.25C3.1875 5.56066 3.43934 5.8125 3.75 5.8125H14.25C14.5607 5.8125 14.8125 5.56066 14.8125 5.25Z" fill="white"/>
<path fill-rule="evenodd" clip-rule="evenodd" d="M14.8125 12.75C14.8125 12.4393 14.5607 12.1875 14.25 12.1875H3.75C3.43934 12.1875 3.1875 12.4393 3.1875 12.75C3.1875 13.0607 3.43934 13.3125 3.75 13.3125H14.25C14.5607 13.3125 14.8125 13.0607 14.8125 12.75Z" fill="white"/>
</svg>
