<svg width="18" height="18" viewBox="0 0 18 18" fill="none" xmlns="http://www.w3.org/2000/svg">
<path d="M7.5 1.6875C7.18934 1.6875 6.9375 1.93934 6.9375 2.25V2.8125H3.75C3.43934 2.8125 3.1875 3.06434 3.1875 3.375C3.1875 3.68566 3.43934 3.9375 3.75 3.9375H14.25C14.5607 3.9375 14.8125 3.68566 14.8125 3.375C14.8125 3.06434 14.5607 2.8125 14.25 2.8125H11.0625V2.25C11.0625 1.93934 10.8107 1.6875 10.5 1.6875H7.5Z" fill="white"/>
<path d="M9.7955 11.25L10.8977 12.3522C11.1174 12.5719 11.1174 12.9281 10.8977 13.1477C10.6781 13.3674 10.3219 13.3674 10.1023 13.1477L9.00001 12.0455L7.89775 13.1477C7.67808 13.3674 7.32193 13.3674 7.10226 13.1477C6.88259 12.9281 6.88259 12.5719 7.10226 12.3523L8.20451 11.25L7.10225 10.1477C6.88258 9.92807 6.88258 9.57192 7.10225 9.35225C7.32192 9.13258 7.67808 9.13258 7.89775 9.35225L9.00001 10.4545L10.1023 9.35225C10.3219 9.13258 10.6781 9.13258 10.8978 9.35225C11.1174 9.57192 11.1174 9.92808 10.8978 10.1477L9.7955 11.25Z" fill="white"/>
<path fill-rule="evenodd" clip-rule="evenodd" d="M4.49357 5.93788C4.52522 5.65301 4.76601 5.4375 5.05263 5.4375H12.9474C13.234 5.4375 13.4748 5.65301 13.5064 5.93788L13.6565 7.28889C13.9286 9.73788 13.9286 12.2095 13.6565 14.6585L13.6418 14.7915C13.5337 15.7636 12.7803 16.5387 11.8117 16.6743C9.94632 16.9355 8.05367 16.9355 6.18831 16.6743C5.21966 16.5387 4.46625 15.7636 4.35823 14.7915L4.34346 14.6585C4.07135 12.2095 4.07135 9.73788 4.34346 7.28889L4.49357 5.93788ZM5.55609 6.5625L5.46158 7.41313C5.19864 9.77955 5.19864 12.1678 5.46158 14.5342L5.47635 14.6672C5.52758 15.1283 5.88489 15.4959 6.34429 15.5602C8.10617 15.8069 9.89382 15.8069 11.6557 15.5602C12.1151 15.4959 12.4724 15.1283 12.5236 14.6672L12.5384 14.5342C12.8014 12.1678 12.8014 9.77955 12.5384 7.41313L12.4439 6.5625H5.55609Z" fill="white"/>
</svg>
