<svg width="18" height="18" viewBox="0 0 18 18" fill="none" xmlns="http://www.w3.org/2000/svg">
<path fill-rule="evenodd" clip-rule="evenodd" d="M14.6251 5.25C14.6251 5.56066 14.3733 5.8125 14.0626 5.8125H3.5626C3.25194 5.8125 3.0001 5.56066 3.0001 5.25C3.0001 4.93934 3.25194 4.6875 3.5626 4.6875H14.0626C14.3733 4.6875 14.6251 4.93934 14.6251 5.25Z" fill="white"/>
<path d="M3.5626 9.5625H10.5626C10.8733 9.5625 11.1251 9.31067 11.1251 9.00001C11.1251 8.68935 10.8733 8.4375 10.5626 8.4375H3.5626C3.25194 8.4375 3 8.68934 3 9C3 9.31066 3.25194 9.5625 3.5626 9.5625Z" fill="white"/>
<path d="M3.5626 13.3125H7.0626C7.37326 13.3125 7.6251 13.0607 7.6251 12.75C7.6251 12.4393 7.37326 12.1875 7.0626 12.1875H3.5626C3.25194 12.1875 3.00016 12.4393 3.00016 12.75C3.00016 13.0607 3.25194 13.3125 3.5626 13.3125Z" fill="white"/>
</svg>
