<svg width="18" height="18" viewBox="0 0 18 18" fill="none" xmlns="http://www.w3.org/2000/svg">
<path fill-rule="evenodd" clip-rule="evenodd" d="M7.78925 6.26756C7.61548 6.1633 7.39905 6.16057 7.2227 6.26041C7.04636 6.36026 6.93735 6.54725 6.93735 6.7499V11.2499C6.93735 11.4526 7.04636 11.6395 7.2227 11.7394C7.39905 11.8392 7.61548 11.8365 7.78925 11.7322L11.5393 9.48224C11.7087 9.38058 11.8123 9.19749 11.8123 8.9999C11.8123 8.80232 11.7087 8.61922 11.5393 8.51756L7.78925 6.26756ZM10.1565 8.9999L8.06235 10.2564V7.74338L10.1565 8.9999Z" fill="white"/>
<path fill-rule="evenodd" clip-rule="evenodd" d="M12.7729 3.48086C10.2614 3.28437 7.73837 3.28437 5.22689 3.48086L3.54636 3.61234C2.52443 3.69229 1.68842 4.45819 1.51949 5.46922C1.12892 7.8068 1.12892 10.193 1.51949 12.5306C1.68842 13.5416 2.52443 14.3075 3.54636 14.3875L5.22689 14.5189C7.73837 14.7154 10.2614 14.7154 12.7729 14.5189L14.4534 14.3875C15.4753 14.3075 16.3113 13.5416 16.4802 12.5306C16.8708 10.193 16.8708 7.8068 16.4802 5.46922C16.3113 4.45819 15.4753 3.69229 14.4534 3.61234L12.7729 3.48086ZM5.31463 4.60243C7.76771 4.41052 10.232 4.41052 12.6851 4.60243L14.3656 4.73391C14.8723 4.77355 15.2869 5.15332 15.3706 5.65462C15.7407 7.86946 15.7407 10.1303 15.3706 12.3452C15.2869 12.8465 14.8723 13.2262 14.3656 13.2659L12.6851 13.3974C10.232 13.5893 7.76771 13.5893 5.31463 13.3974L3.63411 13.2659C3.1274 13.2262 2.71287 12.8465 2.62911 12.3452C2.25905 10.1303 2.25905 7.86946 2.62911 5.65462C2.71287 5.15332 3.1274 4.77355 3.63411 4.73391L5.31463 4.60243Z" fill="white"/>
</svg>
