<svg width="18" height="18" viewBox="0 0 18 18" fill="none" xmlns="http://www.w3.org/2000/svg">
<path fill-rule="evenodd" clip-rule="evenodd" d="M9.00019 2.81201L14.4554 2.96625C15.4193 2.99351 16.2166 3.72525 16.3262 4.6833C16.5688 6.80401 16.5688 8.94547 16.3262 11.0662C16.2166 12.0242 15.4193 12.756 14.4554 12.7832L10.3127 12.9004V14.4372H12.7502C13.0609 14.4372 13.3127 14.6891 13.3127 14.9997C13.3127 15.3104 13.0609 15.5622 12.7502 15.5622H5.2502C4.93954 15.5622 4.6877 15.3104 4.6877 14.9997C4.6877 14.6891 4.93954 14.4372 5.2502 14.4372H7.6877V12.9004L3.54497 12.7832C2.58105 12.756 1.78379 12.0242 1.67417 11.0662C1.43153 8.94547 1.43153 6.80401 1.67417 4.68329C1.78379 3.72525 2.58105 2.99351 3.54497 2.96625L9.00019 2.81201ZM9.00019 3.93746L3.57676 4.0908C3.17236 4.10224 2.83787 4.40923 2.79188 4.81118C2.55896 6.84691 2.55896 8.90256 2.79188 10.9383C2.83787 11.3402 3.17236 11.6472 3.57676 11.6587L9.00019 11.812L14.4236 11.6587C14.828 11.6472 15.1625 11.3402 15.2085 10.9383C15.4414 8.90256 15.4414 6.84691 15.2085 4.81118C15.1625 4.40923 14.828 4.10224 14.4236 4.0908L9.00019 3.93746Z" fill="white"/>
</svg>
