<svg width="18" height="18" viewBox="0 0 18 18" fill="none" xmlns="http://www.w3.org/2000/svg">
<path fill-rule="evenodd" clip-rule="evenodd" d="M14.3878 3.68437L8.99996 3.5625L3.61217 3.68437C2.6138 3.70695 1.76848 4.42741 1.58796 5.40959C1.15167 7.78341 1.15167 10.2169 1.58796 12.5907C1.76848 13.5729 2.6138 14.2933 3.61217 14.3159L8.99996 14.4378L14.3878 14.3159C15.3861 14.2933 16.2315 13.5729 16.412 12.5907C16.8483 10.2169 16.8483 7.78341 16.412 5.40959C16.2315 4.42741 15.3861 3.70695 14.3878 3.68437ZM3.63761 4.80908L8.99996 4.68779L14.3623 4.80908C14.8275 4.8196 15.2214 5.1553 15.3055 5.61295C15.4205 6.23844 15.5033 6.86832 15.5541 7.50014H2.44588C2.49662 6.86832 2.57947 6.23844 2.69443 5.61295C2.77854 5.1553 3.17242 4.8196 3.63761 4.80908ZM2.38574 9.00014C2.38574 10.1339 2.48864 11.2677 2.69443 12.3873C2.77854 12.845 3.17242 13.1807 3.63761 13.1912L8.99996 13.3125L14.3623 13.1912C14.8275 13.1807 15.2214 12.845 15.3055 12.3873C15.5113 11.2677 15.6142 10.1339 15.6142 9.00014H2.38574Z" fill="white"/>
</svg>
