<svg width="18" height="18" viewBox="0 0 18 18" fill="none" xmlns="http://www.w3.org/2000/svg">
<path d="M5.61281 3.94447C4.75449 4.0404 4.06745 4.71783 3.96814 5.56692C3.70137 7.84778 3.70137 10.152 3.96814 12.4328C4.06745 13.2819 4.75449 13.9593 5.61281 14.0553C7.84543 14.3048 10.1552 14.3048 12.3878 14.0553C13.2461 13.9593 13.9331 13.2819 14.0324 12.4328C14.2241 10.794 14.2781 9.14306 14.1943 7.49742C14.1921 7.45492 14.208 7.41347 14.2381 7.38338L15.0172 6.6043C15.1074 6.51412 15.2614 6.57051 15.271 6.69768C15.418 8.65137 15.3776 10.6156 15.1498 12.5635C14.9887 13.9412 13.8825 15.0202 12.5127 15.1733C10.1971 15.4321 7.80352 15.4321 5.48785 15.1733C4.11807 15.0202 3.0119 13.9412 2.85076 12.5635C2.57384 10.1958 2.57384 7.80392 2.85076 5.43623C3.0119 4.05851 4.11807 2.97953 5.48786 2.82643C7.80352 2.56762 10.1971 2.56762 12.5127 2.82643C12.9952 2.88035 13.4449 3.04912 13.8322 3.30535C13.9084 3.35577 13.9159 3.4629 13.8513 3.52751L13.2492 4.12967C13.1999 4.17893 13.1235 4.18721 13.0621 4.15431C12.8571 4.04444 12.6292 3.97145 12.3878 3.94447C10.1552 3.69494 7.84543 3.69494 5.61281 3.94447Z" fill="white"/>
<path d="M15.773 4.52262C15.9927 4.30295 15.9927 3.94679 15.773 3.72712C15.5534 3.50745 15.1972 3.50745 14.9775 3.72712L8.62528 10.0794L6.77303 8.22712C6.55336 8.00745 6.1972 8.00745 5.97753 8.22712C5.75786 8.44679 5.75786 8.80295 5.97753 9.02262L8.22753 11.2726C8.4472 11.4923 8.80336 11.4923 9.02303 11.2726L15.773 4.52262Z" fill="white"/>
</svg>
