<svg width="18" height="18" viewBox="0 0 18 18" fill="none" xmlns="http://www.w3.org/2000/svg">
<path d="M6.35207 6.35211C6.57174 6.13244 6.92789 6.13244 7.14756 6.35211L8.99982 8.20437L10.8521 6.35212C11.0717 6.13244 11.4279 6.13244 11.6476 6.35212C11.8672 6.57178 11.8672 6.92794 11.6476 7.14761L9.79532 8.99986L11.6476 10.8521C11.8672 11.0718 11.8672 11.4279 11.6476 11.6476C11.4279 11.8673 11.0717 11.8673 10.8521 11.6476L8.99982 9.79536L7.14757 11.6476C6.9279 11.8673 6.57174 11.8673 6.35208 11.6476C6.13241 11.4279 6.13241 11.0718 6.35208 10.8521L8.20433 8.99986L6.35207 7.1476C6.1324 6.92793 6.1324 6.57178 6.35207 6.35211Z" fill="white"/>
<path fill-rule="evenodd" clip-rule="evenodd" d="M5.48737 2.82643C7.80303 2.56762 10.1966 2.56762 12.5122 2.82643C13.882 2.97953 14.9882 4.05851 15.1493 5.43623C15.4263 7.80392 15.4263 10.1958 15.1493 12.5635C14.9882 13.9412 13.882 15.0202 12.5122 15.1733C10.1966 15.4321 7.80303 15.4321 5.48737 15.1733C4.11758 15.0202 3.01141 13.9412 2.85027 12.5635C2.57335 10.1958 2.57335 7.80392 2.85027 5.43623C3.01141 4.05851 4.11758 2.97953 5.48737 2.82643ZM12.3873 3.94447C10.1547 3.69494 7.84494 3.69494 5.61232 3.94447C4.754 4.0404 4.06696 4.71783 3.96765 5.56692C3.70089 7.84778 3.70089 10.152 3.96765 12.4328C4.06696 13.2819 4.754 13.9593 5.61232 14.0553C7.84494 14.3048 10.1547 14.3048 12.3873 14.0553C13.2456 13.9593 13.9326 13.2819 14.032 12.4328C14.2987 10.152 14.2987 7.84778 14.032 5.56692C13.9326 4.71783 13.2456 4.0404 12.3873 3.94447Z" fill="white"/>
</svg>
