<svg width="18" height="18" viewBox="0 0 18 18" fill="none" xmlns="http://www.w3.org/2000/svg">
<path d="M7.87498 12.0001C7.87498 11.3788 8.37866 10.8751 8.99998 10.8751C9.62131 10.8751 10.125 11.3788 10.125 12.0001C10.125 12.6214 9.62131 13.1251 8.99998 13.1251C8.37866 13.1251 7.87498 12.6214 7.87498 12.0001Z" fill="white"/>
<path fill-rule="evenodd" clip-rule="evenodd" d="M5.71622 7.94794L5.47964 5.81871C5.44931 5.54572 5.44931 5.27022 5.47964 4.99724L5.49672 4.84356C5.67783 3.21352 6.95928 1.92378 8.58812 1.73215C8.86174 1.69996 9.13819 1.69996 9.41181 1.73215C11.0406 1.92378 12.3221 3.21352 12.5032 4.84357L12.5203 4.99724C12.5506 5.27022 12.5506 5.54572 12.5203 5.81871L12.2837 7.94793L12.7987 7.98904C13.6107 8.05387 14.2738 8.6643 14.4054 9.46822C14.68 11.145 14.68 12.8552 14.4054 14.5319C14.2738 15.3359 13.6107 15.9463 12.7987 16.0111L11.6766 16.1007C9.89503 16.2429 8.10498 16.2429 6.32345 16.1007L5.20135 16.0111C4.3893 15.9463 3.72622 15.3359 3.59459 14.5319C3.32003 12.8552 3.32003 11.145 3.59459 9.46822C3.72622 8.6643 4.3893 8.05387 5.20135 7.98904L5.71622 7.94794ZM8.71957 2.84945C8.90586 2.82753 9.09407 2.82753 9.28036 2.84945C10.3893 2.97991 11.2618 3.85801 11.3851 4.9678L11.4022 5.12147C11.4233 5.31189 11.4233 5.50406 11.4022 5.69447L11.1613 7.86231C9.7219 7.76962 8.27803 7.76963 6.83863 7.86232L6.59776 5.69447C6.5766 5.50406 6.5766 5.31189 6.59776 5.12147L6.61484 4.9678C6.73815 3.85801 7.6106 2.97991 8.71957 2.84945ZM11.587 9.0209C9.86509 8.88343 8.13492 8.88343 6.41297 9.0209L5.29087 9.11048C4.99468 9.13412 4.75282 9.35678 4.7048 9.65001C4.44996 11.2064 4.44996 12.7938 4.7048 14.3501C4.75282 14.6434 4.99468 14.866 5.29087 14.8897L6.41297 14.9793C8.13492 15.1167 9.86509 15.1167 11.587 14.9793L12.7091 14.8897C13.0053 14.866 13.2472 14.6434 13.2952 14.3501C13.55 12.7938 13.55 11.2064 13.2952 9.65001C13.2472 9.35678 13.0053 9.13412 12.7091 9.11048L11.587 9.0209Z" fill="white"/>
</svg>
