<svg width="18" height="18" viewBox="0 0 18 18" fill="none" xmlns="http://www.w3.org/2000/svg">
<path d="M9 3.9375C9.31066 3.9375 9.5625 4.18934 9.5625 4.5C9.5625 4.81066 9.31066 5.0625 9 5.0625C8.68934 5.0625 8.4375 4.81066 8.4375 4.5C8.4375 4.18934 8.68934 3.9375 9 3.9375ZM9 8.4375C9.31066 8.4375 9.5625 8.68934 9.5625 9C9.5625 9.31066 9.31066 9.5625 9 9.5625C8.68934 9.5625 8.4375 9.31066 8.4375 9C8.4375 8.68934 8.68934 8.4375 9 8.4375ZM9 12.9375C9.31066 12.9375 9.5625 13.1893 9.5625 13.5C9.5625 13.8107 9.31066 14.0625 9 14.0625C8.68934 14.0625 8.4375 13.8107 8.4375 13.5C8.4375 13.1893 8.68934 12.9375 9 12.9375Z" fill="white" stroke="white" stroke-width="1.125"/>
</svg>
