<svg width="18" height="18" viewBox="0 0 18 18" fill="none" xmlns="http://www.w3.org/2000/svg">
<path d="M7.87501 12.0002C7.87501 11.3789 8.37868 10.8752 9.00001 10.8752C9.62133 10.8752 10.125 11.3789 10.125 12.0002C10.125 12.6215 9.62133 13.1252 9.00001 13.1252C8.37868 13.1252 7.87501 12.6215 7.87501 12.0002Z" fill="white"/>
<path fill-rule="evenodd" clip-rule="evenodd" d="M7.35787 3.00394C7.53214 2.93456 7.71394 2.88584 7.89956 2.8588C9.00451 2.6978 10.0745 3.32017 10.4808 4.36023L10.5371 4.50424C10.6068 4.68269 10.6566 4.86832 10.6854 5.05772L10.8479 6.12445L11.9601 5.95506L11.7976 4.88833C11.7562 4.6168 11.6849 4.35068 11.585 4.09485L11.5287 3.95083C10.9319 2.42321 9.36028 1.50908 7.73735 1.74555C7.46472 1.78528 7.19769 1.85683 6.94173 1.95874C5.41799 2.56541 4.51401 4.14287 4.76095 5.76425L4.78423 5.9171C4.82559 6.18864 4.89689 6.45475 4.99685 6.71058L5.48745 7.96633L5.20135 7.98917C4.3893 8.054 3.72622 8.66442 3.59459 9.46835C3.32003 11.1451 3.32003 12.8553 3.59459 14.5321C3.72622 15.336 4.3893 15.9464 5.20135 16.0112L6.32345 16.1008C8.10498 16.243 9.89503 16.243 11.6766 16.1008L12.7987 16.0112C13.6107 15.9464 14.2738 15.336 14.4054 14.5321C14.68 12.8553 14.68 11.1451 14.4054 9.46835C14.2738 8.66442 13.6107 8.054 12.7987 7.98917L11.6766 7.89959C10.007 7.7663 8.32991 7.75793 6.65938 7.87446L6.04471 6.30119C5.97499 6.12274 5.92525 5.93712 5.89641 5.74771L5.87313 5.59486C5.705 4.49097 6.32046 3.41698 7.35787 3.00394ZM11.587 9.02102C9.86509 8.88355 8.13492 8.88355 6.41297 9.02102L5.29087 9.1106C4.99468 9.13425 4.75282 9.3569 4.7048 9.65014C4.44996 11.2065 4.44996 12.7939 4.7048 14.3503C4.75282 14.6435 4.99468 14.8662 5.29087 14.8898L6.41297 14.9794C8.13492 15.1169 9.86509 15.1169 11.587 14.9794L12.7091 14.8898C13.0053 14.8662 13.2472 14.6435 13.2952 14.3503C13.55 12.7939 13.55 11.2065 13.2952 9.65014C13.2472 9.3569 13.0053 9.13425 12.7091 9.1106L11.587 9.02102Z" fill="white"/>
</svg>
