<svg width="18" height="18" viewBox="0 0 18 18" fill="none" xmlns="http://www.w3.org/2000/svg">
<path d="M4.39189 5.12983C4.21758 5.03597 4.00674 5.04066 3.83677 5.14218C3.6668 5.24371 3.56271 5.42711 3.56271 5.6251V12.7501C3.56271 13.0608 3.81455 13.3126 4.12521 13.3126C4.43587 13.3126 4.68771 13.0608 4.68771 12.7501V6.56685L8.73353 8.74536C8.90002 8.83501 9.10041 8.83501 9.2669 8.74536L13.3127 6.56685V12.7501C13.3127 13.0608 13.5646 13.3126 13.8752 13.3126C14.1859 13.3126 14.4377 13.0608 14.4377 12.7501V5.6251C14.4377 5.42711 14.3336 5.24371 14.1637 5.14218C13.9937 5.04066 13.7829 5.03597 13.6085 5.12983L9.00021 7.61124L4.39189 5.12983Z" fill="white"/>
<path fill-rule="evenodd" clip-rule="evenodd" d="M12.9832 2.79148C10.3332 2.55453 7.66729 2.55453 5.01728 2.79148L3.87928 2.89323C2.65857 3.00237 1.67226 3.93494 1.49497 5.14763C1.12147 7.70236 1.12147 10.2978 1.49497 12.8526C1.67226 14.0653 2.65857 14.9978 3.87928 15.107L5.01728 15.2087C7.66729 15.4457 10.3332 15.4457 12.9832 15.2087L14.1212 15.107C15.3419 14.9978 16.3282 14.0653 16.5055 12.8526C16.879 10.2978 16.879 7.70236 16.5055 5.14763C16.3282 3.93494 15.3419 3.00237 14.1212 2.89323L12.9832 2.79148ZM5.11747 3.91201C7.70082 3.68102 10.2996 3.68102 12.883 3.91201L14.021 4.01376C14.7231 4.07653 15.2903 4.6129 15.3923 5.31037C15.75 7.75718 15.75 10.243 15.3923 12.6898C15.2903 13.3873 14.7231 13.9237 14.021 13.9864L12.883 14.0882C10.2996 14.3192 7.70082 14.3192 5.11747 14.0882L3.97947 13.9864C3.27738 13.9237 2.7101 13.3873 2.60813 12.6898C2.25041 10.243 2.25041 7.75718 2.60813 5.31037C2.7101 4.6129 3.27738 4.07653 3.97947 4.01376L5.11747 3.91201Z" fill="white"/>
</svg>
