<svg width="18" height="18" viewBox="0 0 18 18" fill="none" xmlns="http://www.w3.org/2000/svg">
<path d="M4.90913 6.12242C4.74772 6.07983 4.61356 5.96775 4.54293 5.81648C4.47231 5.66522 4.47253 5.4904 4.54352 5.33931L5.78909 2.68852C5.88191 2.49098 6.08062 2.36497 6.29888 2.36523C6.51714 2.36551 6.71554 2.49201 6.80788 2.68978L7.35735 3.8667C7.37699 3.85898 7.39727 3.85229 7.41815 3.8467C10.6787 2.97304 14.0301 4.90798 14.9037 8.16849C15.7774 11.429 13.8424 14.7804 10.5819 15.6541C7.32141 16.5277 3.97001 14.5928 3.09636 11.3323C2.81854 10.2954 2.82479 9.24777 3.06811 8.27372C3.1434 7.97232 3.44877 7.78902 3.75017 7.86431C4.05157 7.93961 4.23486 8.24497 4.15957 8.54637C3.96135 9.33986 3.95589 10.1934 4.18302 11.0411C4.89586 13.7015 7.63039 15.2802 10.2907 14.5674C12.9511 13.8545 14.5299 11.12 13.817 8.45966C13.1159 5.8428 10.4586 4.27244 7.83986 4.90023L8.39426 6.0877C8.48659 6.28547 8.45618 6.5188 8.31625 6.6863C8.17631 6.8538 7.95212 6.92523 7.74108 6.86955L4.90913 6.12242Z" fill="white"/>
</svg>
