<svg width="18" height="18" viewBox="0 0 18 18" fill="none" xmlns="http://www.w3.org/2000/svg">
<path fill-rule="evenodd" clip-rule="evenodd" d="M11.943 3.31387C9.99817 2.98782 8.00158 2.98782 6.05674 3.31387C5.69074 3.37523 5.40005 3.65643 5.32709 4.01863C4.66328 7.31411 4.62706 10.7052 5.22033 14.0142L5.34299 14.6983L8.09589 12.083C8.60247 11.6018 9.39728 11.6018 9.90386 12.083L12.6568 14.6983L12.7794 14.0142C13.3727 10.7052 13.3365 7.31411 12.6727 4.01863C12.5997 3.65643 12.309 3.37523 11.943 3.31387ZM5.87073 2.20435C7.93872 1.85766 10.061 1.85766 12.129 2.20435C12.9534 2.34256 13.6101 2.97543 13.7755 3.79648C14.4673 7.23067 14.505 10.7645 13.8868 14.2127L13.7206 15.1392C13.5812 15.9168 12.6332 16.2276 12.0604 15.6835L9.12901 12.8987C9.05664 12.8299 8.9431 12.8299 8.87073 12.8987L5.93933 15.6835C5.36656 16.2276 4.41853 15.9168 4.2791 15.1392L4.11299 14.2127C3.49475 10.7645 3.53249 7.23067 4.22424 3.79648C4.38962 2.97543 5.04632 2.34256 5.87073 2.20435Z" fill="white"/>
</svg>
