<svg width="18" height="18" viewBox="0 0 18 18" fill="none" xmlns="http://www.w3.org/2000/svg">
<path fill-rule="evenodd" clip-rule="evenodd" d="M4.34108 10.5147C4.37391 10.5258 4.40705 10.5336 4.44015 10.5384C4.47625 10.6233 4.5229 10.733 4.57732 10.8614C4.71012 11.1746 4.88907 11.5982 5.07377 12.0401C5.45046 12.9414 5.83042 13.8705 5.91433 14.1364C6.01821 14.4651 6.12802 14.6886 6.2479 14.8412C6.30988 14.9201 6.38157 14.989 6.46545 15.0412C6.50767 15.0674 6.55228 15.089 6.59884 15.105C6.60089 15.1057 6.60294 15.1064 6.60499 15.1071C6.845 15.1977 7.06382 15.16 7.20082 15.1138C7.27413 15.0891 7.33344 15.0593 7.37548 15.0351C7.39691 15.0228 7.41502 15.0113 7.42946 15.0016L7.43287 14.9993L9.55254 13.6774L12.0009 15.5545C12.0371 15.5823 12.0764 15.6055 12.1182 15.6237C12.4123 15.7521 12.6972 15.7968 12.9651 15.7602C13.2326 15.7237 13.445 15.6113 13.603 15.4848C13.7579 15.361 13.8628 15.2223 13.9282 15.1192C13.9615 15.0665 13.9866 15.02 14.0043 14.9843C14.0131 14.9664 14.0203 14.951 14.0258 14.9386L14.0329 14.9222L14.0355 14.9158L14.0366 14.913L14.0372 14.9118L14.0376 14.9106C14.0505 14.8784 14.0604 14.8452 14.0671 14.8112L16.3023 3.54205C16.3094 3.50601 16.313 3.46936 16.313 3.43262C16.313 3.10261 16.1887 2.78881 15.8963 2.59839C15.6464 2.43564 15.368 2.42863 15.1921 2.44199C15.0023 2.45639 14.827 2.50324 14.7094 2.54068C14.6482 2.56016 14.5969 2.57896 14.5599 2.5933C14.5413 2.60051 14.526 2.60669 14.5147 2.61141L14.5062 2.615L1.97087 7.53241L1.96924 7.53299C1.96125 7.5359 1.951 7.53972 1.93881 7.54447C1.91454 7.55392 1.88202 7.56724 1.84403 7.58445C1.76994 7.61803 1.666 7.67051 1.55935 7.74355C1.38896 7.86023 0.997088 8.17981 1.06307 8.70728C1.11572 9.12809 1.404 9.38653 1.57964 9.5108C1.67609 9.57904 1.76771 9.62785 1.83444 9.65961C1.86539 9.67435 1.92967 9.70046 1.95755 9.71179L1.96459 9.71465L4.34108 10.5147ZM14.9448 3.6509L14.9431 3.65166C14.9369 3.65437 14.9306 3.65697 14.9242 3.65946L2.37373 8.58284C2.36717 8.58541 2.36057 8.58785 2.35393 8.59018L2.34694 8.59283C2.33891 8.59595 2.3254 8.60144 2.30843 8.60913C2.29881 8.61349 2.28877 8.61825 2.27853 8.62335C2.2926 8.63127 2.30606 8.63815 2.31802 8.64385C2.3295 8.64931 2.33826 8.65305 2.34305 8.65502L4.70002 9.44851C4.74316 9.46304 4.78338 9.48228 4.8203 9.50548L12.6029 4.94961L12.6101 4.9453C12.6158 4.94195 12.6233 4.93765 12.6322 4.9326C12.6499 4.92259 12.6742 4.90926 12.7032 4.89453C12.7572 4.86704 12.8436 4.82623 12.941 4.79614C13.0088 4.77519 13.2086 4.71617 13.4247 4.78548C13.558 4.82825 13.6961 4.92021 13.7859 5.07599C13.8305 5.15338 13.8543 5.23112 13.8658 5.30229C13.8964 5.4144 13.8916 5.5251 13.8676 5.62068C13.8161 5.82656 13.6714 5.98715 13.5398 6.10999C13.427 6.2153 11.968 7.62219 10.5286 9.01101C9.81084 9.7036 9.10037 10.3893 8.56934 10.902L8.22055 11.2387L12.6245 14.615C12.7255 14.6512 12.7852 14.6493 12.8128 14.6456C12.8458 14.6411 12.8727 14.6284 12.9002 14.6064C12.931 14.5818 12.9579 14.5485 12.978 14.5168L12.9788 14.5155L15.1467 3.58576C15.1145 3.5935 15.082 3.6027 15.0506 3.61268C15.0151 3.62399 14.9858 3.63475 14.9664 3.64228C14.9568 3.646 14.9499 3.64883 14.9461 3.65039L14.9448 3.6509ZM8.5989 12.9463L7.72029 12.2727L7.50739 13.627L8.5989 12.9463ZM6.91427 10.9361L7.788 10.0926C8.31907 9.57991 9.0296 8.89409 9.74747 8.20143L10.4768 7.49775L5.58682 10.3603L5.61306 10.4222C5.74634 10.7365 5.92608 11.162 6.11176 11.6063C6.25061 11.9385 6.3958 12.2883 6.52805 12.6122L6.74032 11.2619C6.76079 11.1317 6.82439 11.019 6.91427 10.9361Z" fill="white"/>
</svg>
