<svg width="18" height="18" viewBox="0 0 18 18" fill="none" xmlns="http://www.w3.org/2000/svg">
<path fill-rule="evenodd" clip-rule="evenodd" d="M13.4893 4.06797C10.5057 3.73451 7.49418 3.73451 4.51055 4.06797C4.30868 4.09053 4.21146 4.32727 4.33922 4.4852L6.97698 7.74586C7.9219 8.91392 8.43742 10.3708 8.43742 11.8733V14.0402L9.56242 14.8652V11.8733C9.56242 10.3708 10.0779 8.91392 11.0229 7.74586L13.6606 4.4852C13.7884 4.32727 13.6912 4.09053 13.4893 4.06797ZM4.38559 2.94993C7.45227 2.60718 10.5476 2.60718 13.6143 2.94993C14.6995 3.07122 15.222 4.34381 14.5353 5.19275L11.8975 8.45341C11.1146 9.42124 10.6874 10.6284 10.6874 11.8733V15.9752C10.6874 16.1872 10.5683 16.3812 10.3792 16.477C10.1901 16.5728 9.96321 16.5542 9.79228 16.4288L7.54228 14.7788C7.39779 14.6729 7.31242 14.5044 7.31242 14.3252V11.8733C7.31242 10.6284 6.88528 9.42124 6.10234 8.45342L3.46458 5.19275C2.77781 4.34381 3.3004 3.07122 4.38559 2.94993Z" fill="white"/>
</svg>
