<svg width="18" height="18" viewBox="0 0 18 18" fill="none" xmlns="http://www.w3.org/2000/svg">
<path fill-rule="evenodd" clip-rule="evenodd" d="M9 2.8125C6.39298 2.8125 4.3125 4.85045 4.3125 7.32445C4.3125 8.8279 4.9282 10.1245 6.02651 10.932C6.26857 11.11 6.47566 11.3754 6.55497 11.7122C6.62006 11.9885 6.69456 12.3253 6.76835 12.6822H11.2316C11.3054 12.3253 11.3799 11.9885 11.445 11.7122C11.5243 11.3754 11.7314 11.11 11.9735 10.932C13.0718 10.1245 13.6875 8.8279 13.6875 7.32445C13.6875 4.85045 11.607 2.8125 9 2.8125ZM11.0165 13.8072H6.98346C7.06627 14.2853 7.13123 14.7382 7.1509 15.0633C7.17161 15.4056 7.42745 15.7124 7.80466 15.7939L7.95164 15.8256C8.64197 15.9748 9.35803 15.9748 10.0484 15.8256L10.1953 15.7939C10.5726 15.7124 10.8284 15.4056 10.8491 15.0633C10.8688 14.7382 10.9337 14.2853 11.0165 13.8072ZM3.1875 7.32445C3.1875 4.19337 5.80803 1.6875 9 1.6875C12.192 1.6875 14.8125 4.19337 14.8125 7.32445C14.8125 9.14234 14.0598 10.7944 12.6399 11.8384C12.5751 11.886 12.5481 11.9361 12.5401 11.9701C12.4513 12.3471 12.3431 12.846 12.2445 13.3522C12.1074 14.0559 11.9958 14.7384 11.972 15.1313C11.9195 15.9999 11.2804 16.7104 10.4329 16.8935L10.2859 16.9253C9.43903 17.1082 8.56097 17.1082 7.71406 16.9253L7.56708 16.8935C6.71956 16.7104 6.08051 15.9999 6.02795 15.1313C6.00419 14.7384 5.89258 14.0559 5.7555 13.3522C5.65688 12.846 5.54872 12.3471 5.45993 11.9701C5.45194 11.9361 5.42486 11.886 5.36011 11.8384C3.94018 10.7944 3.1875 9.14234 3.1875 7.32445Z" fill="white"/>
</svg>
