<svg width="18" height="18" viewBox="0 0 18 18" fill="none" xmlns="http://www.w3.org/2000/svg">
<path fill-rule="evenodd" clip-rule="evenodd" d="M3.1875 3.75C3.1875 2.61091 4.11091 1.6875 5.25 1.6875H11.2401C11.6629 1.6875 12.0598 1.89118 12.3064 2.23466L14.5663 5.38309C14.7264 5.60616 14.8125 5.87383 14.8125 6.14842V14.25C14.8125 15.3891 13.8891 16.3125 12.75 16.3125H5.25C4.11091 16.3125 3.1875 15.3891 3.1875 14.25V3.75ZM5.25 2.8125C4.73223 2.8125 4.3125 3.23223 4.3125 3.75V14.25C4.3125 14.7678 4.73223 15.1875 5.25 15.1875H12.75C13.2678 15.1875 13.6875 14.7678 13.6875 14.25V6.67278H11.25C10.9393 6.67278 10.6875 6.42094 10.6875 6.11028V2.8125H5.25Z" fill="white"/>
<path d="M11.3143 9.91389C11.1202 10.1565 10.7662 10.1958 10.5236 10.0017L9.56254 9.23287V11.8125C9.56254 12.1232 9.3107 12.375 9.00004 12.375C8.68938 12.375 8.43754 12.1232 8.43754 11.8125V9.23283L7.47641 10.0017C7.23383 10.1958 6.87985 10.1565 6.68578 9.91389C6.49171 9.67131 6.53104 9.31733 6.77363 9.12326L8.64663 7.62486C8.74207 7.54769 8.86326 7.50111 8.9953 7.50002C8.99688 7.50001 8.99846 7.5 9.00004 7.5L9.00186 7.5C9.13619 7.50043 9.25943 7.54794 9.35595 7.62689L11.2264 9.12326C11.469 9.31733 11.5083 9.67131 11.3143 9.91389Z" fill="white"/>
</svg>
