<svg width="18" height="18" viewBox="0 0 18 18" fill="none" xmlns="http://www.w3.org/2000/svg">
<path fill-rule="evenodd" clip-rule="evenodd" d="M8.02672 3.9375C7.90205 3.9375 7.78697 4.00439 7.72525 4.11271L5.21577 8.51764C4.88312 9.10154 4.74352 9.77565 4.81693 10.4436L5.08179 12.8539C5.12891 13.2827 5.46556 13.6224 5.89396 13.6734L7.48175 13.8623C8.52992 13.9869 9.5927 13.8789 10.5943 13.5457C11.089 13.3812 11.4852 13.0057 11.676 12.5206L12.9541 9.27272C12.9854 9.19331 13.007 9.11044 13.0184 9.02588C13.1154 8.3118 12.4903 7.70943 11.7803 7.83275L9.2184 8.2777C8.40916 8.41826 7.71022 7.70412 7.86816 6.89808L8.36722 4.35118C8.40921 4.13686 8.24512 3.9375 8.02672 3.9375ZM6.74775 3.55583C7.00956 3.09627 7.49781 2.8125 8.02671 2.8125C8.95325 2.81249 9.64938 3.65826 9.47122 4.56751L8.97217 7.11441C8.97003 7.12532 8.97117 7.13198 8.97268 7.13677C8.97453 7.14266 8.97833 7.14957 8.9846 7.15597C8.99086 7.16238 8.99769 7.16633 9.00354 7.1683C9.0083 7.16991 9.01493 7.1712 9.02589 7.1693L11.5877 6.72434C13.0474 6.47083 14.3325 7.70918 14.1332 9.1772C14.1096 9.35104 14.0652 9.52142 14.001 9.68467L12.7229 12.9326C12.41 13.7279 11.7604 14.3435 10.9494 14.6132C9.79074 14.9986 8.56135 15.1236 7.34886 14.9794L5.76107 14.7905C4.81292 14.6777 4.06781 13.9259 3.96352 12.9768L3.69866 10.5665C3.59935 9.66277 3.78821 8.75075 4.23827 7.96076L6.74775 3.55583Z" fill="white"/>
</svg>
