<svg width="18" height="18" viewBox="0 0 18 18" fill="none" xmlns="http://www.w3.org/2000/svg">
<path fill-rule="evenodd" clip-rule="evenodd" d="M9.97316 14.0629C10.0978 14.0629 10.2129 13.996 10.2746 13.8877L12.7841 9.48275C13.1168 8.89884 13.2564 8.22474 13.183 7.55675L12.9181 5.14649C12.871 4.71765 12.5343 4.37797 12.1059 4.32701L10.5181 4.13813C9.46996 4.01345 8.40718 4.12153 7.40557 4.45467C6.91092 4.6192 6.51472 4.99465 6.32383 5.47974L5.04577 8.72766C5.01452 8.80707 4.99292 8.88995 4.98145 8.9745C4.88452 9.68859 5.50962 10.291 6.21962 10.1676L8.78148 9.72268C9.59072 9.58213 10.2897 10.2963 10.1317 11.1023L9.63267 13.6492C9.59067 13.8635 9.75476 14.0629 9.97316 14.0629ZM11.2521 14.4446C10.9903 14.9041 10.5021 15.1879 9.97317 15.1879C9.04663 15.1879 8.3505 14.3421 8.52866 13.4329L9.02771 10.886C9.02985 10.8751 9.02871 10.8684 9.0272 10.8636C9.02535 10.8577 9.02155 10.8508 9.01528 10.8444C9.00902 10.838 9.00219 10.8341 8.99634 10.8321C8.99158 10.8305 8.98495 10.8292 8.97399 10.8311L6.41213 11.276C4.9525 11.5296 3.6674 10.2912 3.86667 8.82318C3.89027 8.64934 3.93466 8.47897 3.9989 8.31572L5.27697 5.06779C5.58993 4.27247 6.23951 3.65692 7.05051 3.38717C8.20914 3.0018 9.43853 2.87678 10.651 3.02101L12.2388 3.20989C13.187 3.32268 13.9321 4.07448 14.0364 5.02361L14.3012 7.43386C14.4005 8.33762 14.2117 9.24964 13.7616 10.0396L11.2521 14.4446Z" fill="white"/>
</svg>
