<svg width="18" height="18" viewBox="0 0 18 18" fill="none" xmlns="http://www.w3.org/2000/svg">
<path fill-rule="evenodd" clip-rule="evenodd" d="M5.43751 5.43756V5.34765C5.43751 3.72185 6.53822 2.30229 8.1128 1.8974C8.69481 1.74774 9.30522 1.74774 9.88722 1.8974C11.4618 2.30229 12.5625 3.72185 12.5625 5.34766V5.43756H13.6884C14.1168 5.43756 14.4804 5.7518 14.5426 6.17573L14.7066 7.29507C15.0295 9.49891 15.0295 11.7381 14.7066 13.9419C14.5506 15.0062 13.6924 15.829 12.6225 15.9399L12.1509 15.9888C10.0559 16.2061 7.94411 16.2061 5.84916 15.9888L5.37751 15.9399C4.30761 15.829 3.44939 15.0062 3.29345 13.9419C2.97054 11.7381 2.97054 9.49891 3.29345 7.29507L3.45746 6.17573C3.51957 5.7518 3.88321 5.43756 4.31167 5.43756H5.43751ZM8.39297 2.98695C8.79119 2.88456 9.20884 2.88456 9.60705 2.98695C10.6844 3.26399 11.4375 4.23526 11.4375 5.34766V5.43756H6.56251V5.34765C6.56251 4.23526 7.31563 3.26399 8.39297 2.98695ZM5.43751 6.56256V8.25006C5.43751 8.56072 5.68935 8.81256 6.00001 8.81256C6.31067 8.81256 6.56251 8.56072 6.56251 8.25006V6.56256H11.4375V8.25006C11.4375 8.56072 11.6894 8.81256 12 8.81256C12.3107 8.81256 12.5625 8.56072 12.5625 8.25006V6.56256H13.4622L13.5935 7.45817C13.9005 9.55386 13.9005 11.6831 13.5935 13.7788C13.5121 14.3339 13.0645 14.763 12.5065 14.8209L12.0348 14.8698C10.017 15.0791 7.983 15.0791 5.96521 14.8698L5.49356 14.8209C4.93552 14.763 4.4879 14.3339 4.40657 13.7788C4.0995 11.6831 4.0995 9.55385 4.40657 7.45816L4.53779 6.56256H5.43751Z" fill="white"/>
</svg>
