<svg width="18" height="18" viewBox="0 0 18 18" fill="none" xmlns="http://www.w3.org/2000/svg">
<path fill-rule="evenodd" clip-rule="evenodd" d="M3.71786 3.89457C3.40915 4.89514 3.40915 5.98042 3.71786 6.98099C7.2311 7.31959 10.7688 7.31959 14.282 6.98099C14.5907 5.98042 14.5907 4.89514 14.282 3.89457C10.7688 3.55597 7.2311 3.55598 3.71786 3.89457ZM3.53149 2.78238C7.16844 2.42671 10.8314 2.42671 14.4684 2.78238C14.8693 2.82159 15.2062 3.0963 15.3294 3.47563C15.7416 4.74545 15.7416 6.13011 15.3294 7.39993C15.2062 7.77926 14.8693 8.05398 14.4684 8.09318C10.8314 8.44886 7.16844 8.44886 3.53149 8.09318C3.13058 8.05398 2.79362 7.77926 2.67049 7.39993C2.25828 6.13011 2.25828 4.74545 2.67049 3.47563C2.79362 3.0963 3.13058 2.82159 3.53149 2.78238Z" fill="white"/>
<path fill-rule="evenodd" clip-rule="evenodd" d="M3.71786 11.0196C3.40915 12.0201 3.40915 13.1054 3.71786 14.106C7.2311 14.4446 10.7688 14.4446 14.282 14.106C14.5907 13.1054 14.5907 12.0201 14.282 11.0196C10.7688 10.681 7.2311 10.681 3.71786 11.0196ZM3.53149 9.90738C7.16844 9.55171 10.8314 9.55171 14.4684 9.90738C14.8693 9.94659 15.2062 10.2213 15.3294 10.6006C15.7416 11.8705 15.7416 13.2551 15.3294 14.5249C15.2062 14.9043 14.8693 15.179 14.4684 15.2182C10.8314 15.5739 7.16844 15.5739 3.53149 15.2182C3.13058 15.179 2.79362 14.9043 2.67049 14.5249C2.25828 13.2551 2.25828 11.8705 2.67049 10.6006C2.79362 10.2213 3.13058 9.94659 3.53149 9.90738Z" fill="white"/>
</svg>
