<svg width="18" height="18" viewBox="0 0 18 18" fill="none" xmlns="http://www.w3.org/2000/svg">
<path fill-rule="evenodd" clip-rule="evenodd" d="M4.21928 7.22353L3.97985 5.06871C3.94952 4.79572 3.94952 4.52022 3.97985 4.24724L3.99693 4.09356C4.17804 2.46352 5.4595 1.17378 7.08834 0.982151C7.36195 0.94996 7.6384 0.94996 7.91202 0.982151C9.54086 1.17378 10.8223 2.46352 11.0034 4.09357L11.0205 4.24724C11.0508 4.52022 11.0508 4.79572 11.0205 5.06871L10.8098 6.96521C10.7949 7.09923 10.6922 7.20596 10.5601 7.23318C9.81342 7.38704 9.12464 7.69946 8.53052 8.13369C8.4749 8.17434 8.40761 8.19618 8.33875 8.19429C7.16386 8.16218 5.98759 8.19757 4.81576 8.30047L3.96493 8.37519C3.57137 8.40975 3.25286 8.70965 3.19469 9.10041C2.94552 10.7743 2.94552 12.4759 3.19469 14.1497C3.25286 14.5405 3.57137 14.8404 3.96493 14.875L4.81576 14.9497C5.5253 15.012 6.23647 15.0495 6.94798 15.0624C7.05218 15.0642 7.1477 15.1198 7.204 15.2075C7.36806 15.463 7.55367 15.7034 7.75826 15.9261C7.84922 16.0251 7.78297 16.1913 7.64853 16.192C6.67058 16.1965 5.69248 16.156 4.71735 16.0704L3.86651 15.9957C2.95469 15.9156 2.21672 15.2207 2.08195 14.3154C1.81643 12.5317 1.81643 10.7185 2.08195 8.93477C2.21672 8.02942 2.95469 7.33457 3.86651 7.2545L4.21928 7.22353ZM7.21978 2.09945C7.40607 2.07753 7.59429 2.07753 7.78058 2.09945C8.88954 2.22991 9.762 3.10801 9.88531 4.2178L9.90238 4.37147C9.92354 4.56189 9.92354 4.75406 9.90238 4.94447L9.65941 7.1312C8.22159 7.03338 6.77877 7.03338 5.34094 7.1312L5.09797 4.94447C5.07682 4.75406 5.07682 4.56189 5.09797 4.37147L5.11505 4.2178C5.23836 3.10801 6.11081 2.22991 7.21978 2.09945Z" fill="white"/>
<path d="M12.1877 11.2501C12.1877 10.9394 11.9358 10.6876 11.6252 10.6876C11.3145 10.6876 11.0627 10.9394 11.0627 11.2501V12.5796C11.0627 12.7596 11.1488 12.9287 11.2943 13.0345L12.0443 13.58C12.2956 13.7627 12.6474 13.7072 12.8301 13.4559C13.0128 13.2047 12.9573 12.8529 12.706 12.6702L12.1877 12.2932V11.2501Z" fill="white"/>
<path fill-rule="evenodd" clip-rule="evenodd" d="M11.6252 16.5001C13.9034 16.5001 15.7502 14.6533 15.7502 12.3751C15.7502 10.0969 13.9034 8.25008 11.6252 8.25008C9.347 8.25008 7.50018 10.0969 7.50018 12.3751C7.50018 14.6533 9.347 16.5001 11.6252 16.5001ZM11.6252 15.3751C13.282 15.3751 14.6252 14.0319 14.6252 12.3751C14.6252 10.7182 13.282 9.37508 11.6252 9.37508C9.96832 9.37508 8.62518 10.7182 8.62518 12.3751C8.62518 14.0319 9.96832 15.3751 11.6252 15.3751Z" fill="white"/>
</svg>
