<svg width="18" height="19" viewBox="0 0 18 19" fill="none" xmlns="http://www.w3.org/2000/svg">
<path fill-rule="evenodd" clip-rule="evenodd" d="M8.05348 2.9375C7.47327 2.9375 6.98928 3.38092 6.93861 3.95892C6.83268 5.16738 6.80587 6.38123 6.85827 7.5927C6.79502 7.59693 6.73178 7.60136 6.66855 7.60596L5.55142 7.6874C4.83739 7.73945 4.43823 8.53562 4.82372 9.13891C5.64585 10.4255 6.70519 11.5441 7.94527 12.4349L8.39283 12.7564C8.75569 13.017 9.24443 13.017 9.60729 12.7564L10.0548 12.4349C11.2949 11.5441 12.3543 10.4255 13.1764 9.13891C13.5619 8.53562 13.1627 7.73945 12.4487 7.6874L11.3316 7.60596C11.2683 7.60136 11.2051 7.59693 11.1418 7.5927C11.1942 6.38123 11.1674 5.16738 11.0615 3.95891C11.0108 3.38092 10.5268 2.9375 9.94664 2.9375H8.05348ZM8.01118 8.08605C7.92589 6.74563 7.94182 5.40063 8.05885 4.0625H9.94127C10.0583 5.40063 10.0742 6.74563 9.98894 8.08605C9.97938 8.23632 10.0305 8.38416 10.1308 8.49646C10.2311 8.60877 10.3722 8.67617 10.5226 8.68358C10.7651 8.69553 11.0075 8.71033 11.2498 8.72799L12.0611 8.78713C11.3414 9.8471 10.4403 10.7728 9.3985 11.5212L9.00006 11.8074L8.60162 11.5212C7.55979 10.7728 6.65868 9.8471 5.93902 8.78713L6.75034 8.72799C6.99258 8.71033 7.23498 8.69553 7.47749 8.68358C7.62789 8.67617 7.76903 8.60877 7.86934 8.49646C7.96965 8.38416 8.02074 8.23632 8.01118 8.08605Z" fill="white"/>
<path d="M4.3125 13.25C4.3125 12.9393 4.06066 12.6875 3.75 12.6875C3.43934 12.6875 3.1875 12.9393 3.1875 13.25V14.75C3.1875 15.4749 3.77513 16.0625 4.5 16.0625H13.5C14.2249 16.0625 14.8125 15.4749 14.8125 14.75V13.25C14.8125 12.9393 14.5607 12.6875 14.25 12.6875C13.9393 12.6875 13.6875 12.9393 13.6875 13.25V14.75C13.6875 14.8536 13.6036 14.9375 13.5 14.9375H4.5C4.39645 14.9375 4.3125 14.8536 4.3125 14.75V13.25Z" fill="white"/>
</svg>
