<svg width="18" height="18" viewBox="0 0 18 18" fill="none" xmlns="http://www.w3.org/2000/svg">
<path fill-rule="evenodd" clip-rule="evenodd" d="M15.7724 3.62236C15.992 3.40269 15.992 3.04653 15.7724 2.82686C15.5527 2.60719 15.1965 2.60719 14.9769 2.82686L2.97687 14.8269C2.7572 15.0465 2.7572 15.4027 2.97687 15.6224C3.19654 15.842 3.5527 15.842 3.77237 15.6224L5.3326 14.0621H13.8921C15.7467 14.0621 17.2502 12.5586 17.2502 10.7039C17.2502 8.84928 15.7467 7.34577 13.8921 7.34577C13.8441 7.34577 13.7963 7.34678 13.7487 7.34879C13.7204 6.86227 13.6064 6.39877 13.4216 5.97316L15.7724 3.62236ZM12.5386 6.85614L6.4576 12.9371H13.8921C15.1254 12.9371 16.1252 11.9373 16.1252 10.7039C16.1252 9.4706 15.1254 8.47077 13.8921 8.47077C13.6914 8.47077 13.4977 8.4971 13.3139 8.54618C13.1338 8.5943 12.9415 8.55001 12.8005 8.42793C12.6596 8.30585 12.5883 8.12185 12.6102 7.93667C12.6237 7.82253 12.6306 7.70617 12.6306 7.58795C12.6306 7.33527 12.5987 7.09007 12.5386 6.85614Z" fill="white"/>
<path d="M9.69855 3.53085C10.5287 3.53085 11.3007 3.7802 11.9435 4.20807C12.0387 4.27142 12.0483 4.40546 11.9674 4.4863L11.4217 5.03201C11.3587 5.09501 11.2604 5.1044 11.1836 5.0592C10.7481 4.80287 10.2405 4.65585 9.69855 4.65585C8.53582 4.65585 7.53006 5.3326 7.05571 6.31621C6.92818 6.58067 6.61869 6.70255 6.34507 6.59608C5.97702 6.45286 5.57618 6.37401 5.15558 6.37401C3.34322 6.37401 1.87402 7.84321 1.87402 9.65557C1.87402 10.8903 2.55596 11.9658 3.56376 12.5259C3.67835 12.5896 3.70697 12.7468 3.61427 12.8395L3.07192 13.3818C3.01211 13.4416 2.91942 13.4543 2.84741 13.41C1.58835 12.6343 0.749023 11.2429 0.749023 9.65557C0.749023 7.22189 2.7219 5.24901 5.15558 5.24901C5.54532 5.24901 5.92386 5.29975 6.28464 5.39514C7.00594 4.27442 8.26498 3.53085 9.69855 3.53085Z" fill="white"/>
</svg>
