<svg width="18" height="18" viewBox="0 0 18 18" fill="none" xmlns="http://www.w3.org/2000/svg">
<path d="M10.4997 6.74991C10.4997 6.12859 11.0034 5.62491 11.6247 5.62491C12.2461 5.62491 12.7497 6.12859 12.7497 6.74991C12.7497 7.37123 12.2461 7.87491 11.6247 7.87491C11.0034 7.87491 10.4997 7.37123 10.4997 6.74991Z" fill="white"/>
<path fill-rule="evenodd" clip-rule="evenodd" d="M5.45039 3.49382C7.81217 3.28852 10.1873 3.28852 12.5491 3.49382L13.6818 3.59228C14.7656 3.6865 15.6436 4.51123 15.8054 5.58702C16.1456 7.84956 16.1456 10.1503 15.8054 12.4128C15.6436 13.4886 14.7656 14.3133 13.6818 14.4075L12.5491 14.506C10.1873 14.7113 7.81217 14.7113 5.45039 14.506L4.31772 14.4075C3.23391 14.3133 2.35591 13.4886 2.19414 12.4128C1.85391 10.1503 1.85391 7.84956 2.19414 5.58702C2.35591 4.51123 3.23391 3.6865 4.31771 3.59228L5.45039 3.49382ZM12.4517 4.6146C10.1547 4.41493 7.84477 4.41493 5.54782 4.6146L4.41514 4.71306C3.84939 4.76224 3.39108 5.19275 3.30663 5.75432C3.11348 7.03878 3.03563 8.33617 3.07309 9.63106L5.97699 6.72716C6.08653 6.61762 6.23641 6.5581 6.39126 6.56265C6.54611 6.5672 6.69223 6.63542 6.79516 6.7512L9.54874 9.84898L11.4469 9.21627C11.6591 9.14552 11.8932 9.2073 12.0428 9.37362L14.6822 12.3062C14.6862 12.2862 14.6898 12.2659 14.6929 12.2455C15.0164 10.0939 15.0164 7.90595 14.6929 5.75432C14.6084 5.19275 14.1501 4.76224 13.5844 4.71306L12.4517 4.6146ZM13.9649 13.1909L11.4531 10.4L9.55262 11.0335C9.33915 11.1047 9.10381 11.0418 8.95432 10.8736L6.35065 7.94449L3.16789 11.1273C3.20447 11.5008 3.25072 11.8737 3.30663 12.2455C3.39108 12.8071 3.8494 13.2376 4.41514 13.2868L5.54782 13.3852C7.84477 13.5849 10.1547 13.5849 12.4517 13.3852L13.5844 13.2868C13.7184 13.2751 13.8464 13.242 13.9649 13.1909Z" fill="white"/>
</svg>
