<svg width="18" height="18" viewBox="0 0 18 18" fill="none" xmlns="http://www.w3.org/2000/svg">
<path fill-rule="evenodd" clip-rule="evenodd" d="M5.8125 5.625C5.8125 3.86459 7.23959 2.4375 9 2.4375C10.7604 2.4375 12.1875 3.86459 12.1875 5.625C12.1875 7.38541 10.7604 8.8125 9 8.8125C7.23959 8.8125 5.8125 7.38541 5.8125 5.625ZM9 3.5625C7.86091 3.5625 6.9375 4.48591 6.9375 5.625C6.9375 6.76409 7.86091 7.6875 9 7.6875C10.1391 7.6875 11.0625 6.76409 11.0625 5.625C11.0625 4.48591 10.1391 3.5625 9 3.5625Z" fill="white"/>
<path fill-rule="evenodd" clip-rule="evenodd" d="M6 11.0625C5.06802 11.0625 4.3125 11.818 4.3125 12.75V13.6412C4.3125 13.6548 4.32233 13.6664 4.33573 13.6685C7.42479 14.1729 10.5752 14.1729 13.6643 13.6685C13.6777 13.6664 13.6875 13.6548 13.6875 13.6412V12.75C13.6875 11.818 12.932 11.0625 12 11.0625H11.7443C11.7246 11.0625 11.7049 11.0656 11.6861 11.0718L11.037 11.2837C9.71339 11.7159 8.28661 11.7159 6.96299 11.2837L6.31385 11.0718C6.29506 11.0656 6.27542 11.0625 6.25565 11.0625H6ZM3.1875 12.75C3.1875 11.1967 4.4467 9.9375 6 9.9375H6.25565C6.39402 9.9375 6.53152 9.95938 6.66305 10.0023L7.31219 10.2143C8.4089 10.5724 9.5911 10.5724 10.6878 10.2143L11.3369 10.0023C11.4685 9.95938 11.606 9.9375 11.7443 9.9375H12C13.5533 9.9375 14.8125 11.1967 14.8125 12.75V13.6412C14.8125 14.2061 14.4031 14.6878 13.8455 14.7788C10.6364 15.3028 7.36357 15.3028 4.15445 14.7788C3.59691 14.6878 3.1875 14.2061 3.1875 13.6412V12.75Z" fill="white"/>
</svg>
