<svg width="18" height="18" viewBox="0 0 18 18" fill="none" xmlns="http://www.w3.org/2000/svg">
<path d="M9.49727 15.1874C9.84077 15.1874 10.1625 15.0194 10.3588 14.7375L13.5328 10.1796C14.1288 9.32376 14.3944 8.28089 14.2805 7.24417L14.0364 5.02312C13.9321 4.07399 13.187 3.32219 12.2389 3.2094L10.6511 3.02052C9.43858 2.87629 8.2092 3.00131 7.05056 3.38669C6.23957 3.65643 5.58998 4.27198 5.27702 5.0673L3.99556 8.32385C3.93358 8.48137 3.89074 8.64577 3.86797 8.81351C3.66974 10.2739 4.98931 11.4837 6.42703 11.1598L9.25491 10.5226C9.26961 10.5193 9.27876 10.5207 9.28533 10.5228C9.29335 10.5253 9.30263 10.5306 9.31103 10.5393C9.31943 10.5479 9.32441 10.5574 9.3267 10.5655C9.32857 10.5721 9.32978 10.5813 9.32602 10.5959L8.48057 13.8754C8.30927 14.5399 8.81104 15.1874 9.49727 15.1874Z" fill="white"/>
</svg>
