<svg width="18" height="18" viewBox="0 0 18 18" fill="none" xmlns="http://www.w3.org/2000/svg">
<path d="M13.3127 8.24986C12.7949 8.24986 12.3752 8.66959 12.3752 9.18736C12.3752 9.70512 12.7949 10.1249 13.3127 10.1249C13.8304 10.1249 14.2502 9.70512 14.2502 9.18736C14.2502 8.66959 13.8304 8.24986 13.3127 8.24986Z" fill="white"/>
<path fill-rule="evenodd" clip-rule="evenodd" d="M3.13002 6.08635L4.68767 5.91322V2.93462C4.68767 2.45215 5.05521 2.04912 5.53563 2.00478C7.84042 1.79203 10.1599 1.79203 12.4647 2.00478C12.9451 2.04912 13.3127 2.45215 13.3127 2.93462V5.91322L14.8704 6.08635C15.4451 6.15023 15.9192 6.5653 16.0586 7.12653C16.4829 8.83566 16.4829 10.6226 16.0586 12.3318L15.9211 12.8854C15.8588 13.1362 15.6336 13.3124 15.3752 13.3124H13.3127V15.0621C13.3127 15.5286 12.9592 15.9193 12.4949 15.9657C10.1709 16.1981 7.82945 16.1981 5.5054 15.9657C5.04118 15.9193 4.68767 15.5286 4.68767 15.0621V13.3124H2.62519C2.36674 13.3124 2.14154 13.1362 2.07926 12.8854L1.9418 12.3318C1.51745 10.6226 1.51745 8.83566 1.9418 7.12653C2.08114 6.5653 2.55529 6.15023 3.13002 6.08635ZM12.1877 5.80453C10.0662 5.63057 7.93411 5.63057 5.81267 5.80454V3.1094C7.93361 2.92382 10.0667 2.92382 12.1877 3.1094V5.80453ZM12.1877 12.3761C12.1863 12.2576 12.1104 12.1556 12.0027 12.1176C10.0049 11.9404 7.99545 11.9404 5.99773 12.1176C5.889 12.156 5.81269 12.2595 5.81269 12.3794V12.7499L5.81267 12.7546V14.8652C7.93298 15.0649 10.0674 15.0649 12.1877 14.8652V12.3761ZM14.9353 12.1874H13.3127V11.9376C13.3127 11.4711 12.9592 11.0805 12.4949 11.034C12.3934 11.0239 12.2918 11.0142 12.1902 11.0049C12.1476 10.9963 12.1042 10.9895 12.0603 10.9848C10.0261 10.7656 7.97428 10.7656 5.94011 10.9848C5.89614 10.9895 5.85282 10.9962 5.81025 11.0049C5.7086 11.0142 5.60699 11.0239 5.5054 11.034C5.04118 11.0805 4.68767 11.4711 4.68767 11.9376V12.1874H3.06511L3.03365 12.0607C2.6535 10.5296 2.6535 8.92872 3.03365 7.39762C3.05952 7.2934 3.14757 7.21633 3.2543 7.20446L4.81604 7.03088C7.59691 6.72179 10.4035 6.72179 13.1843 7.03088L14.7461 7.20446C14.8528 7.21633 14.9409 7.2934 14.9667 7.39762C15.3469 8.92872 15.3469 10.5296 14.9667 12.0607L14.9353 12.1874Z" fill="white"/>
</svg>
