<svg width="18" height="18" viewBox="0 0 18 18" fill="none" xmlns="http://www.w3.org/2000/svg">
<path fill-rule="evenodd" clip-rule="evenodd" d="M14.7011 12.7318C15.0176 10.9996 15.0375 9.22626 14.7599 7.48741L14.7119 7.18634C14.6446 6.76478 14.281 6.45459 13.8541 6.45459H7.31945C6.88065 6.45459 6.52493 6.09887 6.52493 5.66007C6.52493 5.33004 6.25739 5.0625 5.92736 5.0625H4.20868C3.76091 5.0625 3.38375 5.39708 3.33036 5.84166L3.126 7.5435C2.9222 9.24061 2.9748 10.9587 3.28202 12.6402C3.35142 13.02 3.66906 13.3047 4.05417 13.3322L5.18967 13.4135C7.7266 13.595 10.2733 13.595 12.8102 13.4135L14.0386 13.3256C14.369 13.3019 14.6416 13.0577 14.7011 12.7318ZM15.8709 7.31009C16.1685 9.17477 16.1472 11.0765 15.8078 12.934C15.656 13.7647 14.9612 14.3874 14.1189 14.4477L12.8905 14.5356C10.3001 14.7209 7.69978 14.7209 5.10939 14.5356L3.97389 14.4544C3.07686 14.3902 2.33698 13.7271 2.17534 12.8424C1.84784 11.05 1.79178 9.21847 2.00902 7.40937L2.21339 5.70753C2.33467 4.69757 3.19147 3.9375 4.20868 3.9375L5.92736 3.9375C6.76567 3.9375 7.46412 4.53634 7.61826 5.32959L13.8541 5.32959C14.8338 5.32959 15.6684 6.0415 15.8228 7.00902L15.8709 7.31009Z" fill="white"/>
</svg>
