<svg width="18" height="18" viewBox="0 0 18 18" fill="none" xmlns="http://www.w3.org/2000/svg">
<path fill-rule="evenodd" clip-rule="evenodd" d="M15.2709 13.9346C14.9667 14.2275 14.5633 14.4159 14.1189 14.4477L12.8905 14.5356C10.3001 14.7209 7.69978 14.7209 5.10939 14.5356L3.97389 14.4544C3.07686 14.3902 2.33698 13.7271 2.17534 12.8424C1.84784 11.05 1.79178 9.21847 2.00902 7.40937L2.21339 5.70753C2.33467 4.69757 3.19147 3.9375 4.20868 3.9375H5.92736C6.76567 3.9375 7.46412 4.53634 7.61826 5.32959L13.8541 5.32959C14.8338 5.32959 15.6684 6.0415 15.8228 7.00902L15.8709 7.31009C15.881 7.37335 15.8907 7.43666 15.9001 7.5H16.1521C17.2564 7.5 18.0156 8.60987 17.6154 9.63909L16.6783 12.0487C16.3873 12.797 15.8991 13.4476 15.2709 13.9346ZM14.7119 7.18634L14.7599 7.48741C14.7606 7.49161 14.7613 7.4958 14.762 7.5H7.77775C6.92597 7.5 6.16181 8.02361 5.85433 8.81795L4.10545 13.3359L4.05417 13.3322C3.66906 13.3047 3.35142 13.02 3.28202 12.6402C2.9748 10.9587 2.9222 9.24061 3.126 7.5435L3.33036 5.84166C3.38375 5.39708 3.76091 5.0625 4.20868 5.0625H5.92736C6.25739 5.0625 6.52493 5.33004 6.52493 5.66007C6.52493 6.09887 6.88065 6.45459 7.31945 6.45459H13.8541C14.281 6.45459 14.6446 6.76478 14.7119 7.18634ZM5.27931 13.4198C7.78659 13.5949 10.3031 13.5928 12.8102 13.4135L14.0386 13.3256L14.1845 13.3119L14.1835 13.3101C14.8439 12.9375 15.3549 12.3477 15.6298 11.641L16.5668 9.23134C16.6803 8.9396 16.4651 8.625 16.1521 8.625H7.77775C7.39058 8.625 7.04323 8.863 6.90347 9.22407L5.27931 13.4198Z" fill="white"/>
</svg>
