<svg width="18" height="18" viewBox="0 0 18 18" fill="none" xmlns="http://www.w3.org/2000/svg">
<path fill-rule="evenodd" clip-rule="evenodd" d="M14.0624 7.87523L14.0575 8.05738L14.0624 8.25024L14.0578 8.43267L14.0624 8.62524L14.058 8.8089L14.0624 9.00024L13.9406 14.3275C13.9117 15.5915 12.9504 16.6382 11.6934 16.7743C9.90286 16.9682 8.09659 16.9682 6.30602 16.7743C5.04908 16.6382 4.08776 15.5915 4.05886 14.3275L3.93708 9.00024L3.94148 8.80764L3.93709 8.62524L3.94171 8.43342L3.93706 8.25024L3.94193 8.05821L3.93701 7.87523L4.06002 3.3018C4.06173 3.23799 4.06622 3.17484 4.07336 3.11247L4.07615 3.0861L4.07837 3.06485C4.13883 2.44677 4.48134 1.90771 4.98049 1.58421C5.01773 1.55944 5.05584 1.53585 5.09477 1.51351C5.13286 1.49097 5.17173 1.46959 5.21135 1.44943C5.4563 1.32015 5.72967 1.23636 6.02067 1.20958C8.00251 1.02715 9.99692 1.02715 11.9788 1.20958C12.2693 1.23632 12.5423 1.31989 12.7869 1.44881C12.8265 1.46894 12.8654 1.49029 12.9035 1.5128C12.9437 1.53582 12.983 1.56015 13.0213 1.58574C13.5178 1.90851 13.8588 2.44478 13.9206 3.05975L13.9264 3.11548C13.9334 3.17686 13.9377 3.23901 13.9394 3.3018L14.0624 7.87523ZM12.8054 3.24076L12.9231 8.39077L12.8277 11.9384C12.8063 12.736 12.192 13.3915 11.3975 13.4646C9.80235 13.6115 8.19708 13.6115 6.60193 13.4646C5.80748 13.3915 5.19315 12.736 5.1717 11.9384L5.0763 8.39121L5.19404 3.24076C5.19429 3.22968 5.19475 3.21865 5.19542 3.20767C5.24003 2.90595 5.41488 2.64552 5.66279 2.48737C5.7567 2.43841 5.86091 2.40594 5.97176 2.39394C7.98452 2.17597 10.0149 2.17597 12.0277 2.39394C12.1385 2.40594 12.2427 2.43839 12.3365 2.48731C12.5846 2.6455 12.7595 2.90606 12.804 3.20791C12.8047 3.21881 12.8052 3.22976 12.8054 3.24076ZM8.99974 16.2752C9.62106 16.2752 10.1247 15.7716 10.1247 15.1502C10.1247 14.5289 9.62106 14.0252 8.99974 14.0252C8.37842 14.0252 7.87474 14.5289 7.87474 15.1502C7.87474 15.7716 8.37842 16.2752 8.99974 16.2752Z" fill="white"/>
</svg>
