<svg width="18" height="18" viewBox="0 0 18 18" fill="none" xmlns="http://www.w3.org/2000/svg">
<path d="M5.99991 11.625C4.66128 11.625 3.54154 10.6027 3.4019 9.2761C3.38267 9.09341 3.38267 8.9066 3.4019 8.7239C3.54154 7.39726 4.66128 6.375 5.99991 6.375C7.33853 6.375 8.45827 7.39726 8.59792 8.7239C8.61715 8.90659 8.61715 9.0934 8.59792 9.2761C8.45827 10.6027 7.33853 11.625 5.99991 11.625Z" fill="white"/>
<path fill-rule="evenodd" clip-rule="evenodd" d="M6.05566 14.0625H11.9442C14.4353 14.0625 16.5562 12.2502 16.9447 9.78956C17.0273 9.26643 17.0273 8.73357 16.9447 8.21044C16.5562 5.7498 14.4353 3.9375 11.9442 3.9375H6.05566C3.56454 3.9375 1.44364 5.7498 1.05511 8.21044C0.972514 8.73357 0.972514 9.26643 1.05511 9.78956C1.44364 12.2502 3.56454 14.0625 6.05566 14.0625ZM6.05566 12.9375C4.11812 12.9375 2.46853 11.5279 2.16635 9.6141C2.1021 9.20722 2.1021 8.79278 2.16635 8.3859C2.46853 6.47207 4.11812 5.0625 6.05566 5.0625L11.9442 5.0625C13.8817 5.0625 15.5313 6.47207 15.8335 8.3859C15.8977 8.79278 15.8977 9.20722 15.8335 9.6141C15.5313 11.5279 13.8817 12.9375 11.9442 12.9375H6.05566Z" fill="white"/>
</svg>
