<svg width="18" height="18" viewBox="0 0 18 18" fill="none" xmlns="http://www.w3.org/2000/svg">
<path d="M10.1023 5.64775C10.3219 5.86742 10.6781 5.86742 10.8977 5.64775L11.4375 5.10799L11.4375 12.75C11.4375 13.0607 11.6893 13.3125 12 13.3125C12.3107 13.3125 12.5625 13.0607 12.5625 12.75L12.5625 5.10799L13.1023 5.64775C13.3219 5.86742 13.6781 5.86742 13.8977 5.64775C14.1174 5.42808 14.1174 5.07192 13.8977 4.85225L12.3977 3.35225C12.1781 3.13258 11.8219 3.13258 11.6023 3.35225L10.1023 4.85225C9.88258 5.07192 9.88258 5.42808 10.1023 5.64775Z" fill="white"/>
<path d="M6.5625 12.892L7.10225 12.3523C7.32192 12.1326 7.67808 12.1326 7.89775 12.3523C8.11742 12.5719 8.11742 12.9281 7.89775 13.1477L6.39775 14.6477C6.17808 14.8674 5.82192 14.8674 5.60225 14.6477L4.10225 13.1477C3.88258 12.9281 3.88258 12.5719 4.10225 12.3523C4.32192 12.1326 4.67808 12.1326 4.89775 12.3523L5.4375 12.892L5.4375 5.25C5.4375 4.93934 5.68934 4.6875 6 4.6875C6.31066 4.6875 6.5625 4.93934 6.5625 5.25L6.5625 12.892Z" fill="white"/>
</svg>
