<svg width="18" height="18" viewBox="0 0 18 18" fill="none" xmlns="http://www.w3.org/2000/svg">
<path d="M9 13.6875C8.68934 13.6875 8.4375 13.9393 8.4375 14.25C8.4375 14.5607 8.68934 14.8125 9 14.8125H13.5C14.2249 14.8125 14.8125 14.2249 14.8125 13.5V4.5C14.8125 3.77513 14.2249 3.1875 13.5 3.1875H9C8.68934 3.1875 8.4375 3.43934 8.4375 3.75C8.4375 4.06066 8.68934 4.3125 9 4.3125L13.5 4.3125C13.6036 4.3125 13.6875 4.39645 13.6875 4.5L13.6875 13.5C13.6875 13.6036 13.6036 13.6875 13.5 13.6875H9Z" fill="white"/>
<path fill-rule="evenodd" clip-rule="evenodd" d="M2.4375 9.83641C2.4375 10.3542 2.85723 10.7739 3.375 10.7739H6.83445C6.83934 10.829 6.84446 10.884 6.84981 10.9391L6.89033 11.356C6.95215 11.9921 7.62761 12.373 8.20392 12.0968C9.42959 11.5094 10.6136 10.6279 11.5537 9.64635C11.9018 9.28284 11.9018 8.70959 11.5537 8.34608L11.4793 8.2684C10.5392 7.28684 9.42959 6.48303 8.20392 5.89563C7.62761 5.61943 6.95216 6.00037 6.89033 6.63645L6.84981 7.05336C6.84446 7.1084 6.83934 7.16346 6.83445 7.21853H3.375C2.85723 7.21853 2.4375 7.63826 2.4375 8.15603V9.83641ZM7.91491 10.148C7.88304 9.8653 7.64349 9.64891 7.35598 9.64891H3.5625L3.5625 8.34353H7.35598C7.65304 8.34353 7.89889 8.11253 7.91739 7.81604C7.93099 7.59788 7.94838 7.3799 7.96954 7.16219L7.9813 7.04118C8.95992 7.54552 9.85062 8.20568 10.6183 8.99622C10.2978 9.32629 9.95579 9.63363 9.59493 9.9164C9.09151 10.3109 8.55132 10.6575 7.9813 10.9512L7.96954 10.8302C7.94838 10.6125 7.93099 10.3946 7.91739 10.1764C7.91679 10.1669 7.91596 10.1574 7.91491 10.148Z" fill="white"/>
</svg>
