<svg width="18" height="18" viewBox="0 0 18 18" fill="none" xmlns="http://www.w3.org/2000/svg">
<path d="M11.3142 9.39878C11.1202 9.15619 10.7662 9.11686 10.5236 9.31093L9.5625 10.0798V7.50017C9.5625 7.18951 9.31066 6.93767 9 6.93767C8.68934 6.93767 8.4375 7.18951 8.4375 7.50017V10.0798L7.47637 9.31093C7.23379 9.11686 6.87981 9.15619 6.68574 9.39878C6.49167 9.64136 6.531 9.99534 6.77359 10.1894L8.64656 11.6878C8.74315 11.7659 8.86611 11.8127 9 11.8127C9.13504 11.8127 9.25897 11.7651 9.35592 11.6858L11.2264 10.1894C11.469 9.99534 11.5083 9.64136 11.3142 9.39878Z" fill="white"/>
<path fill-rule="evenodd" clip-rule="evenodd" d="M6.34529 5.46307C7.05226 4.37067 8.28204 3.64648 9.68182 3.64648C11.7921 3.64648 13.518 5.29236 13.6458 7.37047C13.6879 7.36887 13.7302 7.36806 13.7727 7.36806C15.5896 7.36806 17.0625 8.84094 17.0625 10.6578C17.0625 12.4747 15.5896 13.9476 13.7727 13.9476H5.25C2.86827 13.9476 0.9375 12.0168 0.9375 9.63511C0.9375 7.25338 2.86827 5.32261 5.25 5.32261C5.62793 5.32261 5.99511 5.37135 6.34529 5.46307ZM9.68182 4.77148C8.55302 4.77148 7.57658 5.42847 7.11604 6.38343C6.98851 6.64789 6.67902 6.76977 6.4054 6.6633C6.04792 6.5242 5.65858 6.44761 5.25 6.44761C3.48959 6.44761 2.0625 7.8747 2.0625 9.63511C2.0625 11.3955 3.48959 12.8226 5.25 12.8226H13.772C14.9676 12.8226 15.9375 11.8534 15.9375 10.6578C15.9375 9.46226 14.9683 8.49306 13.7727 8.49306C13.5782 8.49306 13.3904 8.51859 13.2123 8.56617C13.0321 8.61428 12.8398 8.56999 12.6989 8.44791C12.5579 8.32583 12.4866 8.14183 12.5085 7.95665C12.5216 7.84584 12.5284 7.73287 12.5284 7.61808C12.5284 6.04595 11.2539 4.77148 9.68182 4.77148Z" fill="white"/>
</svg>
