<svg width="18" height="18" viewBox="0 0 18 18" fill="none" xmlns="http://www.w3.org/2000/svg">
<path fill-rule="evenodd" clip-rule="evenodd" d="M10.6875 4.125C10.6875 2.77881 11.7788 1.6875 13.125 1.6875C14.4712 1.6875 15.5625 2.77881 15.5625 4.125C15.5625 5.47119 14.4712 6.5625 13.125 6.5625C12.4053 6.5625 11.7584 6.25057 11.3122 5.75453L9.27425 6.86615L6.99386 8.16923C7.19664 8.5248 7.3125 8.93637 7.3125 9.375C7.3125 9.59726 7.28275 9.81258 7.22702 10.0172L11.3122 12.2455C11.7584 11.7494 12.4053 11.4375 13.125 11.4375C14.4712 11.4375 15.5625 12.5288 15.5625 13.875C15.5625 15.2212 14.4712 16.3125 13.125 16.3125C11.7788 16.3125 10.6875 15.2212 10.6875 13.875C10.6875 13.6527 10.7172 13.4374 10.773 13.2328L6.68778 11.0045C6.24159 11.5006 5.59472 11.8125 4.875 11.8125C3.52881 11.8125 2.4375 10.7212 2.4375 9.375C2.4375 8.02881 3.52881 6.9375 4.875 6.9375C5.36301 6.9375 5.81752 7.08091 6.19869 7.32789L8.72576 5.88385L10.773 4.76719C10.7172 4.56258 10.6875 4.34727 10.6875 4.125ZM13.125 2.8125C12.4001 2.8125 11.8125 3.40013 11.8125 4.125C11.8125 4.84987 12.4001 5.4375 13.125 5.4375C13.8499 5.4375 14.4375 4.84987 14.4375 4.125C14.4375 3.40013 13.8499 2.8125 13.125 2.8125ZM4.875 8.0625C4.15013 8.0625 3.5625 8.65013 3.5625 9.375C3.5625 10.0999 4.15013 10.6875 4.875 10.6875C5.59987 10.6875 6.1875 10.0999 6.1875 9.375C6.1875 8.65013 5.59987 8.0625 4.875 8.0625ZM11.8125 13.875C11.8125 13.1501 12.4001 12.5625 13.125 12.5625C13.8499 12.5625 14.4375 13.1501 14.4375 13.875C14.4375 14.5999 13.8499 15.1875 13.125 15.1875C12.4001 15.1875 11.8125 14.5999 11.8125 13.875Z" fill="white"/>
</svg>
