<svg width="18" height="18" viewBox="0 0 18 18" fill="none" xmlns="http://www.w3.org/2000/svg">
<path d="M9 6.75C8.17157 6.75 7.5 7.42157 7.5 8.25C7.5 9.07843 8.17157 9.75 9 9.75C9.82843 9.75 10.5 9.07843 10.5 8.25C10.5 7.42157 9.82843 6.75 9 6.75Z" fill="white"/>
<path d="M6 13.125C6 11.8824 7.00736 10.875 8.25 10.875H9.75C10.9926 10.875 12 11.8824 12 13.125C12 13.5392 11.6642 13.875 11.25 13.875H6.75C6.33579 13.875 6 13.5392 6 13.125Z" fill="white"/>
<path fill-rule="evenodd" clip-rule="evenodd" d="M5.25 1.6875C4.11091 1.6875 3.1875 2.61091 3.1875 3.75V14.25C3.1875 15.3891 4.11091 16.3125 5.25 16.3125H12.75C13.8891 16.3125 14.8125 15.3891 14.8125 14.25V6.14842C14.8125 5.87383 14.7264 5.60616 14.5663 5.38309L12.3064 2.23466C12.0598 1.89118 11.6629 1.6875 11.2401 1.6875H5.25ZM4.3125 3.75C4.3125 3.23223 4.73223 2.8125 5.25 2.8125H10.6875V6.11028C10.6875 6.42094 10.9393 6.67278 11.25 6.67278H13.6875V14.25C13.6875 14.7678 13.2678 15.1875 12.75 15.1875H5.25C4.73223 15.1875 4.3125 14.7678 4.3125 14.25V3.75Z" fill="white"/>
</svg>
