<svg width="18" height="18" viewBox="0 0 18 18" fill="none" xmlns="http://www.w3.org/2000/svg">
<path d="M5.77475 7.08725C5.46409 7.08725 5.21225 7.33909 5.21225 7.64975C5.21225 7.96041 5.46409 8.21225 5.77475 8.21225H9.52475C9.83541 8.21225 10.0872 7.96041 10.0872 7.64975C10.0872 7.33909 9.83541 7.08725 9.52475 7.08725H5.77475Z" fill="white"/>
<path fill-rule="evenodd" clip-rule="evenodd" d="M4.04869 11.2081C5.89128 13.0507 8.80085 13.176 10.7886 11.584L14.6553 15.4508C14.8749 15.6704 15.2311 15.6704 15.4508 15.4508C15.6704 15.2311 15.6704 14.8749 15.4508 14.6553L11.584 10.7885C13.176 8.80085 13.0507 5.89128 11.2081 4.04869C9.23112 2.07166 6.02572 2.07166 4.04869 4.04869C2.07166 6.02572 2.07166 9.23112 4.04869 11.2081ZM4.84418 4.84419C3.3065 6.38187 3.3065 8.87496 4.84418 10.4127C6.38075 11.9492 8.87131 11.9503 10.4093 10.416L10.4126 10.4126L10.416 10.4093C11.9503 8.8713 11.9492 6.38075 10.4127 4.84419C8.87496 3.3065 6.38187 3.3065 4.84418 4.84419Z" fill="white"/>
</svg>
