<svg width="18" height="18" viewBox="0 0 18 18" fill="none" xmlns="http://www.w3.org/2000/svg">
<path fill-rule="evenodd" clip-rule="evenodd" d="M10.2482 4.75732C10.2482 5.06798 10.5 5.31982 10.8107 5.31982L12.6801 5.31982V7.1893C12.6801 7.49996 12.932 7.7518 13.2426 7.7518C13.5533 7.7518 13.8051 7.49996 13.8051 7.1893V4.75732C13.8051 4.44666 13.5533 4.19482 13.2426 4.19482L10.8107 4.19482C10.5 4.19482 10.2482 4.44666 10.2482 4.75732Z" fill="white"/>
<path fill-rule="evenodd" clip-rule="evenodd" d="M13.2426 10.2481C12.932 10.2481 12.6801 10.5 12.6801 10.8106L12.6801 12.6801L10.8106 12.6801C10.5 12.6801 10.2481 12.932 10.2481 13.2426C10.2481 13.5533 10.5 13.8051 10.8106 13.8051L13.2426 13.8051C13.5533 13.8051 13.8051 13.5533 13.8051 13.2426L13.8051 10.8106C13.8051 10.5 13.5533 10.2481 13.2426 10.2481Z" fill="white"/>
<path fill-rule="evenodd" clip-rule="evenodd" d="M4.75734 10.2481C5.068 10.2481 5.31984 10.5 5.31984 10.8106L5.31984 12.6801L7.18932 12.6801C7.49999 12.6801 7.75182 12.932 7.75182 13.2426C7.75182 13.5533 7.49998 13.8051 7.18932 13.8051L4.75734 13.8051C4.44668 13.8051 4.19484 13.5533 4.19484 13.2426L4.19484 10.8106C4.19484 10.5 4.44668 10.2481 4.75734 10.2481Z" fill="white"/>
<path fill-rule="evenodd" clip-rule="evenodd" d="M7.7518 4.75732C7.75181 5.06798 7.49997 5.31982 7.18931 5.31982L5.31982 5.31982L5.31982 7.1893C5.31982 7.49997 5.06798 7.75181 4.75732 7.7518C4.44666 7.7518 4.19482 7.49996 4.19482 7.1893L4.19482 4.75732C4.19482 4.44666 4.44666 4.19482 4.75732 4.19482L7.18931 4.19482C7.49997 4.19482 7.75181 4.44666 7.7518 4.75732Z" fill="white"/>
</svg>
