<svg width="18" height="18" viewBox="0 0 18 18" fill="none" xmlns="http://www.w3.org/2000/svg">
<path fill-rule="evenodd" clip-rule="evenodd" d="M10.1687 4.15055C9.51573 3.52403 8.48485 3.52403 7.83192 4.15055L4.36209 7.48005C4.27708 7.56163 4.21989 7.66789 4.19864 7.78378C3.78304 10.0502 3.75237 12.3704 4.1079 14.647L4.19229 15.1874H6.42463V10.5289C6.42463 10.2182 6.67647 9.96637 6.98713 9.96637H11.0134C11.3241 9.96637 11.5759 10.2182 11.5759 10.5289V15.1874H13.8083L13.8927 14.647C14.2482 12.3704 14.2175 10.0502 13.8019 7.78378C13.7807 7.66789 13.7235 7.56163 13.6385 7.48005L10.1687 4.15055ZM7.05301 3.33881C8.14122 2.29461 9.85936 2.29461 10.9476 3.33881L14.4174 6.66831C14.6728 6.91341 14.8446 7.23268 14.9085 7.58087C15.3469 9.97159 15.3792 12.4191 15.0042 14.8206L14.8686 15.6887C14.8126 16.0477 14.5034 16.3124 14.14 16.3124H11.0134C10.7028 16.3124 10.4509 16.0605 10.4509 15.7499V11.0914H7.54963V15.7499C7.54963 16.0605 7.29779 16.3124 6.98713 16.3124H3.86059C3.49722 16.3124 3.18801 16.0477 3.13194 15.6887L2.99637 14.8206C2.62134 12.4191 2.6537 9.97159 3.09209 7.58087C3.15594 7.23268 3.32776 6.91341 3.58318 6.66831L7.05301 3.33881Z" fill="white"/>
</svg>
