<svg width="18" height="18" viewBox="0 0 18 18" fill="none" xmlns="http://www.w3.org/2000/svg">
<path d="M8.50239 2.8125C8.15889 2.81251 7.83711 2.98054 7.64081 3.26243L4.4669 7.82025C3.87089 8.67613 3.60525 9.71901 3.71917 10.7557L3.96324 12.9768C4.06754 13.9259 4.81264 14.6777 5.76079 14.7905L7.34858 14.9794C8.56107 15.1236 9.79046 14.9986 10.9491 14.6132C11.7601 14.3435 12.4097 13.7279 12.7226 12.9326L14.0041 9.67604C14.0661 9.51852 14.1089 9.35413 14.1317 9.18639C14.3299 7.72601 13.0103 6.51617 11.5726 6.84013L8.64919 7.49886L9.51908 4.12451C9.69039 3.46001 9.18862 2.81249 8.50239 2.8125Z" fill="white"/>
</svg>
