<svg width="18" height="18" viewBox="0 0 18 18" fill="none" xmlns="http://www.w3.org/2000/svg">
<path d="M12.4312 5.4374C12.4775 5.69593 12.4177 5.94802 12.1775 5.97069L11.7791 6.04262L11.6135 12.2804C11.2626 12.468 10.9433 12.571 10.6798 12.5618C10.2548 12.547 10.1522 12.4007 9.84698 11.965L7.36808 7.50544L7.25589 11.7322L8.07184 11.9604C8.07184 11.9604 8.05829 12.4711 7.39644 12.448L5.56685 12.4984C5.51674 12.3826 5.57744 12.0995 5.76507 12.0513L6.24495 11.9252L6.39325 6.33798L5.73291 6.25796C5.68659 5.99944 5.82941 5.63615 6.19955 5.62074L8.16253 5.54622L10.746 10.0662L10.8499 6.15038L10.1636 6.0407C10.1187 5.72792 10.3352 5.50729 10.6016 5.49009L12.4312 5.4374Z" fill="white"/>
<path fill-rule="evenodd" clip-rule="evenodd" d="M12.9437 2.12467C10.3438 1.83409 7.65627 1.83409 5.05634 2.12467C3.5473 2.29333 2.32905 3.48209 2.15163 4.99899C1.84073 7.65721 1.84073 10.3426 2.15163 13.0008C2.32905 14.5177 3.5473 15.7065 5.05634 15.8751C7.65627 16.1657 10.3438 16.1657 12.9437 15.8751C14.4527 15.7065 15.671 14.5177 15.8484 13.0008C16.1593 10.3426 16.1593 7.65721 15.8484 4.99899C15.671 3.48209 14.4527 2.29333 12.9437 2.12467ZM5.1813 3.24271C7.69818 2.96141 10.3019 2.96141 12.8188 3.24271C13.8163 3.35421 14.6154 4.14142 14.731 5.12967C15.0318 7.70107 15.0318 10.2988 14.731 12.8701C14.6154 13.8584 13.8163 14.6456 12.8187 14.7571C10.3019 15.0384 7.69819 15.0384 5.1813 14.7571C4.18372 14.6456 3.3846 13.8584 3.26902 12.8701C2.96827 10.2988 2.96827 7.70107 3.26902 5.12967C3.3846 4.14142 4.18372 3.35421 5.1813 3.24271Z" fill="white"/>
</svg>
