<svg width="18" height="18" viewBox="0 0 18 18" fill="none" xmlns="http://www.w3.org/2000/svg">
<path fill-rule="evenodd" clip-rule="evenodd" d="M15.0635 12.6992C15.3972 9.49168 15.3972 6.25818 15.0635 3.05065C14.9445 1.90687 13.6257 1.32748 12.7028 2.01352L9.62505 4.30133C8.68721 4.99846 7.54974 5.37492 6.38118 5.37492H3.50928C2.99151 5.37492 2.57178 5.79465 2.57178 6.31242V9.43742C2.57178 9.95519 2.99151 10.3749 3.50928 10.3749H3.97749L3.34347 12.7411C3.27282 13.0048 3.40167 13.2811 3.64907 13.3965L6.40993 14.6839C6.56063 14.7542 6.73469 14.7542 6.88538 14.6839C7.03607 14.6137 7.14796 14.4803 7.19099 14.3197L8.13801 10.7854C8.14807 10.7479 8.15409 10.7102 8.15632 10.6728C8.67943 10.8535 9.17521 11.1141 9.62505 11.4485L12.7028 13.7363C13.6257 14.4224 14.9445 13.843 15.0635 12.6992ZM13.9445 3.16708C14.2702 6.29719 14.2702 9.45266 13.9445 12.5828C13.9157 12.8592 13.597 12.9993 13.3739 12.8335L10.2962 10.5456C9.16432 9.70427 7.79151 9.24992 6.38117 9.24992L3.69678 9.24992L3.69678 6.49992H6.38118C7.79151 6.49992 9.16432 6.04558 10.2962 5.20421L13.3739 2.9164C13.597 2.75058 13.9157 2.89062 13.9445 3.16708ZM7.07699 10.4196C6.84719 10.39 6.6148 10.3749 6.38117 10.3749H5.14217L4.55229 12.5764L6.27783 13.381L7.05135 10.4942C7.05826 10.4684 7.06686 10.4435 7.07699 10.4196Z" fill="white"/>
</svg>
