<svg width="18" height="18" viewBox="0 0 18 18" fill="none" xmlns="http://www.w3.org/2000/svg">
<path d="M4.5 7.875C3.87868 7.875 3.375 8.37868 3.375 9C3.375 9.62132 3.87868 10.125 4.5 10.125C5.12132 10.125 5.625 9.62132 5.625 9C5.625 8.37868 5.12132 7.875 4.5 7.875Z" fill="white"/>
<path d="M7.875 9C7.875 8.37868 8.37868 7.875 9 7.875C9.62132 7.875 10.125 8.37868 10.125 9C10.125 9.62132 9.62132 10.125 9 10.125C8.37868 10.125 7.875 9.62132 7.875 9Z" fill="white"/>
<path d="M12.375 9C12.375 8.37868 12.8787 7.875 13.5 7.875C14.1213 7.875 14.625 8.37868 14.625 9C14.625 9.62132 14.1213 10.125 13.5 10.125C12.8787 10.125 12.375 9.62132 12.375 9Z" fill="white"/>
</svg>
