<svg width="18" height="18" viewBox="0 0 18 18" fill="none" xmlns="http://www.w3.org/2000/svg">
<path fill-rule="evenodd" clip-rule="evenodd" d="M14.106 3.71786C13.1054 3.40915 12.0201 3.40915 11.0196 3.71786C10.681 7.2311 10.681 10.7688 11.0196 14.282C12.0201 14.5907 13.1054 14.5907 14.106 14.282C14.4446 10.7688 14.4446 7.2311 14.106 3.71786ZM15.2182 3.53149C15.5739 7.16844 15.5739 10.8314 15.2182 14.4684C15.179 14.8693 14.9043 15.2062 14.5249 15.3294C13.2551 15.7416 11.8705 15.7416 10.6006 15.3294C10.2213 15.2062 9.94659 14.8693 9.90738 14.4684C9.55171 10.8314 9.55171 7.16844 9.90738 3.53149C9.94659 3.13058 10.2213 2.79362 10.6006 2.67049C11.8705 2.25828 13.2551 2.25828 14.5249 2.67049C14.9043 2.79362 15.179 3.13058 15.2182 3.53149Z" fill="white"/>
<path fill-rule="evenodd" clip-rule="evenodd" d="M6.98099 3.71786C5.98042 3.40915 4.89514 3.40915 3.89458 3.71786C3.55598 7.23109 3.55598 10.7688 3.89457 14.282C4.89514 14.5907 5.98042 14.5907 6.98099 14.282C7.31959 10.7688 7.31959 7.2311 6.98099 3.71786ZM8.09318 3.53149C8.44886 7.16844 8.44886 10.8314 8.09318 14.4684C8.05398 14.8693 7.77926 15.2062 7.39993 15.3294C6.13011 15.7416 4.74545 15.7416 3.47563 15.3294C3.0963 15.2062 2.82159 14.8693 2.78238 14.4684C2.42671 10.8314 2.42671 7.16844 2.78238 3.53149C2.82159 3.13058 3.0963 2.79362 3.47563 2.67049C4.74545 2.25828 6.13011 2.25828 7.39993 2.67049C7.77926 2.79362 8.05398 3.13058 8.09318 3.53149Z" fill="white"/>
</svg>
