<svg width="18" height="18" viewBox="0 0 18 18" fill="none" xmlns="http://www.w3.org/2000/svg">
<path d="M7.5 9.9376C7.81066 9.9376 8.0625 10.1894 8.0625 10.5001V12.0001C8.0625 12.3108 7.81066 12.5626 7.5 12.5626C7.18934 12.5626 6.9375 12.3108 6.9375 12.0001V10.5001C6.9375 10.1894 7.18934 9.9376 7.5 9.9376Z" fill="white"/>
<path d="M11.0625 10.5001C11.0625 10.1894 10.8107 9.9376 10.5 9.9376C10.1893 9.9376 9.9375 10.1894 9.9375 10.5001V12.0001C9.9375 12.3108 10.1893 12.5626 10.5 12.5626C10.8107 12.5626 11.0625 12.3108 11.0625 12.0001V10.5001Z" fill="white"/>
<path fill-rule="evenodd" clip-rule="evenodd" d="M7.23714 2.53134C7.39247 2.2623 7.30029 1.91828 7.03125 1.76295C6.76221 1.60762 6.41819 1.6998 6.26286 1.96884L4.76286 4.56692C4.74039 4.60584 4.7231 4.64633 4.71077 4.6876H4.5C3.36091 4.6876 2.4375 5.61101 2.4375 6.7501C2.4375 7.39444 2.73297 7.96978 3.19582 8.34799L3.69603 11.7865L4.03108 13.3564C4.23183 14.297 4.99968 15.0114 5.95227 15.144C7.97435 15.4253 10.0257 15.4253 12.0477 15.144C13.0003 15.0114 13.7682 14.297 13.9689 13.3564L14.304 11.7865L14.8042 8.34799C15.267 7.96978 15.5625 7.39444 15.5625 6.7501C15.5625 5.61101 14.6391 4.6876 13.5 4.6876H13.2892C13.2769 4.64633 13.2596 4.60584 13.2371 4.56692L11.7371 1.96884C11.5818 1.6998 11.2378 1.60762 10.9688 1.76295C10.6997 1.91828 10.6075 2.2623 10.7629 2.53134L12.0078 4.6876H5.99223L7.23714 2.53134ZM13.6001 8.81021C13.5669 8.81179 13.5336 8.8126 13.5 8.8126H4.5C4.46644 8.8126 4.43307 8.81179 4.3999 8.81021L4.80398 11.5879L5.1313 13.1216C5.23329 13.5994 5.62337 13.9624 6.10731 14.0297C8.02653 14.2967 9.97348 14.2967 11.8927 14.0297C12.3766 13.9624 12.7667 13.5994 12.8687 13.1216L13.196 11.5879L13.6001 8.81021ZM3.5625 6.7501C3.5625 6.23233 3.98223 5.8126 4.5 5.8126H13.5C14.0178 5.8126 14.4375 6.23233 14.4375 6.7501C14.4375 7.26786 14.0178 7.6876 13.5 7.6876H4.5C3.98223 7.6876 3.5625 7.26786 3.5625 6.7501Z" fill="white"/>
</svg>
