<svg width="18" height="18" viewBox="0 0 18 18" fill="none" xmlns="http://www.w3.org/2000/svg">
<path fill-rule="evenodd" clip-rule="evenodd" d="M12.5893 2.79394C11.9327 2.13736 10.8206 2.35153 10.4548 3.205L9.26037 5.99202C8.13606 5.77154 6.92475 6.09634 6.05257 6.96852L4.77 8.25109C4.55033 8.47076 4.55033 8.82691 4.77 9.04658L6.64148 10.9181L2.60225 14.9573C2.38258 15.177 2.38258 15.5331 2.60225 15.7528C2.82192 15.9725 3.17808 15.9725 3.39775 15.7528L7.43698 11.7136L9.30852 13.5851C9.41401 13.6906 9.55708 13.7499 9.70627 13.7499C9.85545 13.7499 9.99852 13.6906 10.104 13.5851L11.3866 12.3025C12.2588 11.4303 12.5836 10.219 12.3631 9.09472L15.1501 7.90028C16.0036 7.53451 16.2177 6.42241 15.5612 5.76583L12.5893 2.79394ZM11.4888 3.64816C11.5411 3.52623 11.7 3.49564 11.7938 3.58943L14.7657 6.56132C14.8595 6.65512 14.8289 6.81399 14.7069 6.86624L11.4704 8.25332C11.1972 8.37043 11.0622 8.67998 11.1624 8.95989C11.4707 9.82112 11.2791 10.819 10.5911 11.507L9.70627 12.3919L5.96324 8.64883L6.84807 7.76401C7.53612 7.07595 8.53398 6.88443 9.3952 7.19268C9.67511 7.29287 9.98466 7.15793 10.1018 6.88466L11.4888 3.64816Z" fill="white"/>
</svg>
