<svg width="18" height="18" viewBox="0 0 18 18" fill="none" xmlns="http://www.w3.org/2000/svg">
<path fill-rule="evenodd" clip-rule="evenodd" d="M16.0912 4.06181C16.2353 4.28015 16.2113 4.57686 16.0191 4.76907L9.12479 11.6634C9.05412 11.734 8.9659 11.7846 8.8692 11.8099L5.99788 12.5599C5.90423 12.5843 5.8077 12.5838 5.717 12.5607C5.62058 12.5362 5.53075 12.4861 5.45799 12.4134C5.31678 12.2721 5.26103 12.0667 5.31149 11.8734L6.06149 9.00213C6.08359 8.91752 6.12506 8.83396 6.18243 8.76841L13.1023 1.85225C13.1628 1.79168 13.2358 1.74635 13.3152 1.71872C13.3741 1.69824 13.4365 1.6875 13.5 1.6875C13.6492 1.6875 13.7923 1.74676 13.8978 1.85225L16.0191 3.97357C16.0465 4.00103 16.0706 4.03062 16.0912 4.06181ZM14.8258 4.37132L13.5 3.0455L7.11139 9.43412L6.64265 11.2287L8.43723 10.7599L14.8258 4.37132Z" fill="white"/>
<path d="M14.731 12.8702C14.9361 11.117 15.0013 9.35158 14.9268 7.59059C14.9232 7.50628 14.9549 7.42424 15.0146 7.36456L15.7521 6.62707C15.8427 6.53639 15.9977 6.59396 16.0062 6.72191C16.1449 8.81415 16.0923 10.9159 15.8484 13.0009C15.671 14.5178 14.4527 15.7066 12.9437 15.8752C10.3438 16.1658 7.65627 16.1658 5.05634 15.8752C3.5473 15.7066 2.32905 14.5178 2.15163 13.0009C1.84073 10.3427 1.84073 7.6573 2.15163 4.99907C2.32905 3.48217 3.5473 2.29342 5.05634 2.12476C7.02865 1.90432 9.05136 1.85111 11.048 1.96512C11.1767 1.97247 11.2353 2.12818 11.1442 2.21932L10.3998 2.96374C10.3408 3.02276 10.2598 3.05445 10.1764 3.05164C8.5066 2.99532 6.82543 3.05904 5.1813 3.2428C4.18372 3.35429 3.3846 4.1415 3.26902 5.12976C2.96827 7.70115 2.96827 10.2988 3.26902 12.8702C3.3846 13.8585 4.18372 14.6457 5.1813 14.7572C7.69819 15.0385 10.3019 15.0385 12.8188 14.7572C13.8163 14.6457 14.6154 13.8585 14.731 12.8702Z" fill="white"/>
</svg>
