<svg width="18" height="18" viewBox="0 0 18 18" fill="none" xmlns="http://www.w3.org/2000/svg">
<path fill-rule="evenodd" clip-rule="evenodd" d="M3.1875 3.75C3.1875 2.61091 4.11091 1.6875 5.25 1.6875H11.2401C11.6629 1.6875 12.0598 1.89118 12.3064 2.23466L14.5663 5.38309C14.7264 5.60616 14.8125 5.87383 14.8125 6.14842V14.25C14.8125 15.3891 13.8891 16.3125 12.75 16.3125H5.25C4.11091 16.3125 3.1875 15.3891 3.1875 14.25V3.75ZM5.25 2.8125C4.73223 2.8125 4.3125 3.23223 4.3125 3.75V14.25C4.3125 14.7678 4.73223 15.1875 5.25 15.1875H12.75C13.2678 15.1875 13.6875 14.7678 13.6875 14.25V6.67278H11.25C10.9393 6.67278 10.6875 6.42094 10.6875 6.11028V2.8125H5.25Z" fill="white"/>
</svg>
