<svg width="18" height="18" viewBox="0 0 18 18" fill="none" xmlns="http://www.w3.org/2000/svg">
<path d="M11.6251 8.99997C11.6251 8.37865 12.1288 7.87497 12.7501 7.87497C13.3714 7.87497 13.8751 8.37865 13.8751 8.99997C13.8751 9.62129 13.3714 10.125 12.7501 10.125C12.1288 10.125 11.6251 9.62129 11.6251 8.99997Z" fill="white"/>
<path fill-rule="evenodd" clip-rule="evenodd" d="M15.3311 5.00549C14.8378 3.84624 13.7477 3.01289 12.4506 2.87639L11.9617 2.82495C9.49244 2.56511 7.00189 2.58224 4.53646 2.87603L4.2125 2.91464C2.9609 3.06378 1.96922 4.04164 1.80251 5.29102C1.47403 7.75275 1.47403 10.2472 1.80251 12.7089C1.96922 13.9583 2.96091 14.9362 4.2125 15.0853L4.53646 15.1239C7.00189 15.4177 9.49244 15.4349 11.9617 15.175L12.4506 15.1236C13.7477 14.9871 14.8378 14.1537 15.3311 12.9945C16.1105 12.7624 16.7054 12.0867 16.8031 11.2518C16.978 9.75567 16.978 8.24429 16.8031 6.7482C16.7054 5.91328 16.1105 5.23755 15.3311 5.00549ZM11.8439 3.94377C9.45813 3.69271 7.05171 3.70926 4.66957 3.99313L4.34562 4.03173C3.60401 4.1201 3.0164 4.69951 2.91763 5.43981C2.60233 7.80279 2.60233 10.1972 2.91763 12.5602C3.0164 13.3004 3.60401 13.8799 4.34562 13.9682L4.66957 14.0068C7.05171 14.2907 9.45813 14.3073 11.8439 14.0562L12.3328 14.0047C12.9708 13.9376 13.5352 13.6232 13.9263 13.1564C12.7952 13.2224 11.649 13.1929 10.5314 13.068C9.57937 12.9616 8.80943 12.212 8.69712 11.2518C8.52214 9.75567 8.52214 8.24429 8.69712 6.7482C8.80943 5.788 9.57937 5.03835 10.5314 4.93195C11.649 4.80703 12.7952 4.77756 13.9263 4.84352C13.5352 4.37678 12.9708 4.06234 12.3328 3.99522L11.8439 3.94377ZM14.4581 6.011C14.4586 6.01388 14.459 6.01676 14.4595 6.01964L14.464 6.0488L14.613 6.02567C14.6901 6.0333 14.767 6.0414 14.8438 6.04999C15.2844 6.09923 15.6352 6.44733 15.6857 6.87889C15.8505 8.28815 15.8505 9.71181 15.6857 11.1211C15.6352 11.5526 15.2844 11.9007 14.8438 11.95C14.767 11.9586 14.6901 11.9667 14.613 11.9743L14.464 11.9512L14.4595 11.9803C14.459 11.9832 14.4586 11.9861 14.4581 11.989C13.1991 12.1029 11.908 12.0899 10.6563 11.95C10.2158 11.9007 9.86498 11.5526 9.81451 11.1211C9.64968 9.71181 9.64968 8.28815 9.81451 6.87889C9.86498 6.44733 10.2158 6.09923 10.6563 6.04999C11.908 5.9101 13.1991 5.8971 14.4581 6.011Z" fill="white"/>
</svg>
