<svg width="18" height="18" viewBox="0 0 18 18" fill="none" xmlns="http://www.w3.org/2000/svg">
<path fill-rule="evenodd" clip-rule="evenodd" d="M10.7886 11.584C8.80085 13.176 5.89128 13.0507 4.04869 11.2081C2.07166 9.23112 2.07166 6.02572 4.04869 4.04869C6.02572 2.07166 9.23112 2.07166 11.2081 4.04869C13.0507 5.89128 13.176 8.80085 11.584 10.7885L15.4508 14.6553C15.6704 14.8749 15.6704 15.2311 15.4508 15.4508C15.2311 15.6704 14.8749 15.6704 14.6553 15.4508L10.7886 11.584ZM4.84418 10.4127C3.3065 8.87496 3.3065 6.38187 4.84418 4.84419C6.38187 3.3065 8.87496 3.3065 10.4127 4.84419C11.9492 6.38075 11.9503 8.8713 10.416 10.4093C10.4149 10.4104 10.4138 10.4115 10.4126 10.4126C10.4115 10.4138 10.4104 10.4149 10.4093 10.416C8.87131 11.9503 6.38075 11.9492 4.84418 10.4127Z" fill="white"/>
</svg>
