<svg width="18" height="18" viewBox="0 0 18 18" fill="none" xmlns="http://www.w3.org/2000/svg">
<path fill-rule="evenodd" clip-rule="evenodd" d="M14.8546 4.02786C15.3552 4.38907 15.7086 4.94302 15.8054 5.58691C15.8393 5.81254 15.8699 6.03856 15.897 6.26488C16.1071 8.21706 16.0977 10.4684 15.8054 12.4127C15.6436 13.4885 14.7656 14.3132 13.6818 14.4074L12.5491 14.5059C10.1873 14.7112 7.8122 14.7112 5.45041 14.5059L4.31774 14.4074C3.23394 14.3132 2.35593 13.4885 2.19416 12.4127C1.90179 10.4684 1.89243 8.21694 2.10253 6.26476C2.12969 6.03848 2.16024 5.8125 2.19416 5.58691C2.29085 4.94391 2.64341 4.3906 3.14284 4.02936L3.14227 4.02431L3.17771 4.00462C3.30709 3.91456 3.4459 3.83721 3.59232 3.77428L6.90428 1.9343C8.20675 1.2107 9.79048 1.2107 11.093 1.9343L14.3973 3.77003C14.5507 3.83515 14.6959 3.91607 14.8307 4.01083L14.855 4.02434L14.8546 4.02786ZM14.2239 4.96068L10.5466 2.91772C9.58391 2.38289 8.41333 2.38289 7.45063 2.91773L3.78188 4.95592C3.53177 5.14463 3.35583 5.4272 3.30665 5.7542C3.29788 5.81253 3.28935 5.87088 3.28105 5.92926L7.45176 8.24632C8.41445 8.78115 9.58503 8.78115 10.5477 8.24632L14.7185 5.92923C14.7102 5.87086 14.7017 5.81252 14.6929 5.7542C14.6441 5.42993 14.4707 5.14937 14.2239 4.96068ZM14.7789 11.6102C14.9577 10.126 14.9834 8.62793 14.8561 7.13972L11.0941 9.22974C9.79161 9.95334 8.20788 9.95335 6.90541 9.22975L3.14339 7.13974C3.0161 8.62795 3.04185 10.126 3.22065 11.6102C3.24619 11.8222 3.27486 12.034 3.30665 12.2454C3.32465 12.3651 3.35963 12.4788 3.40901 12.5842C3.59134 12.9731 3.96999 13.2479 4.41516 13.2866L5.54784 13.3851C7.84479 13.5848 10.1547 13.5848 12.4517 13.3851L13.5844 13.2866C13.938 13.2559 14.2496 13.0762 14.4542 12.8087C14.577 12.6481 14.6612 12.456 14.6929 12.2454C14.7247 12.034 14.7533 11.8222 14.7789 11.6102Z" fill="white"/>
</svg>
