<svg width="18" height="18" viewBox="0 0 18 18" fill="none" xmlns="http://www.w3.org/2000/svg">
<path fill-rule="evenodd" clip-rule="evenodd" d="M7.86498 3.0859C8.3708 2.2142 9.62962 2.21421 10.1354 3.0859L11.6844 5.75542C11.8272 6.00149 12.074 6.16941 12.3553 6.21189L14.9275 6.6004C16.0488 6.76975 16.4421 8.18542 15.5689 8.90887L13.6947 10.4616C13.4317 10.6795 13.308 11.0233 13.3719 11.3589L13.8969 14.1159C14.1025 15.1958 12.9688 16.0349 11.996 15.5227L9.43699 14.1753C9.1636 14.0314 8.83682 14.0314 8.56342 14.1753L6.0044 15.5227C5.03164 16.0349 3.89792 15.1958 4.10357 14.1159L4.62855 11.3589C4.69246 11.0233 4.56877 10.6795 4.30571 10.4616L2.43153 8.90887C1.55832 8.18542 1.95162 6.76975 3.07287 6.6004L5.6451 6.21189C5.9264 6.16941 6.17319 6.00149 6.31597 5.75542L7.86498 3.0859ZM9.16238 3.65053C9.09012 3.526 8.91029 3.526 8.83803 3.65052L7.28902 6.32005C6.9749 6.86138 6.43197 7.2308 5.81312 7.32428L3.24088 7.71278C3.0807 7.73697 3.02452 7.93921 3.14926 8.04256L5.02344 9.5953C5.60216 10.0748 5.87428 10.8311 5.7337 11.5693L5.20871 14.3263C5.17933 14.4806 5.34129 14.6005 5.48026 14.5273L8.03928 13.1799C8.64076 12.8632 9.35966 12.8632 9.96113 13.1799L12.5202 14.5273C12.6591 14.6005 12.8211 14.4806 12.7917 14.3263L12.2667 11.5693C12.1261 10.8311 12.3983 10.0748 12.977 9.5953L14.8512 8.04256C14.9759 7.93921 14.9197 7.73697 14.7595 7.71278L12.1873 7.32428C11.5684 7.2308 11.0255 6.86138 10.7114 6.32005L9.16238 3.65053Z" fill="white"/>
</svg>
