<svg width="18" height="18" viewBox="0 0 18 18" fill="none" xmlns="http://www.w3.org/2000/svg">
<path fill-rule="evenodd" clip-rule="evenodd" d="M11.2661 2.50798C11.6474 2.44267 12.0744 2.42086 12.4762 2.48884C13.1939 2.61025 13.8568 2.9438 14.3808 3.44387C14.7233 3.45162 15.0599 3.38414 15.3578 3.28794C15.6098 3.20653 15.8228 3.10822 15.972 3.03049C16.0462 2.99185 16.1035 2.95888 16.1408 2.93656C16.1594 2.92542 16.1729 2.91698 16.1809 2.91189L16.188 2.90734C16.4106 2.75905 16.7071 2.78791 16.8967 2.97654C17.0864 3.16521 17.117 3.4614 16.9698 3.68483C16.814 3.9213 16.5977 4.34285 16.3554 4.81517C16.3173 4.88944 16.2786 4.96496 16.2394 5.04121C16.1004 5.31118 15.9579 5.58404 15.8251 5.81814C15.7417 5.96513 15.6525 6.11436 15.5626 6.24332V6.44865C15.5683 7.20287 15.4818 7.95316 15.3062 8.68307C15.1957 9.14233 15.05 9.59352 14.8699 10.0326C14.403 11.1701 13.7142 12.2031 12.8437 13.0715C11.9732 13.9398 10.9383 14.6259 9.79962 15.0898C8.66194 15.5533 7.44338 15.7856 6.21499 15.7733C4.43426 15.7749 2.69098 15.2618 1.19494 14.2959C0.974591 14.1536 0.881816 13.8779 0.971319 13.6314C1.06082 13.3848 1.30884 13.2329 1.56915 13.2651C1.79442 13.293 2.02122 13.3066 2.24821 13.3058C3.0638 13.3035 3.86385 13.1233 4.59425 12.7838C4.36209 12.6782 4.14044 12.5479 3.93332 12.3943C3.32453 11.9428 2.8716 11.3129 2.63755 10.592C2.57673 10.4047 2.61831 10.1992 2.74717 10.0503C2.74948 10.0476 2.75181 10.045 2.75416 10.0424C2.61651 9.91962 2.48772 9.78598 2.36915 9.64226C1.83566 8.99561 1.5419 8.18453 1.53756 7.34623L1.53755 7.34332L1.53756 7.30582C1.53756 7.10642 1.64312 6.92193 1.81502 6.82089C1.8586 6.79527 1.90479 6.77599 1.9523 6.76306C1.69855 6.25675 1.56659 5.69767 1.56756 5.13047C1.56726 4.4879 1.7351 3.85642 2.05443 3.2988C2.14661 3.13782 2.31223 3.03264 2.49713 3.01766C2.68202 3.00268 2.86242 3.07982 2.97932 3.22385C3.70123 4.11336 4.6022 4.84105 5.62369 5.35965C6.14879 5.62625 6.6997 5.83452 7.26655 5.98184C7.58435 6.06444 7.90716 6.12788 8.23324 6.1717C8.21888 5.62926 8.32599 5.08711 8.55079 4.58616C8.88055 3.85129 9.4449 3.24666 10.1553 2.86709C10.4562 2.70634 10.8556 2.57831 11.2661 2.50798ZM2.80751 8.1686C2.90475 8.44227 3.0494 8.69901 3.23694 8.92633C3.60543 9.37299 4.11689 9.67866 4.6848 9.79163C4.93777 9.84195 5.1241 10.0579 5.13687 10.3155C5.14964 10.5731 4.98557 10.8064 4.73882 10.8815C4.53445 10.9436 4.32507 10.987 4.1133 11.0111C4.25324 11.1914 4.41785 11.353 4.6034 11.4906C5.02429 11.8027 5.532 11.9758 6.05588 11.9859C6.29357 11.9905 6.50272 12.144 6.57834 12.3694C6.65396 12.5948 6.57972 12.8434 6.39289 12.9904C5.60602 13.6095 4.69612 14.0413 3.73195 14.2617C4.53107 14.5176 5.36915 14.6494 6.21687 14.6483L6.2234 14.6483C7.30344 14.6595 8.37489 14.4555 9.37517 14.048C10.3754 13.6404 11.2845 13.0377 12.0492 12.2749C12.8139 11.5122 13.419 10.6047 13.8291 9.60544C13.9874 9.21977 14.1154 8.82343 14.2124 8.41999C14.3668 7.77817 14.4428 7.11842 14.4376 6.45522L14.4376 6.45082V6.05332C14.4376 5.91693 14.4871 5.78519 14.577 5.68261C14.6289 5.62333 14.7198 5.48641 14.8466 5.26298C14.9671 5.05064 15.1004 4.79571 15.2391 4.52632C15.2475 4.51003 15.2559 4.49365 15.2644 4.4772C14.9047 4.55531 14.497 4.59625 14.0696 4.55007C13.9343 4.53544 13.8088 4.47222 13.7165 4.37214C13.3394 3.96314 12.8371 3.69088 12.2886 3.59808C12.0452 3.5569 11.7509 3.56633 11.4561 3.61683C11.1358 3.6717 10.857 3.76771 10.6855 3.85934C10.1948 4.12152 9.80496 4.53915 9.57718 5.04674C9.34941 5.55433 9.29655 6.12316 9.4269 6.66403C9.46846 6.83647 9.42625 7.0184 9.31301 7.15492C9.19978 7.29145 9.02879 7.36656 8.85164 7.3576C8.21908 7.32561 7.59322 7.22912 6.98356 7.07067C6.33864 6.90305 5.71184 6.66609 5.11441 6.36278C4.23482 5.91622 3.43378 5.3334 2.74015 4.63763C2.70851 4.79934 2.69245 4.96436 2.69256 5.13045L2.69256 5.13189C2.69177 5.54493 2.79313 5.95175 2.98762 6.31614C3.1821 6.68053 3.46367 6.99117 3.80725 7.22041C4.01577 7.35953 4.10706 7.61984 4.03112 7.85873C3.95518 8.09762 3.73033 8.25743 3.47976 8.25061C3.25281 8.24444 3.02776 8.21684 2.80751 8.1686Z" fill="white"/>
</svg>
