<svg width="18" height="18" viewBox="0 0 18 18" fill="none" xmlns="http://www.w3.org/2000/svg">
<path d="M8.27275 6.39775C8.49242 6.17808 8.49242 5.82192 8.27275 5.60225C8.05308 5.38258 7.69692 5.38258 7.47725 5.60225L4.47725 8.60225C4.36742 8.71209 4.3125 8.85604 4.3125 9C4.3125 9.07627 4.32768 9.14899 4.35518 9.21532C4.38263 9.28166 4.42332 9.34382 4.47725 9.39775L7.47725 12.3977C7.69692 12.6174 8.05308 12.6174 8.27275 12.3977C8.49242 12.1781 8.49242 11.8219 8.27275 11.6023L6.233 9.5625H13.5C13.8107 9.5625 14.0625 9.31066 14.0625 9C14.0625 8.68934 13.8107 8.4375 13.5 8.4375H6.233L8.27275 6.39775Z" fill="white"/>
</svg>
