<svg width="18" height="18" viewBox="0 0 18 18" fill="none" xmlns="http://www.w3.org/2000/svg">
<path d="M10.125 7.31265C10.125 7.00199 9.87316 6.75015 9.5625 6.75015H5.0625C4.75184 6.75015 4.5 7.00199 4.5 7.31265C4.5 7.62331 4.75184 7.87515 5.0625 7.87515H9.5625C9.87316 7.87515 10.125 7.62331 10.125 7.31265Z" fill="white"/>
<path d="M9.375 9.56265C9.375 9.25199 9.12316 9.00015 8.8125 9.00015H5.0625C4.75184 9.00015 4.5 9.25199 4.5 9.56265C4.5 9.87331 4.75184 10.1251 5.0625 10.1251H8.8125C9.12316 10.1251 9.375 9.87331 9.375 9.56265Z" fill="white"/>
<path d="M9.5625 11.2501C9.87316 11.2501 10.125 11.502 10.125 11.8126C10.125 12.1233 9.87316 12.3751 9.5625 12.3751H5.0625C4.75184 12.3751 4.5 12.1233 4.5 11.8126C4.5 11.502 4.75184 11.2501 5.0625 11.2501H9.5625Z" fill="white"/>
<path fill-rule="evenodd" clip-rule="evenodd" d="M4.5 16.3127H14.25C15.3891 16.3127 16.3125 15.3892 16.3125 14.2502V10.1252C16.3125 9.81449 16.0607 9.56265 15.75 9.56265H13.3125V3.70755C13.3125 2.63999 12.1058 2.01902 11.2371 2.63952L11.1058 2.7333C10.5205 3.15142 9.72756 3.15001 9.13945 2.72993C8.16155 2.03143 6.83845 2.03143 5.86055 2.72993C5.27244 3.15001 4.47953 3.15142 3.89416 2.7333L3.76288 2.63952C2.89417 2.01902 1.6875 2.64 1.6875 3.70755V13.5002C1.6875 15.0535 2.9467 16.3127 4.5 16.3127ZM6.51445 3.64538C7.10119 3.22628 7.89881 3.22628 8.48555 3.64538C9.46208 4.3429 10.7805 4.34823 11.7597 3.64875L11.891 3.55497C12.0151 3.46633 12.1875 3.55504 12.1875 3.70755V14.2502C12.1875 14.5877 12.2686 14.9064 12.4124 15.1877H4.5C3.56802 15.1877 2.8125 14.4321 2.8125 13.5002V3.70755C2.8125 3.55504 2.98488 3.46633 3.10898 3.55497L3.24027 3.64875C4.21954 4.34823 5.53792 4.3429 6.51445 3.64538ZM13.3125 14.2502V10.6877H15.1875V14.2502C15.1875 14.7679 14.7678 15.1877 14.25 15.1877C13.7322 15.1877 13.3125 14.7679 13.3125 14.2502Z" fill="white"/>
</svg>
