<svg width="18" height="18" viewBox="0 0 18 18" fill="none" xmlns="http://www.w3.org/2000/svg">
<path fill-rule="evenodd" clip-rule="evenodd" d="M4.54996 2.9055C4.02295 2.8466 3.47695 2.8466 2.94994 2.9055C2.94015 2.9066 2.93047 2.91103 2.92251 2.91887C2.91474 2.92654 2.9117 2.93428 2.91093 2.94086C2.84805 3.47851 2.84805 4.02166 2.91093 4.55932C2.9117 4.56589 2.91474 4.57364 2.92251 4.5813C2.93047 4.58915 2.94015 4.59358 2.94994 4.59467C3.47695 4.65357 4.02295 4.65357 4.54996 4.59467C4.55975 4.59358 4.56943 4.58915 4.57739 4.5813C4.58517 4.57364 4.5882 4.56589 4.58897 4.55932C4.65185 4.02166 4.65185 3.47851 4.58897 2.94086C4.5882 2.93428 4.58517 2.92654 4.57739 2.91887C4.56944 2.91103 4.55975 2.9066 4.54996 2.9055ZM2.82498 1.78747C3.43504 1.71928 4.06486 1.71928 4.67492 1.78747C5.20916 1.84718 5.64288 2.2675 5.70635 2.81017C5.77939 3.43465 5.77939 4.06552 5.70635 4.69001C5.64288 5.23268 5.20916 5.653 4.67492 5.71271C4.06486 5.7809 3.43504 5.7809 2.82498 5.71271C2.29074 5.653 1.85702 5.23268 1.79355 4.69001C1.72051 4.06552 1.72051 3.43465 1.79355 2.81017C1.85702 2.2675 2.29074 1.84718 2.82498 1.78747Z" fill="white"/>
<path fill-rule="evenodd" clip-rule="evenodd" d="M9.79996 2.9055C9.27295 2.8466 8.72695 2.8466 8.19994 2.9055C8.19015 2.9066 8.18047 2.91103 8.17251 2.91887C8.16473 2.92654 8.1617 2.93428 8.16093 2.94086C8.09805 3.47851 8.09805 4.02166 8.16093 4.55932C8.1617 4.56589 8.16473 4.57364 8.17251 4.5813C8.18047 4.58915 8.19015 4.59358 8.19994 4.59467C8.72695 4.65357 9.27295 4.65357 9.79996 4.59467C9.80975 4.59358 9.81944 4.58915 9.82739 4.5813C9.83517 4.57364 9.8382 4.56589 9.83897 4.55932C9.90185 4.02166 9.90185 3.47851 9.83897 2.94086C9.8382 2.93428 9.83517 2.92654 9.82739 2.91887C9.81944 2.91103 9.80975 2.9066 9.79996 2.9055ZM8.07498 1.78747C8.68504 1.71928 9.31486 1.71928 9.92492 1.78747C10.4592 1.84718 10.8929 2.2675 10.9564 2.81017C11.0294 3.43465 11.0294 4.06552 10.9564 4.69001C10.8929 5.23268 10.4592 5.653 9.92492 5.71271C9.31486 5.7809 8.68504 5.7809 8.07498 5.71271C7.54074 5.653 7.10702 5.23268 7.04355 4.69001C6.97051 4.06552 6.97051 3.43465 7.04355 2.81017C7.10702 2.2675 7.54074 1.84718 8.07498 1.78747Z" fill="white"/>
<path fill-rule="evenodd" clip-rule="evenodd" d="M15.05 2.9055C14.5229 2.8466 13.977 2.8466 13.4499 2.9055C13.4402 2.9066 13.4305 2.91103 13.4225 2.91887C13.4147 2.92654 13.4117 2.93428 13.4109 2.94086C13.348 3.47851 13.348 4.02166 13.4109 4.55932C13.4117 4.56589 13.4147 4.57364 13.4225 4.5813C13.4305 4.58915 13.4402 4.59358 13.4499 4.59467C13.977 4.65357 14.5229 4.65357 15.05 4.59467C15.0598 4.59358 15.0694 4.58915 15.0774 4.5813C15.0852 4.57364 15.0882 4.56589 15.089 4.55932C15.1519 4.02166 15.1519 3.47851 15.089 2.94086C15.0882 2.93428 15.0852 2.92654 15.0774 2.91887C15.0694 2.91103 15.0598 2.9066 15.05 2.9055ZM13.325 1.78747C13.935 1.71928 14.5649 1.71928 15.1749 1.78747C15.7092 1.84718 16.1429 2.2675 16.2064 2.81017C16.2794 3.43465 16.2794 4.06552 16.2064 4.69001C16.1429 5.23268 15.7092 5.653 15.1749 5.71271C14.5649 5.7809 13.935 5.7809 13.325 5.71271C12.7907 5.653 12.357 5.23268 12.2935 4.69001C12.2205 4.06552 12.2205 3.43465 12.2935 2.81017C12.357 2.2675 12.7907 1.84718 13.325 1.78747Z" fill="white"/>
<path fill-rule="evenodd" clip-rule="evenodd" d="M4.54996 8.1555C4.02295 8.0966 3.47695 8.0966 2.94994 8.1555C2.94015 8.1566 2.93047 8.16103 2.92251 8.16887C2.91474 8.17654 2.9117 8.18428 2.91093 8.19086C2.84805 8.72851 2.84805 9.27166 2.91093 9.80932C2.9117 9.81589 2.91474 9.82364 2.92251 9.8313C2.93047 9.83915 2.94015 9.84358 2.94994 9.84467C3.47695 9.90357 4.02295 9.90357 4.54996 9.84467C4.55975 9.84358 4.56943 9.83915 4.57739 9.8313C4.58517 9.82364 4.5882 9.81589 4.58897 9.80932C4.65185 9.27166 4.65185 8.72851 4.58897 8.19086C4.5882 8.18428 4.58517 8.17654 4.57739 8.16887C4.56944 8.16103 4.55975 8.1566 4.54996 8.1555ZM2.82498 7.03747C3.43504 6.96928 4.06486 6.96928 4.67492 7.03747C5.20916 7.09717 5.64288 7.5175 5.70635 8.06017C5.77939 8.68465 5.77939 9.31552 5.70635 9.94001C5.64288 10.4827 5.20916 10.903 4.67492 10.9627C4.06486 11.0309 3.43504 11.0309 2.82498 10.9627C2.29074 10.903 1.85702 10.4827 1.79355 9.94001C1.72051 9.31552 1.72051 8.68465 1.79355 8.06017C1.85702 7.5175 2.29074 7.09717 2.82498 7.03747Z" fill="white"/>
<path fill-rule="evenodd" clip-rule="evenodd" d="M9.79996 8.1555C9.27295 8.0966 8.72695 8.0966 8.19994 8.1555C8.19015 8.1566 8.18047 8.16103 8.17251 8.16887C8.16473 8.17654 8.1617 8.18428 8.16093 8.19086C8.09805 8.72851 8.09805 9.27166 8.16093 9.80932C8.1617 9.81589 8.16473 9.82364 8.17251 9.8313C8.18047 9.83915 8.19015 9.84358 8.19994 9.84467C8.72695 9.90357 9.27295 9.90357 9.79996 9.84467C9.80975 9.84358 9.81944 9.83915 9.82739 9.8313C9.83517 9.82364 9.8382 9.81589 9.83897 9.80932C9.90185 9.27166 9.90185 8.72851 9.83897 8.19086C9.8382 8.18428 9.83517 8.17654 9.82739 8.16887C9.81944 8.16103 9.80975 8.1566 9.79996 8.1555ZM8.07498 7.03747C8.68504 6.96928 9.31486 6.96928 9.92492 7.03747C10.4592 7.09717 10.8929 7.5175 10.9564 8.06017C11.0294 8.68465 11.0294 9.31552 10.9564 9.94001C10.8929 10.4827 10.4592 10.903 9.92492 10.9627C9.31486 11.0309 8.68504 11.0309 8.07498 10.9627C7.54074 10.903 7.10702 10.4827 7.04355 9.94001C6.97051 9.31552 6.97051 8.68465 7.04355 8.06017C7.10702 7.5175 7.54074 7.09717 8.07498 7.03747Z" fill="white"/>
<path fill-rule="evenodd" clip-rule="evenodd" d="M15.05 8.1555C14.5229 8.0966 13.977 8.0966 13.4499 8.1555C13.4402 8.1566 13.4305 8.16103 13.4225 8.16887C13.4147 8.17654 13.4117 8.18428 13.4109 8.19086C13.348 8.72851 13.348 9.27166 13.4109 9.80932C13.4117 9.81589 13.4147 9.82364 13.4225 9.8313C13.4305 9.83915 13.4402 9.84358 13.4499 9.84467C13.977 9.90357 14.5229 9.90357 15.05 9.84467C15.0598 9.84358 15.0694 9.83915 15.0774 9.8313C15.0852 9.82364 15.0882 9.81589 15.089 9.80932C15.1519 9.27166 15.1519 8.72851 15.089 8.19086C15.0882 8.18428 15.0852 8.17654 15.0774 8.16887C15.0694 8.16103 15.0598 8.1566 15.05 8.1555ZM13.325 7.03747C13.935 6.96928 14.5649 6.96928 15.1749 7.03747C15.7092 7.09717 16.1429 7.5175 16.2064 8.06017C16.2794 8.68465 16.2794 9.31552 16.2064 9.94001C16.1429 10.4827 15.7092 10.903 15.1749 10.9627C14.5649 11.0309 13.935 11.0309 13.325 10.9627C12.7907 10.903 12.357 10.4827 12.2935 9.94001C12.2205 9.31552 12.2205 8.68465 12.2935 8.06017C12.357 7.5175 12.7907 7.09717 13.325 7.03747Z" fill="white"/>
<path fill-rule="evenodd" clip-rule="evenodd" d="M4.54996 13.4055C4.02295 13.3466 3.47695 13.3466 2.94994 13.4055C2.94015 13.4066 2.93047 13.411 2.92251 13.4189C2.91474 13.4265 2.9117 13.4343 2.91093 13.4409C2.84805 13.9785 2.84805 14.5217 2.91093 15.0593C2.9117 15.0659 2.91474 15.0736 2.92251 15.0813C2.93047 15.0891 2.94015 15.0936 2.94994 15.0947C3.47695 15.1536 4.02295 15.1536 4.54996 15.0947C4.55975 15.0936 4.56943 15.0891 4.57739 15.0813C4.58517 15.0736 4.5882 15.0659 4.58897 15.0593C4.65185 14.5217 4.65185 13.9785 4.58897 13.4409C4.5882 13.4343 4.58517 13.4265 4.57739 13.4189C4.56944 13.411 4.55975 13.4066 4.54996 13.4055ZM2.82498 12.2875C3.43504 12.2193 4.06486 12.2193 4.67492 12.2875C5.20916 12.3472 5.64288 12.7675 5.70635 13.3102C5.77939 13.9347 5.77939 14.5655 5.70635 15.19C5.64288 15.7327 5.20916 16.153 4.67492 16.2127C4.06486 16.2809 3.43504 16.2809 2.82498 16.2127C2.29074 16.153 1.85702 15.7327 1.79355 15.19C1.72051 14.5655 1.72051 13.9347 1.79355 13.3102C1.85702 12.7675 2.29074 12.3472 2.82498 12.2875Z" fill="white"/>
<path fill-rule="evenodd" clip-rule="evenodd" d="M9.79996 13.4055C9.27295 13.3466 8.72695 13.3466 8.19994 13.4055C8.19015 13.4066 8.18047 13.411 8.17251 13.4189C8.16473 13.4265 8.1617 13.4343 8.16093 13.4409C8.09805 13.9785 8.09805 14.5217 8.16093 15.0593C8.1617 15.0659 8.16473 15.0736 8.17251 15.0813C8.18047 15.0891 8.19015 15.0936 8.19994 15.0947C8.72695 15.1536 9.27295 15.1536 9.79996 15.0947C9.80975 15.0936 9.81944 15.0891 9.82739 15.0813C9.83517 15.0736 9.8382 15.0659 9.83897 15.0593C9.90185 14.5217 9.90185 13.9785 9.83897 13.4409C9.8382 13.4343 9.83517 13.4265 9.82739 13.4189C9.81944 13.411 9.80975 13.4066 9.79996 13.4055ZM8.07498 12.2875C8.68504 12.2193 9.31486 12.2193 9.92492 12.2875C10.4592 12.3472 10.8929 12.7675 10.9564 13.3102C11.0294 13.9347 11.0294 14.5655 10.9564 15.19C10.8929 15.7327 10.4592 16.153 9.92492 16.2127C9.31486 16.2809 8.68504 16.2809 8.07498 16.2127C7.54074 16.153 7.10702 15.7327 7.04355 15.19C6.97051 14.5655 6.97051 13.9347 7.04355 13.3102C7.10702 12.7675 7.54074 12.3472 8.07498 12.2875Z" fill="white"/>
<path fill-rule="evenodd" clip-rule="evenodd" d="M15.05 13.4055C14.5229 13.3466 13.977 13.3466 13.4499 13.4055C13.4402 13.4066 13.4305 13.411 13.4225 13.4189C13.4147 13.4265 13.4117 13.4343 13.4109 13.4409C13.348 13.9785 13.348 14.5217 13.4109 15.0593C13.4117 15.0659 13.4147 15.0736 13.4225 15.0813C13.4305 15.0891 13.4402 15.0936 13.4499 15.0947C13.977 15.1536 14.5229 15.1536 15.05 15.0947C15.0598 15.0936 15.0694 15.0891 15.0774 15.0813C15.0852 15.0736 15.0882 15.0659 15.089 15.0593C15.1519 14.5217 15.1519 13.9785 15.089 13.4409C15.0882 13.4343 15.0852 13.4265 15.0774 13.4189C15.0694 13.411 15.0598 13.4066 15.05 13.4055ZM13.325 12.2875C13.935 12.2193 14.5649 12.2193 15.1749 12.2875C15.7092 12.3472 16.1429 12.7675 16.2064 13.3102C16.2794 13.9347 16.2794 14.5655 16.2064 15.19C16.1429 15.7327 15.7092 16.153 15.1749 16.2127C14.5649 16.2809 13.935 16.2809 13.325 16.2127C12.7907 16.153 12.357 15.7327 12.2935 15.19C12.2205 14.5655 12.2205 13.9347 12.2935 13.3102C12.357 12.7675 12.7907 12.3472 13.325 12.2875Z" fill="white"/>
</svg>
