<svg width="18" height="18" viewBox="0 0 18 18" fill="none" xmlns="http://www.w3.org/2000/svg">
<path d="M11.9999 11.625C13.3385 11.625 14.4583 10.6027 14.5979 9.2761C14.6172 9.09341 14.6172 8.9066 14.5979 8.7239C14.4583 7.39726 13.3385 6.375 11.9999 6.375C10.6613 6.375 9.54156 7.39726 9.40192 8.7239C9.38268 8.90659 9.38268 9.0934 9.40192 9.2761C9.54156 10.6027 10.6613 11.625 11.9999 11.625Z" fill="white"/>
<path fill-rule="evenodd" clip-rule="evenodd" d="M11.9442 14.0625H6.05566C3.56454 14.0625 1.44364 12.2502 1.05511 9.78956C0.972514 9.26643 0.972514 8.73357 1.05511 8.21044C1.44364 5.7498 3.56454 3.9375 6.05567 3.9375H11.9442C14.4353 3.9375 16.5562 5.7498 16.9447 8.21044C17.0273 8.73357 17.0273 9.26643 16.9447 9.78956C16.5562 12.2502 14.4353 14.0625 11.9442 14.0625ZM11.9442 12.9375C13.8817 12.9375 15.5313 11.5279 15.8335 9.6141C15.8977 9.20722 15.8977 8.79278 15.8335 8.3859C15.5313 6.47207 13.8817 5.0625 11.9442 5.0625L6.05567 5.0625C4.11813 5.0625 2.46853 6.47207 2.16635 8.3859C2.1021 8.79278 2.1021 9.20722 2.16635 9.6141C2.46853 11.5279 4.11812 12.9375 6.05566 12.9375H11.9442Z" fill="white"/>
</svg>
