<svg width="18" height="18" viewBox="0 0 18 18" fill="none" xmlns="http://www.w3.org/2000/svg">
<path fill-rule="evenodd" clip-rule="evenodd" d="M2.61685 4.67753C2.74121 3.6142 3.64214 2.8125 4.71272 2.8125H12.7697C12.9063 2.8125 13.0382 2.86219 13.1409 2.95231L15.2112 4.77015C15.6767 5.17883 15.9338 5.77506 15.9116 6.39407L15.6536 13.5741C15.6137 14.6836 14.7027 15.5625 13.5924 15.5625H4.5847C3.58748 15.5625 2.74558 14.8215 2.61895 13.8324C2.24658 10.9237 2.23054 7.9805 2.57118 5.06796L2.61685 4.67753ZM4.71272 3.9375C4.2129 3.9375 3.79229 4.31178 3.73423 4.80822L3.68857 5.19865C3.35855 8.02028 3.37409 10.8716 3.73484 13.6895C3.78959 14.1171 4.15357 14.4375 4.5847 14.4375H5.06252V11.25C5.06252 10.5251 5.65014 9.9375 6.37502 9.9375H11.625C12.3499 9.9375 12.9375 10.5251 12.9375 11.25V14.4375H13.5924C14.0971 14.4375 14.5112 14.038 14.5293 13.5337L14.7873 6.35367C14.7974 6.07231 14.6805 5.80129 14.4689 5.61553L12.5625 3.94162V5.69998C12.5625 6.42486 11.9749 7.01248 11.25 7.01248H6.75002C6.02514 7.01248 5.43752 6.42486 5.43752 5.69998V3.9375H4.71272ZM6.56252 3.9375V5.69998C6.56252 5.80353 6.64646 5.88748 6.75002 5.88748H11.25C11.3536 5.88748 11.4375 5.80353 11.4375 5.69998V3.9375H6.56252ZM11.8125 14.4375H6.18752V11.25C6.18752 11.1464 6.27146 11.0625 6.37502 11.0625H11.625C11.7286 11.0625 11.8125 11.1464 11.8125 11.25V14.4375Z" fill="white"/>
</svg>
