<svg width="18" height="18" viewBox="0 0 18 18" fill="none" xmlns="http://www.w3.org/2000/svg">
<path fill-rule="evenodd" clip-rule="evenodd" d="M8.56155 1.79636C8.84739 1.70851 9.15303 1.70851 9.43887 1.79636L11.6782 2.48461C12.8464 2.84367 13.9559 3.37156 14.9714 4.05156C15.7613 4.58045 15.3869 5.8125 14.4363 5.8125H3.56414C2.61356 5.8125 2.23916 4.58045 3.02902 4.05156C4.04455 3.37156 5.15402 2.84367 6.32225 2.48461L8.56155 1.79636ZM9.10836 2.87171C9.03789 2.85005 8.96253 2.85005 8.89206 2.87171L6.65276 3.55997C5.76715 3.83216 4.91865 4.21094 4.12573 4.68751H13.8747C13.0818 4.21094 12.2333 3.83216 11.3477 3.55997L9.10836 2.87171Z" fill="white"/>
<path d="M3.18771 15.75C3.18771 15.4393 3.43955 15.1875 3.75021 15.1875H14.2502C14.5609 15.1875 14.8127 15.4393 14.8127 15.75C14.8127 16.0607 14.5609 16.3125 14.2502 16.3125H3.75021C3.43955 16.3125 3.18771 16.0607 3.18771 15.75Z" fill="white"/>
<path d="M4.68771 12.75C4.68771 13.0607 4.93955 13.3125 5.25021 13.3125C5.56087 13.3125 5.81271 13.0607 5.81271 12.75L5.81271 8.25001C5.81271 7.93935 5.56087 7.68751 5.25021 7.68751C4.93955 7.68751 4.68771 7.93935 4.68771 8.25001L4.68771 12.75Z" fill="white"/>
<path d="M9.00021 13.3125C8.68955 13.3125 8.43771 13.0607 8.43771 12.75L8.43771 8.25001C8.43771 7.93935 8.68955 7.68751 9.00021 7.68751C9.31087 7.68751 9.56271 7.93935 9.56271 8.25001V12.75C9.56271 13.0607 9.31087 13.3125 9.00021 13.3125Z" fill="white"/>
<path d="M12.1877 12.75C12.1877 13.0607 12.4396 13.3125 12.7502 13.3125C13.0609 13.3125 13.3127 13.0607 13.3127 12.75V8.25001C13.3127 7.93935 13.0609 7.68751 12.7502 7.68751C12.4396 7.68751 12.1877 7.93935 12.1877 8.25001V12.75Z" fill="white"/>
</svg>
