<svg width="18" height="18" viewBox="0 0 18 18" fill="none" xmlns="http://www.w3.org/2000/svg">
<path fill-rule="evenodd" clip-rule="evenodd" d="M7.45459 1.88402C8.62413 1.7509 9.805 1.7509 10.9745 1.88402L12.171 2.0202C12.3424 2.03971 12.4954 2.13677 12.586 2.28352C12.6766 2.43027 12.6949 2.61049 12.6356 2.77246L10.9838 7.28489H12.7503C12.9348 7.28489 13.1076 7.37539 13.2127 7.52708C13.3178 7.67877 13.3417 7.87235 13.2769 8.04511L13.1341 8.42553C12.1431 11.0648 10.7422 13.5312 8.98282 15.734L8.6898 16.1009C8.54066 16.2876 8.28983 16.3597 8.0643 16.2807C7.83877 16.2017 7.68778 15.9888 7.68778 15.7498V10.3855H6.32171C6.03032 10.3855 5.78717 10.163 5.76141 9.87272L5.66944 8.83639C5.51383 7.08294 5.51383 5.31915 5.66944 3.56571L5.76141 2.52937C5.78503 2.26323 5.99262 2.05042 6.25809 2.0202L7.45459 1.88402ZM10.8473 3.0018C9.76232 2.87831 8.66681 2.87831 7.58181 3.0018L6.84143 3.08607L6.79004 3.66515C6.6403 5.35243 6.6403 7.04966 6.79004 8.73694L6.8365 9.2605H8.25028C8.56094 9.2605 8.81278 9.51234 8.81278 9.823V14.1016C10.0894 12.3448 11.1386 10.4325 11.9348 8.40989H10.1789C9.99514 8.40989 9.82301 8.32018 9.71778 8.1696C9.61255 8.01902 9.58748 7.82654 9.65063 7.65402L11.3334 3.05713L10.8473 3.0018Z" fill="white"/>
</svg>
