<svg width="18" height="18" viewBox="0 0 18 18" fill="none" xmlns="http://www.w3.org/2000/svg">
<path d="M7.5 1.6875C7.18934 1.6875 6.9375 1.93934 6.9375 2.25V2.8125H3.75C3.43934 2.8125 3.1875 3.06434 3.1875 3.375C3.1875 3.68566 3.43934 3.9375 3.75 3.9375H14.25C14.5607 3.9375 14.8125 3.68566 14.8125 3.375C14.8125 3.06434 14.5607 2.8125 14.25 2.8125H11.0625V2.25C11.0625 1.93934 10.8107 1.6875 10.5 1.6875H7.5Z" fill="white"/>
<path d="M7.5 7.9875C7.81066 7.9875 8.0625 8.23934 8.0625 8.55L8.0625 13.8C8.0625 14.1107 7.81066 14.3625 7.5 14.3625C7.18934 14.3625 6.9375 14.1107 6.9375 13.8L6.9375 8.55C6.9375 8.23934 7.18934 7.9875 7.5 7.9875Z" fill="white"/>
<path d="M11.0625 8.55C11.0625 8.23934 10.8107 7.9875 10.5 7.9875C10.1893 7.9875 9.9375 8.23934 9.9375 8.55V13.8C9.9375 14.1107 10.1893 14.3625 10.5 14.3625C10.8107 14.3625 11.0625 14.1107 11.0625 13.8V8.55Z" fill="white"/>
<path fill-rule="evenodd" clip-rule="evenodd" d="M4.49357 5.93788C4.52522 5.65301 4.76601 5.4375 5.05263 5.4375H12.9474C13.234 5.4375 13.4748 5.65301 13.5064 5.93788L13.6565 7.28889C13.9286 9.73788 13.9286 12.2095 13.6565 14.6585L13.6418 14.7915C13.5337 15.7636 12.7803 16.5387 11.8117 16.6743C9.94632 16.9355 8.05367 16.9355 6.18831 16.6743C5.21966 16.5387 4.46625 15.7636 4.35823 14.7915L4.34346 14.6585C4.07135 12.2095 4.07135 9.73788 4.34346 7.28889L4.49357 5.93788ZM5.55609 6.5625L5.46158 7.41313C5.19864 9.77955 5.19864 12.1678 5.46158 14.5342L5.47635 14.6672C5.52758 15.1283 5.88489 15.4959 6.34429 15.5602C8.10617 15.8069 9.89382 15.8069 11.6557 15.5602C12.1151 15.4959 12.4724 15.1283 12.5236 14.6672L12.5384 14.5342C12.8014 12.1678 12.8014 9.77955 12.5384 7.41313L12.4439 6.5625H5.55609Z" fill="white"/>
</svg>
