<svg width="18" height="18" viewBox="0 0 18 18" fill="none" xmlns="http://www.w3.org/2000/svg">
<path fill-rule="evenodd" clip-rule="evenodd" d="M3.44387 11.4782C1.75797 7.34006 4.8023 2.8125 9.27066 2.8125H9.51172C12.8535 2.8125 15.5625 5.52151 15.5625 8.86323C15.5625 12.5838 12.5463 15.6 8.82569 15.6H2.96048C2.72179 15.6 2.50909 15.4494 2.42987 15.2242C2.35064 14.999 2.42216 14.7484 2.60826 14.5989L4.08688 13.4115C4.15153 13.3595 4.1744 13.2713 4.14312 13.1945L3.44387 11.4782ZM9.27066 3.9375C5.60126 3.9375 3.10127 7.65551 4.48572 11.0537L5.18497 12.7701C5.40397 13.3076 5.24388 13.9252 4.79132 14.2886L4.55923 14.475H8.82569C11.925 14.475 14.4375 11.9625 14.4375 8.86323C14.4375 6.14283 12.2321 3.9375 9.51172 3.9375H9.27066Z" fill="white"/>
</svg>
