<svg width="18" height="18" viewBox="0 0 18 18" fill="none" xmlns="http://www.w3.org/2000/svg">
<path fill-rule="evenodd" clip-rule="evenodd" d="M1.84511 12.6144C1.67892 12.442 1.64003 12.1834 1.74818 11.9698L2.27431 10.9308C3.51951 8.47164 6.04172 6.92166 8.79813 6.92166H9.0568C9.07567 6.51188 9.10002 6.10228 9.12985 5.69299L9.18073 4.99501C9.22211 4.42739 9.85502 4.11009 10.3346 4.41653C11.9078 5.4218 13.2755 6.71712 14.3648 8.23344L14.7069 8.70964C14.8477 8.90575 14.8477 9.16988 14.7069 9.36599L14.3648 9.84219C13.2755 11.3585 11.9078 12.6538 10.3346 13.6591C9.85502 13.9655 9.22211 13.6482 9.18073 13.0806L9.12985 12.3826C9.09422 11.8938 9.06641 11.4046 9.04642 10.9152C7.43406 10.8686 5.82365 11.1941 4.34362 11.8771L2.48573 12.7346C2.26836 12.835 2.0113 12.7867 1.84511 12.6144ZM3.50879 11.0234L3.87219 10.8557C5.68054 10.0211 7.66469 9.66871 9.63353 9.81993C9.92026 9.84195 10.1442 10.0767 10.1527 10.3642C10.1718 11.0102 10.2049 11.6559 10.2519 12.3008L10.2559 12.3567C11.4885 11.4854 12.5687 10.4142 13.4511 9.18584L13.5574 9.03781L13.4511 8.88978C12.5687 7.66147 11.4885 6.59018 10.2559 5.71894L10.2519 5.77478C10.2099 6.35048 10.1791 6.9268 10.1593 7.5034C10.149 7.80639 9.90034 8.04666 9.59717 8.04666L8.79813 8.04666C6.62514 8.04666 4.62417 9.18509 3.50879 11.0234Z" fill="white"/>
</svg>
