<svg width="18" height="18" viewBox="0 0 18 18" fill="none" xmlns="http://www.w3.org/2000/svg">
<path d="M9 8.0625C9.31066 8.0625 9.5625 8.31434 9.5625 8.625V12.375C9.5625 12.6857 9.31066 12.9375 9 12.9375C8.68934 12.9375 8.4375 12.6857 8.4375 12.375V8.625C8.4375 8.31434 8.68934 8.0625 9 8.0625Z" fill="white"/>
<path d="M9 6.75C9.41421 6.75 9.75 6.41421 9.75 6C9.75 5.58579 9.41421 5.25 9 5.25C8.58579 5.25 8.25 5.58579 8.25 6C8.25 6.41421 8.58579 6.75 9 6.75Z" fill="white"/>
<path fill-rule="evenodd" clip-rule="evenodd" d="M2.4375 9C2.4375 5.37563 5.37563 2.4375 9 2.4375C12.6244 2.4375 15.5625 5.37563 15.5625 9C15.5625 12.6244 12.6244 15.5625 9 15.5625C5.37563 15.5625 2.4375 12.6244 2.4375 9ZM9 3.5625C5.99695 3.5625 3.5625 5.99695 3.5625 9C3.5625 12.003 5.99695 14.4375 9 14.4375C12.003 14.4375 14.4375 12.003 14.4375 9C14.4375 5.99695 12.003 3.5625 9 3.5625Z" fill="white"/>
</svg>
