<svg width="18" height="18" viewBox="0 0 18 18" fill="none" xmlns="http://www.w3.org/2000/svg">
<path fill-rule="evenodd" clip-rule="evenodd" d="M9.86575 2.52044C9.36241 2.25774 8.68036 2.25369 8.173 2.51571C6.22828 3.52007 4.46438 4.67164 2.91865 5.9489C2.67962 6.14641 2.50998 6.43343 2.51288 6.77126C2.51576 7.10771 2.68885 7.39089 2.92642 7.58514C4.45931 8.83853 6.22467 9.99114 8.13379 10.9875C8.63713 11.2502 9.31917 11.2543 9.82653 10.9923C11.7713 9.98792 13.5352 8.83634 15.0809 7.55909C15.3199 7.36157 15.4896 7.07456 15.4867 6.73672C15.4838 6.40028 15.3107 6.1171 15.0731 5.92284C13.5402 4.66946 11.7749 3.51684 9.86575 2.52044ZM8.68923 3.51528C8.86898 3.42245 9.16425 3.42332 9.34522 3.51778C11.1672 4.46871 12.846 5.56274 14.3004 6.74442C12.8373 7.94511 11.1635 9.0356 9.3103 9.99271C9.13055 10.0855 8.83529 10.0847 8.65432 9.99021C6.83231 9.03927 5.15351 7.94524 3.69909 6.76357C5.16219 5.56288 6.836 4.47238 8.68923 3.51528Z" fill="white"/>
<path d="M15.8975 9.52376C16.0621 9.78728 15.9818 10.1343 15.7183 10.2988L11.1379 13.1585C10.5163 13.5465 9.74515 13.7259 8.9997 13.726C8.25425 13.726 7.48306 13.5467 6.86142 13.1587L2.33117 10.3314C2.06762 10.1669 1.98731 9.81996 2.15179 9.55641C2.31627 9.29287 2.66325 9.21256 2.9268 9.37703L7.45704 12.2043C7.86516 12.459 8.41955 12.601 8.99963 12.601C9.57972 12.6009 10.1341 12.4589 10.5421 12.2042L15.1225 9.34451C15.386 9.17999 15.733 9.26024 15.8975 9.52376Z" fill="white"/>
<path d="M15.8975 12.3397C16.0621 12.6032 15.9818 12.9503 15.7183 13.1148L11.7517 15.592C10.9584 16.0873 9.9662 16.3204 8.99967 16.3204C8.03314 16.3205 7.04084 16.0875 6.24751 15.5923L2.33111 13.1474C2.06758 12.9829 1.98731 12.6359 2.15182 12.3724C2.31633 12.1089 2.66333 12.0286 2.92685 12.1931L6.84325 14.638C7.42301 14.9999 8.19846 15.1955 8.9996 15.1954C9.80075 15.1954 10.5761 14.9997 11.1558 14.6377L15.1224 12.1606C15.3859 11.996 15.733 12.0762 15.8975 12.3397Z" fill="white"/>
</svg>
