<svg width="18" height="18" viewBox="0 0 18 18" fill="none" xmlns="http://www.w3.org/2000/svg">
<path fill-rule="evenodd" clip-rule="evenodd" d="M1.6875 9C1.6875 6.20406 3.95406 3.9375 6.75 3.9375H12.75C14.7175 3.9375 16.3125 5.53249 16.3125 7.5C16.3125 9.46751 14.7175 11.0625 12.75 11.0625H6.64286C5.50377 11.0625 4.58036 10.1391 4.58036 9C4.58036 7.86091 5.50377 6.9375 6.64286 6.9375H12.5357C12.8464 6.9375 13.0982 7.18934 13.0982 7.5C13.0982 7.81066 12.8464 8.0625 12.5357 8.0625H6.64286C6.12509 8.0625 5.70536 8.48223 5.70536 9C5.70536 9.51777 6.12509 9.9375 6.64286 9.9375H12.75C14.0962 9.9375 15.1875 8.84619 15.1875 7.5C15.1875 6.15381 14.0962 5.0625 12.75 5.0625H6.75C4.57538 5.0625 2.8125 6.82538 2.8125 9C2.8125 11.1746 4.57538 12.9375 6.75 12.9375H12.5357C12.8464 12.9375 13.0982 13.1893 13.0982 13.5C13.0982 13.8107 12.8464 14.0625 12.5357 14.0625H6.75C3.95406 14.0625 1.6875 11.7959 1.6875 9Z" fill="white"/>
</svg>
