<svg width="18" height="18" viewBox="0 0 18 18" fill="none" xmlns="http://www.w3.org/2000/svg">
<path d="M12.5623 8.24997C12.5623 8.56063 12.3104 8.81247 11.9998 8.81247H5.99976C5.6891 8.81247 5.43726 8.56063 5.43726 8.24997C5.43726 7.93931 5.6891 7.68747 5.99976 7.68747H11.9998C12.3104 7.68747 12.5623 7.93931 12.5623 8.24997Z" fill="white"/>
<path fill-rule="evenodd" clip-rule="evenodd" d="M3.28894 6.10999L4.18049 3.6743C4.40517 3.06046 4.95011 2.62061 5.59754 2.53052C7.85482 2.21639 10.1447 2.21639 12.402 2.53051C13.0495 2.62061 13.5944 3.06047 13.8191 3.67431L14.7107 6.11022C14.8774 6.37038 14.9923 6.66778 15.0405 6.98839L15.117 7.49678C15.4168 9.49075 15.3888 11.5203 15.034 13.5052C14.8767 14.3852 14.154 15.0536 13.2644 15.1419L12.3416 15.2335C10.1192 15.4541 7.88033 15.4541 5.65788 15.2335L4.73503 15.1419C3.84548 15.0536 3.12281 14.3852 2.96551 13.5052C2.61071 11.5203 2.58268 9.49075 2.88252 7.49678L2.95897 6.98839C3.00719 6.66769 3.12211 6.37021 3.28894 6.10999ZM5.7526 3.64478C7.907 3.34497 10.0926 3.34497 12.247 3.64478C12.4826 3.67756 12.6809 3.83762 12.7626 4.061L13.1423 5.09823C13.1083 5.09328 13.074 5.08909 13.0395 5.08566L12.3059 5.01285C10.1072 4.79462 7.89229 4.79462 5.6936 5.01285L4.95995 5.08566C4.9255 5.08908 4.89127 5.09328 4.85728 5.09822L5.23694 4.06099C5.3187 3.83762 5.517 3.67756 5.7526 3.64478ZM4.264 6.6757L4.27799 6.68083L4.29536 6.63339C4.47967 6.3965 4.7565 6.23638 5.07107 6.20516L5.80471 6.13235C7.92951 5.92145 10.07 5.92145 12.1948 6.13234L12.9284 6.20516C13.243 6.23639 13.5199 6.39656 13.7042 6.63354L13.7215 6.68082L13.7355 6.67572C13.8338 6.81514 13.9013 6.9783 13.928 7.15568L14.0045 7.66407C14.2861 9.53683 14.2598 11.443 13.9265 13.3073C13.8578 13.6918 13.542 13.9839 13.1533 14.0224L12.2305 14.114C10.0819 14.3273 7.91755 14.3273 5.769 14.114L4.84615 14.0224C4.45746 13.9839 4.14169 13.6918 4.07296 13.3073C3.73972 11.443 3.71339 9.53683 3.99501 7.66407L4.07146 7.15568C4.09814 6.9783 4.16565 6.81513 4.264 6.6757Z" fill="white"/>
</svg>
