<svg width="18" height="18" viewBox="0 0 18 18" fill="none" xmlns="http://www.w3.org/2000/svg">
<path fill-rule="evenodd" clip-rule="evenodd" d="M14.6251 12.75C14.6251 12.4393 14.3733 12.1875 14.0626 12.1875H3.5626C3.25194 12.1875 3.0001 12.4393 3.0001 12.75C3.0001 13.0607 3.25194 13.3125 3.5626 13.3125H14.0626C14.3733 13.3125 14.6251 13.0607 14.6251 12.75Z" fill="white"/>
<path d="M3.5626 8.4375H10.5626C10.8733 8.4375 11.1251 8.68933 11.1251 8.99999C11.1251 9.31065 10.8733 9.5625 10.5626 9.5625H3.5626C3.25194 9.5625 3 9.31066 3 9C3 8.68934 3.25194 8.4375 3.5626 8.4375Z" fill="white"/>
<path d="M3.5626 4.6875H7.0626C7.37326 4.6875 7.6251 4.93933 7.6251 5.24999C7.6251 5.56065 7.37326 5.8125 7.0626 5.8125H3.5626C3.25194 5.8125 3.00016 5.56066 3.00016 5.25C3.00016 4.93934 3.25194 4.6875 3.5626 4.6875Z" fill="white"/>
</svg>
