<svg width="18" height="18" viewBox="0 0 18 18" fill="none" xmlns="http://www.w3.org/2000/svg">
<path d="M5.25536 8.99986C5.25536 8.6892 5.5072 8.43736 5.81786 8.43736H8.43732V5.81788C8.43732 5.50722 8.68916 5.25538 8.99982 5.25538C9.31048 5.25538 9.56232 5.50722 9.56232 5.81788V8.43736H12.1818C12.4925 8.43736 12.7443 8.6892 12.7443 8.99986C12.7443 9.31052 12.4925 9.56236 12.1818 9.56236H9.56232V12.1818C9.56232 12.4925 9.31048 12.7443 8.99982 12.7443C8.68916 12.7443 8.43732 12.4925 8.43732 12.1818V9.56236H5.81786C5.5072 9.56236 5.25536 9.31052 5.25536 8.99986Z" fill="white"/>
<path fill-rule="evenodd" clip-rule="evenodd" d="M5.48737 2.82643C7.80303 2.56762 10.1966 2.56762 12.5122 2.82643C13.882 2.97953 14.9882 4.05851 15.1493 5.43623C15.4263 7.80392 15.4263 10.1958 15.1493 12.5635C14.9882 13.9412 13.882 15.0202 12.5122 15.1733C10.1966 15.4321 7.80303 15.4321 5.48737 15.1733C4.11758 15.0202 3.01141 13.9412 2.85027 12.5635C2.57335 10.1958 2.57335 7.80392 2.85027 5.43623C3.01141 4.05851 4.11758 2.97953 5.48737 2.82643ZM12.3873 3.94447C10.1547 3.69494 7.84494 3.69494 5.61232 3.94447C4.754 4.0404 4.06696 4.71783 3.96765 5.56692C3.70089 7.84778 3.70089 10.152 3.96765 12.4328C4.06696 13.2819 4.754 13.9593 5.61232 14.0553C7.84494 14.3048 10.1547 14.3048 12.3873 14.0553C13.2456 13.9593 13.9326 13.2819 14.032 12.4328C14.2987 10.152 14.2987 7.84778 14.032 5.56692C13.9326 4.71783 13.2456 4.0404 12.3873 3.94447Z" fill="white"/>
</svg>
