<svg width="18" height="18" viewBox="0 0 18 18" fill="none" xmlns="http://www.w3.org/2000/svg">
<path fill-rule="evenodd" clip-rule="evenodd" d="M2.8125 6C2.8125 4.03249 4.40749 2.4375 6.375 2.4375H13.875C14.5999 2.4375 15.1875 3.02513 15.1875 3.75V15C15.1875 15.7249 14.5999 16.3125 13.875 16.3125H5.625C4.0717 16.3125 2.8125 15.0533 2.8125 13.5V6ZM14.0625 3.75V10.6875H5.625C4.99185 10.6875 4.40756 10.8967 3.9375 11.2498V6C3.9375 4.65381 5.02881 3.5625 6.375 3.5625H8.78093C8.58346 5.04866 8.60119 6.55671 8.83458 8.04001L8.88137 8.33742C8.91489 8.55044 9.06724 8.72555 9.27357 8.78822C9.47991 8.85089 9.7039 8.79008 9.85023 8.63168L10.875 7.52229L11.8998 8.63168C12.0461 8.79008 12.2701 8.85089 12.4764 8.78822C12.6828 8.72555 12.8351 8.55044 12.8686 8.33742L12.9154 8.04001C13.1488 6.55671 13.1666 5.04866 12.9691 3.5625H13.875C13.9786 3.5625 14.0625 3.64645 14.0625 3.75ZM11.8334 3.5625H9.91659C9.75373 4.69814 9.72659 5.84865 9.8354 6.98976L10.3241 6.46073C10.621 6.13927 11.129 6.13927 11.4259 6.46073L11.9146 6.98976C12.0234 5.84865 11.9963 4.69814 11.8334 3.5625ZM5.625 11.8125H14.0625V15C14.0625 15.1036 13.9786 15.1875 13.875 15.1875H5.625C4.69302 15.1875 3.9375 14.432 3.9375 13.5C3.9375 12.568 4.69302 11.8125 5.625 11.8125Z" fill="white"/>
</svg>
