<svg width="18" height="18" viewBox="0 0 18 18" fill="none" xmlns="http://www.w3.org/2000/svg">
<path fill-rule="evenodd" clip-rule="evenodd" d="M16.3125 9C16.3125 9.20428 16.2017 9.39251 16.0232 9.49172L14.3114 10.4427C10.9279 12.3224 7.36105 13.8515 3.66659 15.006L3.16778 15.1619C2.99698 15.2153 2.81098 15.1842 2.66681 15.0782C2.52264 14.9722 2.4375 14.8039 2.4375 14.625L2.4375 10.3125C2.4375 10.0192 2.66281 9.77518 2.95514 9.75179L3.12564 9.73815C4.73923 9.60907 6.3404 9.36216 7.9164 8.99977C6.31827 8.63234 4.69426 8.38368 3.05768 8.2562L2.95632 8.2483C2.66349 8.22549 2.4375 7.98122 2.4375 7.6875L2.4375 3.375C2.4375 3.19606 2.52264 3.0278 2.66681 2.9218C2.81098 2.81581 2.99698 2.78474 3.16778 2.83811L3.66659 2.99399C7.36105 4.14851 10.9279 5.67756 14.3114 7.55732L16.0232 8.50829C16.2017 8.6075 16.3125 8.79572 16.3125 9ZM14.5917 9L13.7651 8.54075C10.5192 6.7375 7.10135 5.26351 3.5625 4.14067L3.5625 7.16968C5.76006 7.36788 7.93372 7.77762 10.0532 8.39339L10.2819 8.45984C10.5224 8.5297 10.6877 8.75013 10.6875 9.00055C10.6873 9.25097 10.5215 9.47107 10.2809 9.54047L9.98795 9.62496C7.88911 10.2303 5.73752 10.6338 3.5625 10.83L3.5625 13.8593C7.10134 12.7365 10.5192 11.2625 13.7651 9.45926L14.5917 9Z" fill="white"/>
</svg>
